<mxfile host="app.diagrams.net" modified="2021-12-19T03:12:42.977Z" agent="5.0 (Windows NT 10.0; Win64; x64) AppleWebKit/537.36 (KHTML, like Gecko) Chrome/96.0.4664.110 Safari/537.36" etag="udaOFDgr8qED9IlpPtWn" version="16.0.0" type="github">
  <diagram name="Page-1" id="b5b7bab2-c9e2-2cf4-8b2a-24fd1a2a6d21">
    <mxGraphModel dx="1730" dy="933" grid="1" gridSize="10" guides="1" tooltips="1" connect="1" arrows="1" fold="1" page="1" pageScale="1" pageWidth="827" pageHeight="1169" background="none" math="0" shadow="0">
      <root>
        <mxCell id="0" />
        <mxCell id="1" parent="0" />
        <mxCell id="6e0c8c40b5770093-72" value="" style="shape=folder;fontStyle=1;spacingTop=10;tabWidth=194;tabHeight=22;tabPosition=left;html=1;rounded=0;shadow=0;comic=0;labelBackgroundColor=none;strokeWidth=1;fillColor=none;fontFamily=Verdana;fontSize=10;align=center;" parent="1" vertex="1">
          <mxGeometry x="320" y="170" width="1240" height="885" as="geometry" />
        </mxCell>
        <mxCell id="6e0c8c40b5770093-73" value="Journey" style="text;html=1;align=left;verticalAlign=top;spacingTop=-4;fontSize=10;fontFamily=Verdana" parent="1" vertex="1">
          <mxGeometry x="349" y="170" width="130" height="20" as="geometry" />
        </mxCell>
        <mxCell id="JA8R-4U_Gd6iWjnFNRrc-3" value="" style="shape=folder;fontStyle=1;spacingTop=10;tabWidth=156;tabHeight=30;tabPosition=left;html=1;" vertex="1" parent="1">
          <mxGeometry x="369" y="350" width="411" height="260" as="geometry" />
        </mxCell>
        <mxCell id="JA8R-4U_Gd6iWjnFNRrc-4" value="Journey Core" style="text;align=center;fontStyle=1;verticalAlign=middle;spacingLeft=3;spacingRight=3;strokeColor=none;rotatable=0;points=[[0,0.5],[1,0.5]];portConstraint=eastwest;" vertex="1" parent="1">
          <mxGeometry x="420" y="350" width="80" height="26" as="geometry" />
        </mxCell>
        <mxCell id="JA8R-4U_Gd6iWjnFNRrc-5" value="Mindmeld&#xa;NLP" style="shape=module;align=left;spacingLeft=20;align=center;verticalAlign=top;" vertex="1" parent="1">
          <mxGeometry x="448" y="400" width="100" height="50" as="geometry" />
        </mxCell>
        <mxCell id="JA8R-4U_Gd6iWjnFNRrc-51" value="" style="edgeStyle=orthogonalEdgeStyle;rounded=0;orthogonalLoop=1;jettySize=auto;html=1;fontSize=8;startArrow=classic;startFill=1;entryX=0;entryY=0;entryDx=390;entryDy=65;entryPerimeter=0;" edge="1" parent="1" source="JA8R-4U_Gd6iWjnFNRrc-6" target="JA8R-4U_Gd6iWjnFNRrc-32">
          <mxGeometry relative="1" as="geometry">
            <mxPoint x="874" y="735" as="targetPoint" />
            <Array as="points">
              <mxPoint x="1360" y="735" />
              <mxPoint x="1360" y="285" />
            </Array>
          </mxGeometry>
        </mxCell>
        <mxCell id="JA8R-4U_Gd6iWjnFNRrc-52" value="Configure" style="edgeLabel;html=1;align=center;verticalAlign=middle;resizable=0;points=[];fontSize=8;" vertex="1" connectable="0" parent="JA8R-4U_Gd6iWjnFNRrc-51">
          <mxGeometry x="-0.2778" y="-1" relative="1" as="geometry">
            <mxPoint as="offset" />
          </mxGeometry>
        </mxCell>
        <mxCell id="JA8R-4U_Gd6iWjnFNRrc-6" value="" style="shape=folder;fontStyle=1;spacingTop=10;tabWidth=156;tabHeight=30;tabPosition=left;html=1;" vertex="1" parent="1">
          <mxGeometry x="369" y="640" width="310" height="190" as="geometry" />
        </mxCell>
        <mxCell id="JA8R-4U_Gd6iWjnFNRrc-7" value="Frontend" style="text;align=center;fontStyle=1;verticalAlign=middle;spacingLeft=3;spacingRight=3;strokeColor=none;rotatable=0;points=[[0,0.5],[1,0.5]];portConstraint=eastwest;" vertex="1" parent="1">
          <mxGeometry x="410" y="640" width="80" height="26" as="geometry" />
        </mxCell>
        <mxCell id="JA8R-4U_Gd6iWjnFNRrc-30" value="" style="edgeStyle=orthogonalEdgeStyle;rounded=0;orthogonalLoop=1;jettySize=auto;html=1;fontSize=8;" edge="1" parent="1" source="JA8R-4U_Gd6iWjnFNRrc-8" target="JA8R-4U_Gd6iWjnFNRrc-11">
          <mxGeometry relative="1" as="geometry" />
        </mxCell>
        <mxCell id="JA8R-4U_Gd6iWjnFNRrc-39" value="" style="edgeStyle=orthogonalEdgeStyle;rounded=0;orthogonalLoop=1;jettySize=auto;html=1;fontSize=8;" edge="1" parent="1" source="JA8R-4U_Gd6iWjnFNRrc-8" target="JA8R-4U_Gd6iWjnFNRrc-31">
          <mxGeometry relative="1" as="geometry" />
        </mxCell>
        <mxCell id="JA8R-4U_Gd6iWjnFNRrc-8" value="User" style="shape=umlActor;verticalLabelPosition=bottom;verticalAlign=top;html=1;" vertex="1" parent="1">
          <mxGeometry x="810" y="21" width="47" height="90" as="geometry" />
        </mxCell>
        <mxCell id="JA8R-4U_Gd6iWjnFNRrc-15" value="" style="edgeStyle=orthogonalEdgeStyle;rounded=0;orthogonalLoop=1;jettySize=auto;html=1;entryX=1;entryY=0.5;entryDx=0;entryDy=0;entryPerimeter=0;" edge="1" parent="1" source="JA8R-4U_Gd6iWjnFNRrc-11" target="JA8R-4U_Gd6iWjnFNRrc-13">
          <mxGeometry relative="1" as="geometry">
            <mxPoint x="564" y="66" as="targetPoint" />
          </mxGeometry>
        </mxCell>
        <mxCell id="JA8R-4U_Gd6iWjnFNRrc-11" value="«interface»&lt;br&gt;&lt;b&gt;Telegram,Whatsapp&lt;br&gt;&lt;/b&gt;" style="html=1;" vertex="1" parent="1">
          <mxGeometry x="610" y="41" width="140" height="50" as="geometry" />
        </mxCell>
        <mxCell id="JA8R-4U_Gd6iWjnFNRrc-13" value="" style="shape=providedRequiredInterface;html=1;verticalLabelPosition=bottom;sketch=0;rotation=-90;" vertex="1" parent="1">
          <mxGeometry x="548" y="150" width="42" height="40" as="geometry" />
        </mxCell>
        <mxCell id="JA8R-4U_Gd6iWjnFNRrc-19" value="" style="rounded=0;orthogonalLoop=1;jettySize=auto;html=1;endArrow=none;endFill=0;sketch=0;sourcePerimeterSpacing=0;targetPerimeterSpacing=0;exitX=0;exitY=0.5;exitDx=0;exitDy=0;exitPerimeter=0;" edge="1" target="JA8R-4U_Gd6iWjnFNRrc-21" parent="1" source="JA8R-4U_Gd6iWjnFNRrc-13">
          <mxGeometry relative="1" as="geometry">
            <mxPoint x="560" y="285" as="sourcePoint" />
          </mxGeometry>
        </mxCell>
        <mxCell id="JA8R-4U_Gd6iWjnFNRrc-20" value="" style="rounded=0;orthogonalLoop=1;jettySize=auto;html=1;endArrow=halfCircle;endFill=0;entryX=0.5;entryY=0.5;endSize=6;strokeWidth=1;sketch=0;exitX=0.529;exitY=0.204;exitDx=0;exitDy=0;exitPerimeter=0;" edge="1" target="JA8R-4U_Gd6iWjnFNRrc-21" parent="1" source="JA8R-4U_Gd6iWjnFNRrc-22">
          <mxGeometry relative="1" as="geometry">
            <mxPoint x="600" y="285" as="sourcePoint" />
          </mxGeometry>
        </mxCell>
        <mxCell id="JA8R-4U_Gd6iWjnFNRrc-21" value="" style="ellipse;whiteSpace=wrap;html=1;align=center;aspect=fixed;resizable=0;points=[];outlineConnect=0;sketch=0;" vertex="1" parent="1">
          <mxGeometry x="564" y="210" width="10" height="10" as="geometry" />
        </mxCell>
        <mxCell id="JA8R-4U_Gd6iWjnFNRrc-22" value="" style="shape=folder;fontStyle=1;spacingTop=10;tabWidth=90;tabHeight=20;tabPosition=left;html=1;" vertex="1" parent="1">
          <mxGeometry x="410" y="230" width="300" height="100" as="geometry" />
        </mxCell>
        <mxCell id="JA8R-4U_Gd6iWjnFNRrc-24" value="Journey Telegram Bot" style="text;align=center;fontStyle=1;verticalAlign=middle;spacingLeft=3;spacingRight=3;strokeColor=none;rotatable=0;points=[[0,0.5],[1,0.5]];portConstraint=eastwest;fontSize=8;" vertex="1" parent="1">
          <mxGeometry x="429" y="230" width="50" height="10" as="geometry" />
        </mxCell>
        <mxCell id="JA8R-4U_Gd6iWjnFNRrc-26" value="dispatch" style="html=1;verticalAlign=bottom;endArrow=block;rounded=0;fontSize=8;entryX=1;entryY=0.25;entryDx=0;entryDy=0;exitX=0.75;exitY=1;exitDx=0;exitDy=0;exitPerimeter=0;" edge="1" parent="1" source="JA8R-4U_Gd6iWjnFNRrc-22" target="JA8R-4U_Gd6iWjnFNRrc-5">
          <mxGeometry width="80" relative="1" as="geometry">
            <mxPoint x="460" y="340" as="sourcePoint" />
            <mxPoint x="540" y="340" as="targetPoint" />
            <Array as="points">
              <mxPoint x="635" y="413" />
            </Array>
          </mxGeometry>
        </mxCell>
        <mxCell id="JA8R-4U_Gd6iWjnFNRrc-28" value="" style="shape=image;verticalLabelPosition=bottom;labelBackgroundColor=#ffffff;verticalAlign=top;aspect=fixed;imageAspect=0;image=data:image/png,iVBORw0KGgoAAAANSUhEUgAAAYoAAAHHCAYAAAChuB+iAABLr0lEQVR42u2dCVSTd773OR6Pp69vX6/jRctQr5MqtRqQUkE2EZ48CZuKUiq41sGQBLSuuK/BLCCu03astdZd64LWOo7X6XQcx3FBRWqttd5Ob2/r9fXtdLzUcdAyiPi8z+9J/iFoSMISIOT7Pedz2oNKkmf5f/L8f//Fzw9BEARBEARxEL2+E8Fx+s7cNP2zLYEfx3XGgUUQBOlootBvfyZn/e96tARyubwLDiyCIAhEAVEgCIK0p1DjyxritLmb/Tnd2noMX7A1Qv3mH/KJ0YYj2xOXHjhOhE/fctIdYmdvu5ayZI9A8At2Cdz8nU0masaWq4OnbvrEHdj7HKEvKRlXfHQTkTJvE/fk56PPDBEhCIJAFBAFgiDIkwkMT+tqIbxrUFRUN+L5gVHRgS9FjCK69wtPJ15STcrKNB/JJpLy31fHvfFWPZRz31+QUXRsJ5G47OCphIV7y4mIGVuvPc37TxE9e9tNEgQRP2+nEDd3R33yG2L7U0TO2HIzYtrmq+6QsGBPOaFatK90pP7gx4Ry1rsr4vI2qO1Jyn9PnWk+nE28pBif9a/9wtLt6dEvLLa7LKw7ERgY3lUmkz1D4ApDEMTro9lyqjeRt+mUbOJb/y4nMgz7StKW7LxDvDJ9WyUxeMa2qshZYiMssUOInL3Tgu1n2+t+5gr7f+OSbRZmNsRW95jxvmOmb3HAe3W8sbkO9rO8Xz+I1L15z55Y3YajidrVYQSXVyTjpq0OIHCFIQgCUUAUEAWCIN6dpNcLehFDX1/Y56VRs0KJF1Nz5/VL1W4ikpaXHCMSlx08zi/d/zGRsGDPrWHzdlUTEbN21Fipddzo76jDqRR2tE9RzNhiYXoDOBLFtHdrIqdtsvKORNTUjbeHTn37EyJ62pvHo6f+6hjx8sip64jB6TOmR02cKyd6BAV1w5WJIEi7yZR3PulLjF9zIjR2zp4kImrG1iNRMzbfIuo16nN22bHbyi7nNObpoT2KYqaVJ2Vhe+J4zwWbLbzxro0hUzeK/FoiOf/9a8TwRbt3Zqw6Gk8EhnP+uDIRBIEoIAqIAkGQdhaO65xWsLkrkWXYl8eGetZr1PP3NIxNDE/STFF4U42CScOlHByIwh777iomkGmbbCTO23qP1YBSJ+q7EeHhaV1xESMIAlFAFBAFgiBtIwhiAJcuS8l/ZxIxcuneLSMNH35M1OtKapQgWqrryUGxu72KwlbY9qwouDlbqhLnb7tHKNTmyURU+owk6pKydkthQh+CIC0X9hRBgrB9I55NTw97rexp4pOEL9YoWOPfhBqFK1E0QNwbGyWU87adQg0DQRCIAqKAKBAEaZ3IZNwzQakTuxFxM7fsJWJnbT1T14DvaUeiaO9dT3aNvie7nhog+o13JGJnvPvDsLnbThGhE5ZPZnNecLUjCNKkkCDYYnW2mdMzd1RFzhXFMHevnSTcEIXPF7PtGn1PFrMbZJPEkGnv2IbURs/abmZDmXG1IwgCUUAUEAWCIC0XQfDrRMxfXbD9lVm7KgibHOxpjChQo2jTGgUThf2oqEhRGgy2flRYSrYMdwCCIBAFRAFRIAjS9KRGBXU7tT8nhFAb1x0dPHt3JdGSoojKtxAt/jxmrgX2s6hmi6KdLwr4pCgcrSTbBqLgctfNI4aMmZvB9gsRL4fOuCMQBHkqzw2MDVEtLzESQxfuvx459wPBQjNFYSVKZOi8vRLxCz4QuIX7JNjPSBqYmd1aoqiDDZ9NWrj9Y7YMvFUWCIIgEAVEAVEgCNKI9AiKSho6d9d1ImrunnvNEQWTAbF0158lVh+6KOw/fUPiyPm/CMcufi2x8w/XJN78qEyY895JiZEFh2xdU+7LYUf9bigb6HpyJoroae9IxM3eci1l6d5lREBwlBx3BIIgDkQRMcbWaFJNoRmiIEHwi/ZLbPv9VQmSwrd//bvEX3+8L1T84yeJ69/9TeLklW+FDUfKJMYWHbU9aTRZFG4/XfhiMftpYmZsvpkwd+s+4rmgwdG4IxAEgSggCogCQRD3wtb/SdUfWlFfCI0TRazYqDM5/Pbif9pE0JTc+ts9m0BsNYz83d45PLad1ygcETRzU5afXt9JAkEQBKKAKCAKBEGcJkVfwhHKpQdXNkcUKSsOCTM2fSJx/sv/K1T+VC3RlPzPvQeSLIhJa45JjDYc9s55FK21H0WzRVE3tyJk1uYlQfnvRBO4QxAE8WNr/kTP2Wuuk8MH7ovC+jPt2x8LZ6/fkrgjNvQtFVbjWLrztHcOj/WSGoW9KOLmbDnH6hW4QxAEgSggCogCQRDPiiJ5eYnEst1nhL/+WClRVV3TYqL4+naFxN5T16U6BRHVruZRMBF0nK6n6Bmbv42Z9d4VguP0nQk/P9QrEASiaKIo0o1HJFaVXBAe1jySqK193GKiYL/z959+aytsRzmasd1mw2MbIYp2XcyuE0Xk9HcromZsvkVk6g92ISyyQBAEooAoIAqIAkGQJ5Np2C8Qw5fvE5oiigXbT0vsPnVd8GTOXv+/NinFL9jbjobHuhCFF9Yo2AZHRLhuc1dCnpnZBXcLgkAUEAVEAVEgCPJ0XjMcFIjU5fu9XBQ72qco2vmigBAFgiAuwxrf5OWHvFMUbT48tuPVKCAKBEEgCogCokAQxP0MX3FAIJRLmtb1NGntcYk3j5YLNY9qJWoft9yoJ/Y7T372ncAv3i8RO3e3l3Y9udvdBFEgCNKOkrxsn0AoFn8geOXwWK8qZjsCokAQBKKAKCAKBEG8OWxp8PgFTRsei7WeXNUo7Bp9W40CokAQBKKAKCAKBEEgivr7UYwt/o3w3okrEl/+9x3hftVDiabk3oN/SrIhlu/6s4T2zRNOtkDd0X6L2fUm2W1x0AUFUSAI4iOiGDp/r8DqHYfO3rDtj92U3Lj1P7ank/a/wx1qFAiCQBQQBUQBUSAIRNF8UUTNtciC+OX648Kc9/4o8cer30lc/vp74Ye7DyTu3q+ybZXKtjy99u3fpL22Cf2eM4L2rRMSNMJJosF6RHvvemqKHCAKBEE6oCjsiSFpWJ8EWDH62MWvbU8Zf/3xvlDxj58krn/3N4mTV74VNhwpk3jNfESIpCGwjpYT97pitv3GRe4uBAhRIAgCUUAUEAWCIL4sinrM2e2CXc5pjBRQo4AoEASBKCAKiAJBEIiiiaLwpkUBIQoEQSCK1hMFZmZDFAiCQBQQBUSBIAhEga4niAJBEIgCxWyIAkEQiAKigCgQBIEoUKPoaBPu3nkKiAJBEIgCooAoEATxpa4nLAoIUSAIAlGgRgFRIAgCUUAUEAWCIBCFj3Y9tfetUCEKBEE6uigwMxuiQBAEooAoIAoEQdowquUlRiJ+8f6iiNk714Gd64bM3P4VahQQBYIgEAVEAVEgCOJOXn5tThYx8NU54/qlTpvsqwSPXT55WP7WbCJm1tayyBmiBGZs9dCigJhHgSAI4o3plKk/2IWIn7PlcN0TAWZmQxQIgiAQBUSBIAjSZqJA1xOCIAhEgWI2giAIRAFRQBQI0vaRy+Vdctb/rgcxbeOpAM2WU71B66Hb/EmfKe980pdIXLr/eMvVKDDhDkEQiAKigCgQBGlKNwajd3BMD+K50NhePUKjeksERUWLJNnTP2lSeqb5SDYxdu1vdRPX/y7PNzjePlh7PG9s8bHphGLBnistL4qOuShgJtfzWSKdC5C9yvVIaSvG8L1iM1Kf701kJvfuwd4XmiKk3Ybj9J1Zfze/9EgkoVp2hFMsO5pBRM794ED4rB3X7YmYteMWW98obuE+gVtysGWg30Us2l/3M/p/9vO2Zv4eD7Oz0cTM3o5lxt0UhVCeHEQ8vMRl/+N09I224qfzcYeFz5KzJD5NjGDvC60RAlFAFBAFRAFRIN6THkFB3aImzpUTQ2f8emX8wj2HidiFJSeJmIUlp2IWHT5HRM4/cGvI3H33LHxgIX/vg8i5tILrPiF6/gEhZsFBKwdcsN858/fV4ehn8z5wwd6nmdsY9jgnf5dz5riL2MDP2eGA7e4xu44obIXqviguDJMTtReHTX94Ie6eW5QObYDYJhAj8ehC3K3Hl+JLLcR9IlwaeoL4wBQ0mzhQODD94PrgHoRc7od6C9I2CQzn/DNWHY0nEpYeOhU5/6DwFAtKHHDQwvyGOOCceftdsM85DpcW98JlxqXNi7Y3gVbcM7sDzswWymJDJC7G5QuXEwQL8c4pG+aAuAYYauFSQ8Q+zYVokSiJh+cjDxC1l4YuEp80AolsTvYMWiwEooAoIAqIAqJA2jbhk5YMHr3698OJqPxd1UTk3D01dY07CeCQlRIXtIEoXMrBy/fMbtQmRtgzu8OJ4lJMHRctVJ+Lrq04GVVNPLzIaZg00JohEAVEAVFAFBAF0iqR5kP0CIrq5j8grj8RoVmrSzIcLyLEhrNGYt6+WoiijUUhdT89SRuLYkZD8ycgitYURc356NrK01E1RNX5+M0PLyh0BMf5dSas9zmCNC1smGvq4m3yoUs/mkdELzp8NXLhYcHCIQsLGqIdigI1CuyZ7WOisOf+6SHC3ZPhEsLl8K7EQb0cI6EQiAKigCggCogCaeHo9X6diFcNJWYiWX9oKwnCKom7Xi0KdD2h68mHRVFzPkqoPhcp8eBMxGHiL0cGLzhWEN6VsHZFIYhrSQiChYyi354hUlb+5kY9AUAUKGajmO2VohAuRttgTxaVZ2KOCFe47kRmJp4uEIgCooAoIAqIAmluXsrIH8XqEXVCaAjUKFCjwIQ7bxUFo/ZC1C02OS+D6xGNVhCBKCAKiAKigCiQpkT2TE85F0CETlk1L3bJh7uJDimKDtX11JjCdRuLoiMuCthBRPH4QtSdR6WR54i1s18Yw/a2QLuI1AsJgs22Hrbs6JmnaxEQBWoUqFF0VFHUe7oo5zewJcvRMiIQBUQBUUAUEAXi1hCnTkSf8Uvjhi4uOUpELSy5HblAlMCCwxCFQzmg6wlboXZcUVSdG/ZV5dmEUgINJFJPFC/Mem/U4Nl7bhMR8w9WRS78ULCAYna7FgVmZkMULSyK+3+OFe6eipNAA4lAFBAFRAFRQBSI69gm1Bl+cyNykSiGRUwQHVgUHarrCTUKiKKFaxSlkcKj8xaEy3wS8cGakFC0lhAFRAFRQBQQBUSBOM5wURCEcsVHtyEKLxdFWywKOON9FzgqYmMeRXsXRe15C8KlYdnEvqIBHFpLH07s4sMCEb3osOAzokCNovVEgZnZXicKtt82UXtx6CZif1F/DVpLiAKigCggCogCokDq0jtmVJA8c0EkESU29lGs0UfXE7qe0PUEUdiJovL0kG+InQX93kbL6WMhQSiWHc0g6jX6EAWK2S0tChSzvVoUbBnyHcv7lqDlhCggCogCooAoIArErxPb/1q5ZPeWhMUHbhM2OdiDGgVqFC1Wo8CEO28WhY1LcceETxMDiWxO9gyaU4gCooAoIAqIAqLwVVFk67c/QygX7d4Zt/hgBeGTosCigG0gCiwK6M2ieFw27IxwdXgKkcn1DEBz2lHDcZ3TCjZ3JRIW7Dlsa+AhCtQoUKOAKFyKIv5m7Rdpe4nM5IBINKgQBUQBUUAUEAVE4Yv5t1eGBk4qPJJO8MsOn3tqpBNEga4nT0+464jzKC7Fx1tIWNGRRVFTGnPv/rm4a0Q63yMJLWoHTd+X4/qr3/xDPqEqOHbVoSBQzEYxGzOzGycK66J5tWUJ5o4siofnIqv+/qfIH4hR8f6j0KJCFBAFRAFRQBQQhS/Gf0Bc/6FLP5pHRC/+0LdFgRoFahRORBGZ+9aDSN2b9wg2pJzj9J0d3VePyjiBEEUhdOgahf3S4+UKHRsqi5YVooAoIAqIAqKAKHwpAfKYSF5/ZDcRu+TITYgCiwK23aKA7XzUU96vfxiS++tvCRKERRL6To5FkSAQviAK2x4Vl7k84bKqD4GWtYPl+eDYMenGIwIRv9SJJFCjQI3Cx2dmR0zddHXw1E2fEK7uq1qxkWd06JnZFyLrKOOmC+XJQQRaVogCooAoIAqIAqLwpfR8KXZM/JLDAlFvkyJ0PaHrCV1P9RixfN+BrFVHlxGO7qXZ2bLuB1fLAwhfFEXtpZg14u9JJ9CydrD0EEVha7wXQhQoZqOY3ZAoxhZ9tHHau3+cTDi6l0gQ7Bu1T4riwpDN4s90BFpWiAKigCggCogCovCFTHzr3+VEeuFvZjvcpAg1CtQoMOFOiMz7dQ0bEvuv/cKcdqkcKB6ULnzKL5K4bD/ayTdEUXMu8kr12cgTBFpYiAKigCggCogCovCFZBT/JppINf1mSbsUxfyDLkDXExYF9JwohkzdKBE17Z07sdPfPU34B0VwDm6lTpmZ8i7EmW2vzKy+kLCbgCiQDhG2N3bc0qPrIhcdESx8CFGgRoEahSQKy5pOMTPfu6hasn8yETAgWvbkfUSCEK5w3YnKM3ElFSejqgmIAoEoIAqIAqKAKCAKiAKiQNeTL2+Fqpi1+SYRPnbRThKEJInAwK5PdeEqe/UVLg/TEA8vxpVVl8bVEr4oikfnI+/WnI38nkALC1F0XFGgmI2Z2VaS89+/Rrw8cuo6Z/dRZmL3sNpLURuIx2VxXwnlohDKHUnCB4bHnq9bIBAtLEQBUUAUEAVEAVH4xKinot+eIVIMx25AFKhRoEYhkvu2bRlxto98gxsTWZfTfnhJqbt7Kk4gqi/EC74sCnvQwkIUEAVEAVFAFBCFL2SE8egVQrnio28hCi8RhbvdTV67KGBbzKN4pzYyb2MN8XLe26dCpr61kyBBEBzHdXYsCqWKqLnEGe+fGSYQNRchCoiigyVh8YHbRNzikgqIwktqFI0RBWZmuyeKqRttM6/7ztiY4afXd5JwkdqLQzcRj8uGfWyTgz0QBQJRQBQQBUQBUUAUHT5D8vfckZi37x5Ega4nX+t6ipuz5RyRMPu9nckzf51F9B2a6XQLz9njArj95n6TiUeX4r8hasviv4conubAKnkWkT8uMBatrRfnlVm7KojB+R9UQhQoZvtaMTth7tZ9RGL+e/mscO3XQD2ChQTBhsI+KuMEQtoTG6J4msuckSBZoLWFKCAKiAKigCggCogCNQrUKDxco2jBCXdRVthaTdHTN91kUuBmrFdxurX+hKv7QxD8Okmc40JYoyc29teFcoVgIcE5Pi4KJlSSK1pbiAKigCggCogCooAo0PXUFqKInbvHym5h6LxmMHeXyM6niMvf0Uy2O2fONju2Ps1sOxz9bPb7TuHmbpMYNmfr3SEztpQTMbO2lsXN3H6R6JukLiFeTNVskqflzSRCUiaHBqVO7Ea4FAUJgiiNzxLKEg5LXOZuQRQQBUQBUbSNKOr9meXf84v2SygX7xOSl7U8KUv2tA6Ld4vsbHEyDfslRizdWx41c4eO4ObvzWZLgjf3/rA9RZAgbHKwx14MDn4GUUAUEAVEAVFAFBAFRAFRQBTNE4VVAhGzd9UOnrmjioiZv/9I3OIP1xHppsOziaHaorweL0WNeZKedgQEe4CXWpOIFud58TMQgQOjVf/yYkRfgu0b4WiDoYYil/t1Obg+uAex0yTP31Yg302Ijf11iXrdTfZwdqDrCaKAKFDMbo4oZu2seWX6tkoibmFJMVvefeJb/y4nuIkLeuNqbLtkc7Jn2AJ/lef5kh//nFBJCJ+KMvjUkSAcCQOigCggCogCooAoIAqIAqKAKJrc9WTPrK0VUTM23yL4pUciieDMOUG42tpHDq6WBwjlyUESnyVnEbVXkjbUlCcJRG25UpQDb8WVKFCjgCggCogCooAoIAqIAqKAKJolivzdEtFzd92Kn7fzMDFo7KLt/VK1mwgSBCEbMjwAV1vrhOP8OmdmyrsQE1N7dCMyVT/rk8n9LI44t23wJKGcn06QIIjHnyYef1SuEojH5XwTReGgqA1RQBQQBWoUbOZz/NxthzP1B7sQ4mHthCur7XKsILyrcIXrLlEWG0I8Oh8zofps5Ami9tKw720N/adKK3wDoEYBUSAQBUQBUUAUEAUCUbR011PEnF0VEbN33SJS9QdXELFTjGOsgmiUJNjY/YOrwvvsWxUW+yTbi8K2E9vMYTu3GduS0J3bDCG7WwXrHIamcuPDmJLKcwlHiMeXFR9bSLhYW5bwPfG4XFFVJ4LmigJdTxAFRAFROBKFKIjwWTuuExmrjsYTURPnypty/NmQTKE8JZQVVu25ezH1LvHjheS7P5Ym32szzife+/GssrJV+DNXyYanNok/Dau5eypOIIQrKitKx7SoKFDMhiggCogCooAoIAqIAqKAKBqSxpA5e+4xOfQIikpyWwRsmeoLXG/hauIo4kFZyrm7F0cIhHB9dB1fplu47ojRDTDKwhf2pLlgZB3XHDHiaT4f7oJUx1xlpDRA8tN8luSCxKe5Yo/KAZ4SBWoUEAVEAVFAFBAFRAFRQBQQhbOup4g5e6qJqPxdN+Lyt75J9HxxSJi7x7fmDKciHl1SThI+Sy0mqj4dceN+eZpAQBTeLgosCghRQBQ+Lwp2fIbO27azKcNf719KKSOqyod/U6/h//LVJ0iHKLxSFKhRQBQQBUQBUUAUEAVE4esZOv+D74moBQfuQhRW7DYcStIfWkTE5BjTnc2TCA8P7HrwV+F9iH1rw5d9sDayhKj5PK2CeHRtdCVEga4niALxyiQsPnCbiFtcUgFRPC0Kd4e/pnOy7sK1UaFE9bXRH1d/ni4Qwo0MC0+JAaJAMRuiQCAKiAKigCggCoiiQ3Q9Lf1oHhG75MhuiMLCkNm7NrP9l10Of7UuV137WfJ0Jofa66/WCQKiQI3Ch0UhXgMLiIPrXhmF1haigCggCogCooAoOmqGLT+aR8Qu+XCLT4tC2s7UsrfE0DnbzfHztyYRjo6Z/X4HJAji0Wcjttdce1Ug6onCpSAgio4jCiwK+CQkCGLO630j0Np6cdjezXFLj67zaVGQJGa+L5G08L1xdkNhn4r9MtbsKYIEIdx4zUoGRIEaBUQhghYWooAoIAqIAqKAKCCKpori0NO0c1FEz9v3dfy8PRuJIH7sYGdzJvavGzyy9vOR+RLXMwQGRIGuJ3Q9RQq1pSLnLaCFhSg6lChi5++7qFqyfzIRMCBa5uyY7VsTPrP2i7S9RJ0cXnMsChSzUcz2NVGIgnhkBS0sRAFRQBQQBUQBUfhSerwUO8bWeFNj7zOisBA0anaJs+OTyfV8lg2FFT5PO2Fr4F2JAl1PqFH4mChqzkVeYfuTo2WFKCAKiAKigCggCoii44sidv6+CuLFUTO3Ojs+ryY910u4ksJJfJF2SviSJJABUWBRQCwKCFH4mCjsBeAjolAu3FdKhIyeZXZ2fF5LChzAZpmKDftV4cYYwQJqFKhRoEYBUUAUEAVEAVFAFBAF4ufXa2C0KmHxwXIiZuGhu74iivjFh94kBqTnZzs7PumJgUn3Lw+/StRcS7/rtijQ9YSuJ18b9XQpbm9tmWIBgZa1g6WnPCoucemB48TQxYe+9xVRsEURX8rId7po2WhlwJi7F0cIRPXnrwoQBUSBYnYDoijjNgifJWcRaFkhCogCooAoIAqIwpfiPyCuP2s0oxd/eLVDi0LaD3uvxJR3PulLJL1e0MvRcWGbEdVeS5tXt4x4hoAaBUSBGkUdj0vrJtkJZdx0NpQcLStEAVFAFBAFRAFR+FJ6B8cEjTQdm07ELztypSOLYkj+ByJ7JYavPh5AhGXP7t6AKCKI2i9GL6rbb+I1dD1BFFgU0A5RELX/PBNZRZx5/2X1wdXyAAItaweLLIyTTXv3j5OJ5JXHLnZkUUSIooiYs1fCT6/vZMORKK5n8oQoh5V1chgDUUAUqFHY8fBcZNXf/xT5AzEq3h+72UEUEAVEAVFAFBCFj4564p4dq9/Zn1AsPXjC6cQ7iAKigCjQ9WRHbWn0terSuGVEprKHHC1qRw3HdU4r2NyVSFiw9zBE0UKiQDEbxWxfKGZfjD0tXOaTiEyuJ2oTEAVEAVFAFBAFROHzkaflzUyYu3UfAVGg6wmiQI2iIVGwIbGiKI6wfeQzM+Vd0IpCFBAFRAFRQBQQha9n4Ohpk7kFOzYQ9QQAUUAUEAUWBbQTRdWZaIlvjgw5fKwgvCvBcX6d0Yr6QAaNmhXP9o+GKFCjgChQo2hIFHdPxUns0A8oQcsJUUAUEAVEAVFAFEhd/k9gf/+AAdEyoq7RPgRRoOsJokDXk1BbGinUnrdQXaYoJj4wh0xCy+nDgSggCogCxewnRWFbAPBq4ijiUHFIBFpLiAKigCggCogCokAcJ2HxgdtE3OKDFRAFahQQBWoU909HCHdPhkughUQgCogCooAoIArEddKMR3cTifoPT9c1/IchCnQ9QRQ+uihg1Zkh39z/U0Q5gRYSkaLZcqo3kbX+d3mRC8SGWeIQRAFRQBS+WqO4MGSzcCFKR6CFRCAKiAKigCggCsR1AsPTuhKho7SjUlYevUHELTlyD6KAKCAK3+l6qjkfKdUmiOIZvadnKP+lL4EWEqmX3iFxXEbRb88QCcs+ugNRoJgNUfhOMbv6XKStgD2a6zEGLSICUUAUEAVEAVEgzcuLr84tiV18WCAgCnQ9oUbhAzWKSzHXhcuckRib9FwIWkEEooAoIAqIAqJAmpfgMQuNihVHzxAQBUSBRQE77qKAD0uHVhE1F4aeFi5w44hM1c/6oBVEXCZ80pLBo1f/fjgBUaBGgRpFx61R3DurvE08OKPYLAh+nQi0gAhEAVFAFBAFRIE0P91lYd17yrkAIslwvIjg9ceORC86LBAQBbqe0PXkvaKoOlM3Z+Kfp+NHEWfffQWrwyJND3uySDEdL2IF7iiIAqJAMdtrRXH/9BDbUFj2FKHX40kCgSggCogCooAoEE+HuqGYNIYuOnjilVm7KgjUKFCjQI2i/Yui+lysbf/rf17kpwvlyUEEWjYEooAoIAqIAqJAWrfATaOhiGGz3lvBL9m/l4hedPiqxMKSm5HzqOGmBrwEXU8QBRYFbCNR1JRG11afs/D4csJN4r+ORl3ZoR9QQnxQFJxycLU8gEDLhngs3DT9sznrf9eDGLr0o3lE7KKS3ZFzdgsSJAuIAqJAjaJNRFF5Orqm4mRUNVH7RdpeYt+a8JlouRCIAqKAKCAKiAJpT6bgOsvl8i6E/4C4/oQ8RR2XtfZ4HqFcWrIkeu4+M5Gw+EA5MXTBvq8Hz9pV1Xh2OmemI3ZUDZ5hAaJohCisjX5VWVJ15YXEqsahcp9SvqryvKIZcI3nXEJV5dlhFuj/2c/Zz1wS13L8OVYk5gmim8RP5+O/J6ovxJfWlg0zE6tn/EI9Kv5fM4jM5IBIIia4G+oRSNuHNj9iu+Wl6g9Hx87Zk0QkLj1wnIhfsPfiK9O3VbY2KGY3XhTU8P94VlnpMf7MiSS0LqeHVf74p6EW6P/Zz9nPWpM/RotEtQj/OMt9TfxUmnBAuMwnEZlcT9QeEIgCooAoIAqIAkFaLeh6svD485Qy4fPEbGJcSoAMVwaCIAhEAVEgCIJAFI0QxbXhF4XPEicRmaqfYz8CBEGQFhNFB6lRPL6aWip8lpxFZKQ+3xtXBoIgCEQBUSAIgqDrCaJAEASBKCAKBEEQiAKiQBAE8WZRdJAaRfWVEcLdixaqrwzfK3yeuqBF+JRf5NVgYx8EQSAKiAKiQBAEXU9uiKLms+HC/csWaj4bcUb4nGRhT6pjrrrgCt+2fOoKxVPU2iGc4joTp/RcZ9wtCAJRYPVYLDMuUVvGCY+sCJfDuxIH9fIuuFsQBKKAKCAKiAJBEIgCooAoEARpbVF0pGXGIQqIAkEQiAKigCgQBEHXE0QBUSAIAlFAFBAFgiAQBUQBUSAIghoFRAFRIAgCUUAUEAWCIOh6QtcTRIEgCEQBUUAUEAWCQBQQBUQBUSAIghqFN4rC/nex9yKJg8kAokAQBKKAKCAKBEHQ9QRRCFfF17iWYeE/cgXh63wL3xmtmAThZqGF/1ouCP+52MIXkyx8PgaiQBAEoujQoiBBfPWGhR8OCcI/yi08fmilRrDl4Y+C8M//Z+G7dRb+Mt+ungFRIAgCUUAUEAWCIBCFj4jiq+kWbq4RhHuXLFT9t0UGxOPaOlhqqwXh0U8W7n9l4cfTgnDrTQvXX4coEARpR6JAMbt5ovgvvYW/7rd7erCTgrup/l4QKn5n4atpEAWCIBAFRAFRIAiCrqeOK4pr4jG8PsGCoxpEc3P7/bp6B0SBIAhEAVFAFAiCQBQdTRRf/rKuISdBSDxqOVHc+Y2lOE5AFAiCoEbhhaL4z4WC8N8bLHgiP31TN7yWzdxuUBYQBYIgEAVEAVEgCIKuJy8Txc1iQfjhoAVPpPqOIFTdtMDeB42wgigQBIEovEQUt96qG8rqidT8QxAe/o8F20KCyRAFgiAQBUQBUSAIghoFROGWKO5Zup8I9v7Q9YQgCEQBUUAUCIJ4JPvXxIYQ53Yr8qs/f1UgRGmg68mTovjOLAh/3WvBE6FVZR/8xQJ1ORG0haqbonh0Kf5uzYVh3xMkCELP+XXG3YIgPp7RyoAxdy+OEAiSBUThQVHQarFsjSdPpPJK3RNLEybc1VyIvVJ9NvIEgTsDQRCIAqKAKBAEcS8ZykDVT1fTyohHX7xaAVF4UBTXs8RjN9mCJ5bwoC6tbxZbaMoSHpcVO2vL+dkE7gwEQWwZkxQYW/PF6KNE7ZcZt1HM9uSigCPqPosnFgWUNi+yLjrYBFEIVxKLhauJowjcGQiCQBQQBUSBIIh7yeR6PiuUJwdJfJ52wtbAo+vJw1uhWleRvbWxbkhr7T/dlwITzf0vBeHmegvXJzV646KHF4dV/f1PkT8Qo+L9IQgEQSAKiAKiQBCkkeFkfs8cXC0PIP77D8rtj6+PvklAFB4WxZeTLXyzXBAqfm/hwX9YtjYlHv1kpcoiEIIm1D380cK9Sxb+dlgQvp5vgTZGclMUj8s5iepLCd/fPzv0YyKD7xmPOwJBEKfZtyZ8Zu0XaXsJ1Cg8LArG1ZF1dYXb79YNb6XJcxKiNB7esXD/Rt0y4uyJ5PrrdXKwx4Uo2AzsR5eVpcJnyVlERurzvXEXIAgCUUAUEAWCIE1PTHC3oMzkgEji0RejzhCPr4++ga4nD4risxSLLIgbU+oE8M3SOv5ruQXqXvrLHAs0OZKgf9cEUdReSSwmzu6M1JAgiMBAv664CxAEcTvsyYJkAVF4UhT2JNrh4M/ZrnX1UDZJFGwY7KHikAhc7QiCQBQQBUSBIEjLRxD8OhE153j+pyujTxOPvnj1DmoUrSUKK1fsaZ4oHpTyFffOKm8TWEYcQRCIAqKAKBAE8Wz0er9OxH5zaMie1eErie/+kHym9stXbxPoemrfonhczlv4lK94fEVZRvxpS/iBHYbgzQT2m0AQxCP5YG3EArYuVL3GHqJod6KwDX8tV5QJnydmE+NSAmS4ihEEgSggCogCQZA2FEXhoAHCBVWcxGepxRKfjzgKUbQPUVSVJgj3z8ZLCOVKHXF2R8QoEgSBeRIIgng8VLNgRW42vFJsNIshivYhChLE3VNxEsKniYHEwfXBPXDlIggCUUAUEAWCIO07NnlcTkoXG9EFBNuH+375SIjCA6L48YziAVFZqjiDGgSCIBAFRAFRIAji/V1SBC0HcXDdK6OI+5dSjxFV5cM/fnwtrZSouZpWUX11lEDUfpFuBaJwJIrqSzyj9mGZqoqo/VR1XRTGOWKbQb6b2GUaZNy3JoQjYkOf7YWrEUEQ73nKsPaRC+UpoWwZ68pLqaXsSaP683SJmmsQhSNRsFrD3/8UX8VmU1dfTlyJPa0RBIEoIAqIAkEQ30g2J3uGSOe6d2f7HbzKP8ePVgaMIR5dGaEjaj8bns/mZPz06fCr98tHPLAwUqpvVF0Z2SFFUXlBVUU8uKCqFKkgHpWpNgufqaYT1ZeGTCJObw3JepV7biSRqQyQj0v0DyRwhSEI4jtPHFeTQti35PtlKR/fvZh614K1GH65Y4rix7PKSit32RPDw8u8RihPDpLAon0IgkAUEAVEgSAI0hIiuZIiE66NCpX4NCleuMwnEfcvpZQ9yd/PJ//w47nkKqK1RPHwclLlP85yXxOVF1RXn3xPVZdTN9nevx04wwiCIBAFRIEgCOLJ0NITxIdrQnsd/FV4H4m1wfIP1oSEErsKXy56kh2msC3bjKF7CeFySsnTJDVAYpP57jdDd+80yN+WMIWuefI97V4dprG9fztwhhEEQdr6iUSwW5fKg9BEQxxtBEEQiAKiQBAEQRAEQRAEQRAEQRAEQRAEQRAEQRAEQRAEQRAEQRAEQRAEQRAEQbw8cnmXMC67OxGcPCkoRDk+lAhWvLaOkHNjNsn5MSVEt+eej8YBQxAE8bHIZLJnuGmrAwg+zxTJ64qSCIVaf41ImLLiJqdeIRA9XwgegyOGIAgCUUAUCIIgiJ8fp1vrTyi0ZrUip0AglFqjoMo1SyTmFUoodSaB/TlEgSAIAlFAFAiCIIglSXlrehGKPLOa16wUCJICRIEgCIJYniisdQluapGGycFeEBAFgiAIRAFRIAiCIBAFgiAIAlEgCIIgEAWCIAjSbkVBP1PqrEwx6RLVxYEEjiCCIAhEAVEgCIJAFBAFgiAIAlEgCIIgEAWCIEhHbKg5fWcL2c+w/SBobwiIAkEQBJGSqT/YheD0G59ljTYt+Q1RIAiCIBAFgiAIIkav70TIp218VqXT9yH4PNN0VV7h2wSnLrhBJOQU3G6LCW0QBYIgCEQBUSAIgrTnyDP1XYiX31jXn8815BFKnWmrcqrpBKHQGG5bWFkBUSAIgvhgUifquxEqdcFkVS5tCGRqV2spQRQIgiAQBUSBIAjiLaIgGbBtRiEKBEEQBKJAEARBIAqcYQRBEIjCThTW9y9+Fva5cIYRBEEgCogCQRAEonBHFCaB1xokIofnTAgPT+tK4AwjCIJAFNgzG0EQBKKAKBAEQSAKiAJBEASigCgQBEEgCogCQRAEooAoEARBIAqIAkEQJ+lEyOXyLrTdJREYGN71SaStMMW/I+Gd6Sw2QVYgCogCaSj27UBPufzZhmDtgnWb3E4+fdBctJ9PHCvvkwTbHzlNt9afrZXDdj2zR7pxxb9DeOMHpYlYmLkLUSCuU9cOrBLv+6KgBskrkrXFnurtKtbdImNy1vdw2n5qint781pkEAVEAVEgEIUvi6Jnz57Pvqwc258IVo5PCVaOHUfIudfeJsJHaTclTi3aQvAaYwmvNhyT0BqPPwkn/jxBXXCUYP8+WJG5IkQ1NoMITp4UFJQ6sRvR1p+bfeZBSVnxIcpxM4mhY+es4LP1RURbvz+O03cmQl99vZdcNT6OGMSPyx6kHJtPBCsz5cSgpPED2GeJSc7pIc/M7EK4+/vD0rO7s99lT6LaFEEocwwLnInCfomMwWm62U/+HnrfIUnj1BKJ4yex6yuYywwiZHIuoD2LIjAwsKtc9XofYoB0jzx9rJxB54d9VrrXvKVtY+85RDWOC1ZmLZBQZK6Tc2M2EbZ2IMd4XJlrOtEQvNZ0nNMYjhGvjMzZKleMeZMI4cfFEqHc2JDg5MwehJ+f93RZs/uM7jl2rulYhSjHjiRY+xeSlrMxQmfeTMSp69pPVa7xeB0mCV5jPaYi7N/LE8a8Gax4bR0xUJE1nL0WW4pG3lrd/IH9+/uLJzNWIs80XZlnMhMJU1Z8Q3BTVnwr/vc2wan1VeymY42HPeLfFRJ+udSC9d8r1AUnVdrCZQSfVxzZXp442GdW5Jon8zrjPiJBa/iYy1l5hmjr98ee4kbMXt9XpTNPIJQaw5uSrIlcUzzB6Uxx7LOMmv52YFrB5q6Eu79/+PyNAex31UNXlEQodCazsx3u7BfdU2hNK578PQp673mFbxPi3ylm1xefY4okqDFqz6LoERTULSnHHEJwGlO0w2PlBOn8WD9r797BPbylIWTvWaER7w+t8SjBqQuucVP0twh2THnNSsH++D8JfYHg1CskEtRiO6Je8RWh0pqzCPFa5tm3aG964mD3WeqMt3rbzrfWnC3KMZ+wbz/ZMUtQ6x+w41Z3T5nqjpV4LNmfs39Px0qh1l8jeI1pNnst9sTfauuWQRQQBUQBUUAUEIWtxpA8c3WK+CJ5hH0D7+xGa0nsX5O9j5DEsUmePKEBsjCZeEGqCfF1y548OfafWaEpsF3IbX0hsn5LPteQ5+4y2kptYT5r1NztY1ZqTLrWOv/2cNnL7xLi4/X2NheFtQ85Mrc4Qqk1jiTqN4QNi9IV9u/N/osUryniidCk10Pa8jqjkUm2ekKO4W1RBmVEa10T9a7fXNMx8RpeR7QXIdh/UVDqCtNZW2Lf0LfWPWN/Ttj1qVAbTrbUFxGIAqKAKCAKiAKicHAByOQBxMDYESEpc9aPIxKnrjIrdeYtFtwThf2fKXXGWvEmqnmCWmfFzoYuCl58D0T4qNz8Xi8O6kvQRetnnbPRYjdCv+AgpdY0TUJnKu94oqgrJoufEaJwUxQ/7yvvQzwfOzzspTfWZxHReYULpO4xEV4jHlMNHVNDi4mCl27sFRLK3MKVxJD0vGz6MkP4+QW22j4Z3WVh3YkXolJCeZ1hOqHQGE6IfEO4e03Ubx/o3jZKNEkUOnO5JAuRXi+EhEqI7YLd3CzPzsOwm+cQ8II8kugblTKc7itCpTWtEdkk4eY1YW03LWjr2s+m3HP1riXr9clrjNQltYjoFzMi1v/fXgok3O9jtPYxi98SjPHZy2oJakyadqFbDgrVKBJ+ubyyHlNW1KtbuP90YdnHWJRFOXu6GJ7/6/7s6afFnij6BMtZjUT8LNecvSdvFIV9QwhRuC8K+7oP60NvTAPX/G+HlntKesq1fku1yKJ1kqhdHUbw2sJ5zfn89WpU4jFmv6vZvQ/WJwuxDdPY6poeHuETxmV3Z9eVUmveSSg0xtNNad/qrj9jXY0me7mt/bT/ot7cXhrb04XWUMyeiCEKiAKigCggCoiiCaKw9rH2TZwwnM0JEH/BaQuG66xrwr4/ra5f21gjvsg9QvxQnyhzxQMkQhOtiMi0nAl0gxG9fhGS0Us2ML0e4s/Yn0eMnjZZkVekJsTH6pMELzbOTAr2N7LdzX1XpJxIfqN4dvKMNSqi5foYQ3uzERaq3KJSiMKS5Bx9DyJpSgHPznk9tKZSCZ3pK3e/SEjn2nreHf5Oe9QFbxKD+MxsT4rCviEbMjq3dFDiuBJCbAQuEiqd6WvWNaCy64ZVqAuqJDQrv7a9Z51pi63rQWfaYOVt1p2r0BrPKDSGG4Qr+dr9eYUo6zJiSJp2Gptf4Ilrql9obK+wlGwZITaAnxC8xnjV9vkdHT/qJmbdHLmmk+yzBoj3e4D1vncE+/OgmFS12OCvIBQ5K8/QPUa46roRf/4VQW0YpzFsIHrK5GGe6G7qz433J2InzF3G5nyI5/tbCZ35Tl3Xut31oSmQENvVb+uu68IVfF7RdMLR8en1iwG29pP97IXotKxYzduTCE5XvEG8hw4QjevasopaU1CekKM/TjgVRcTU4tlsqKerYoutVqBZWZUwZfkPhHgxbGHDu5oy/Iom0jH7K/PEC4qgRsOBKBx+aOkmtHy7aqnr4Ll+ob1Y4VA8machCkvY+U3M1oexc24PG4ZLsnBXFNK5tp33p3+nPew8B/PjeU+KwtG3+IZqVPY/sz0xq/UXbcdEa8qzFTOtXz6UGvMk9kScoDHsZcOrG9PHb7s/SDzW3+uRb8yiINiTRF2x3uD2N1ZeY9rCPqu7rykNv7cO6UzIKdhrGx7rZjFYfP0KVmDv1XegqqWPCa2vxO61BI3+uLMnonoDE6x/TzwuV23XBw2Htg4McP9C5jqH6zZ3JeK1a7Lqej8aXyynL/usLYcoIAqIAqKAKCCKxomCRgaw/jx6VHP6i8RHaXYDNHfCk7tpzPurP1HHMomMlqaAKFpeFO6KxNVaT/YNnUJranwxrYlpiihcN4SGFmuo66Ro3OluN4J4f/7AJlp5ZFAPP6bE3RqCJ8bpOz4+5p3uniupS8bakDb39dmEuRGz1k1ytwZh6V5q+hfpxsQ2YTXHsKIpNSR2H4byYwdDFBAFRAFRQBQQhWtR0FhfXmPcS4gX4k3nDeHK78VH6a+I5i7K5m66B8hkwaqxk4m4ifM/ER+vfyBcTijRmWYSgxRZwyGK9i4KazFNZzJzucYUoj2Kot7yEtbrkNcZbnBawzEiYpRW3VLFZLY4XMRo3RLxhr9BiK97z2lDqDHcJVkQ1CUh0dy5A927d2dzEsJHaz9mRViX959lTsWJ2HHzzZ5Y1NDu+JjFBq2KEF+31sVIyXO81niAqNu3oWkjodJ0oihEEqf/ahJNqpQmVroQRUS6rpi9b08vyscW/xucps2m7i2pi0tnuuu2VHVmDRGcZO3a7SkLTuHUBTcI8Rfdc/Ht6RyrYbRF4xfMZy0TL75PCFcflDXYtNIkRNG+RWGrUdit9dTeRcGuQ4XOYPbkMtji9RfC1rcSX/eGuzc667d2ZyXglnqir7dum7WvXc5levSLpH/fkJFsLTmShbs1Jja827LqbOPDji+NNnL3+glog2Xq/fu+3N9W19OZr7o9bNm6vhqt2gxRQBQQBUQBUUAUHUsUg5ImxCtyV00mXPXbio/hlUTshPlH2H4LTXn0hSg8LArLyDmJoKhUNY1yIdqLKOxrKCJHqI5CpM57myeixs8K9eRWnYH9w/157apYwjIC0L1JVjQChhjAT2pSNxjrGhk8fMpIhVp/nVDqjM7bB63pK6XGWEqwrUz9PLyi68/6yvtwueZJBK81XXR2fOovh1I4j6BuoI4sClpmhUYmEiqt8RN3rx+vFoX98Dx3h++KJj3JCttNaYAgCs+Kor3vcNdQsZ2tAECbN3n0jcrlXdiQcV5XeNTtG91atKUNv5pz/hInL5+UkL2smlBqDbUuRFHKhkW31nkkQbNzydM6T24eHzZzOlg5flpHFoV4pXe23Ys5hiMQBUQBUUAUEAVEAVHU+/jWiUm03IGLYV4P2MYf1J/ZaFHIBkbXTUJ0NSoMouhoomhPe2Y3Zngqq2vQtrFNeS02pFWU0yJ3jw+vM01v9ISxlqxhip+VfW63++K1xiN1+9xznTueKOyOD5+1gbX1EAVEAVFAFBAFRAFRUBLUhpOE+F6uuRBFdcKUFRVE/2Fp6X6N3K9CEoVWfJwWScw134IoIIo2u9GVWRvF9/EN4WlRcDkGDSF+/s3Oj4+xllaFJl4ZpVXTKCdPj3RqKFSYto3wcbPxTtIYTyRlFwwgaJOhDi4Kt0eNdhhRsH14aZlld5fpHTHnzXGNXYa8V7+QWPZaKp35NkQBUbRVBikn6NhaWJ4XhdtP7FVseGpTnthbMjSLmNWQ3J5tn0srAFuWjKeNqDqyKEJU47P43EIjAVFAFBAFRAFRQBQQBUWRW5ghYZkI5GLUinW9/GmrJ3OzN3QnIAqIwuu6nhLHa5S55o2Ep0XBlupR5Kx0es2rdKYbtOENQZPz2vL4dO8u68628nR39VSaxCieYzNBkxshio5WzLYWzfg803R3TxRtiGTb7QqigCi8TBR007Ib2ONPFNYBIKIoKjzxjdzj17/boij8hj2liU9EERAFRAFRQBQQBUQBUUAULS+Kni8MjGcjBRpatRaigChapetJNXYyW3fJ06JoRNfNGVYXoC6f9iIKdh/SPel0lVStQYjPXlZLNOb8QhQQBUQBUUAUEAVE4bOiEG8wLrdwDOHu6/xrv2BebCRKCdpWEaKAKNpMFDShzFp4bS+iiJu48BMabURQMbm9iILL0V8h+JyV30IUEEWjRMFrVt5UqPXXCLefKH4xcDjbNUz81lQJUUAUbXaj200oay+iCE0cX+LXDsN6AcR79ipEAVFAFBAFRAFRQBQQRUMN4ao+BK815TVmT2FuyopvCYgCooAoIAr7Cbnho3Uad5cggSi8RBRshyqlxqRzWxQ5BRVsFilEAVFAFBBFUxc1hCggCogCooAoIAqIAqLwjCjoomQXKEQBUXibKIL58bxKa1ZLuNn4tVdRsIZOOdV0wtU+6Oz6FEWxiC2vDlFAFBAFRAFRQBQQhU+MetIU9yYU7UsUV3iN4TgBUUAU3iaKEOX40ER1QRLh7j3l/aIwSSOfLJjmcVpzGAFRdJhRT+41hK0ritbfMxiigChaShTh4WldbefNy2sU7ooCNQqIAqKAKCAKiAKi8GVRKKcW9SUatYSHh0XBaww3FOqCcwRE4a4o6saxQxTOM0g1boL4fooJD4166mzZN5rr7K4owicvKfHT6ztJeKMotEYhYcryWiIoKmVST7n8WQKi8OW1njwuCmnm91UCooAoWvxGb8Vlxt0VReS0NV4tCszMhiggCogCooAoIAqIon2JAhPumiAKrbGam7L8DuH/gnwUROFdolDmFp7ic03xRGD//v7tRRRY6wmigCggCogCooAoIArXYReneKGucPdEKTUry8TPeYxw93V6vRCSlKDWXyWUOuNdiKLlRZGQvbyCgCjajyjY3ALqGnQuCvMZLrcohegpkwd4myjEz3dPvLdvENQWdmRRBCsnjBPbTCPhO6OerMMExQt1p6sPbff+i9luXG4/UWCHO0+Loibhl8sriV6ygekQRfsQBasbide04I17ZrsrCvGcf8V2DRS/FIZ2bFGMHceuC4gCooAoIAqIAqKAKKwXwgGC1xrPuSsKha5wpnhB9CfcfZ3nZAOjeY3xAJGoM9+CKFpYFDpjLafW1xAY9dSeRGFpE8R77LaLhraM15qziQBZmKy9iILdh7ym4HsX779cvO6nET37BQd1aFEosooVan0Z4TvF7JyVZwjxQr7htijyitScbq0/4e7rBLwgj1RqzTslcs3fQhQtLQrMzG6XonDz/iJRsIUE25Uopiz/gRDP2z1PPBF5oyjk3GvbuezldwmIAqKAKCAKiAKi8F1RBKVO7MYaenf7UO1vdNUvl09mDZjbXU/9QnvxmiKeEEVx2sUSHrbXgiggCm8WBRtGKXLY+RIYhtqE7GXVRK9fDMhoL6Jwd3hvgm7tYdbo+3G0fEkHFgU/poS1mxAFRAFRQBQQBUThu6IITXq9F5dXJCNsKz5qDS5EYaxNUOurifDh2RNohUyiqaJwdkHQAmMkC8K2uJhM9gxEAVF4mygUuasmE7yu8G2aS0E0NBhBoV5RQ7wYnZLdu3dwD6Itjs//7ikL6PXioL6Eq/00qBuZiJmwdJM8M7MLIf6KTh1ZFMF8Zgm7lju0KF5Wju3Pa02xhNszR2nmr7VfrinDL+uJQudcFPawmeNyLjMAooAovK5GYX1yV2jNavYt1NHku6buEOeR45M4NonPNeURLo+Pte4YrBw/rSmv5Y2iGJQ4roSdK4gCooAoIAqIAqLwXVHIFZk6PsewhXB72Q6d6TqXU2Aknus3sNENYI+goG7K3EI5Id4IH7t7oDlNwSYibNIiTVusrglRQBTNEYWfXN6F6BeZyvNa40lClVv4gyNRMBSalaUJ6oIDRKseGOv9FTZ+fnGCpqCccHV8knIK4olgZaYcouhoouAyi8T3Ses1lbk7JFY8eWfYbGz/f3spsLGvGRgY3tXW6GqNx9090Gy58Qht4TqIAqLwOlFY4983JEKZZ95CiKL4xvmimysruCn6W0RbiCJcW+h2sZZdn42pV0IUEAVEAVFAFBAFRNESolCoC35gS26nFWzuSlhHC3gsNAmGTYhRas0X3a0RsCF7g7Wi1FqooW7U8DJr/URsfNtkGWaVtnAZwWvNB9pUFL9cPtn2+x1coPbvTaUzbVBpzVkERNE+RCGTyZ5JVBcHEkqN6ZizhkapM9dh/XIWyo8d7MljQuszsbWaaN0mF/XKq2wNqOa+LkQBUUAUEAVEAVFAFE0VBa8x3CVZEKNm/WoSETNm1sjn+oWGEJbx05x1g/bmhY3H7huVEqfUGN4kxIbka2cnpF5hTV1wggibsHBJi4lCMcYsNhilhNui0JmuK7SmFUT/mJGRJIsWEQZNDhKRycK6B/QJlhO0dwY1ZgSfaz5AiDftubYQBZuvMmSEJkORs/IWIb7WA2fnjBelLjZGSwiI4ukEK7MW8FrDMaK1RCFe9V2CkzN7ELHjF2yk65lwdMwsI6AsiNd7MRE+WqfpERTam/DzC+zazEPQiV33rM3pHztinDJXFJiI+GXytoPrq1YURBURrSvcF567ahkBUXhQFE/eQNYhcTfYRZmco4+0zXxmjXNjGmi7f8OG2fEa0yJn30gdNc7SkFnt6jAiLCVb1mLf6PhxsewbbyNqJEJdHz19w7cM723S8bELe6IbPntDGHt6EI/RNXefeDwtChbr6rslhOvVdw032BpDzT0+HVEUcu613WxJ9tYThd31b7dDmqvGkV3z4jVVyu4Ziyya8fkzM7uw6559PvHLkIuZ48Yqtu7TS1PXjWqpawqigCggCogCooAoIIqWEIXdwbkncoNQ0ljrHMMRgj3iDX598YJBygk6ondyTlC9BkDkuaTXewXz43nilYmL8ti/Ex8lTxKiiK45GzXzxMX5jVJjLCO6y8K6E4GBzX7ctSUwTecvn/mrPgStMUW4WkKkXtdKrvhZrJ9L/IxG4pWJCxex4zOIe20A67JhywoM4LJlIaqxGRJ8Vt4g5dh8InGqeIOIJOUVfiL+7msEnT+23EJ7EQXVmJQa8yQJFzUmy/s33SHYdfDKhIXjWNcHdYP4tCgUWWZFzspSoi1E0aPH871Zlw+vMZ8mlDrzdefXvalCvN5LiSHpuUZqeKTG54l2oCHs24e4CQuNSTrzboK1OYm5jr98sPtToVl5UaEzTyB+PnRki22sBFG42cA4/RZBN5e1aCQ2pEfZ8LqXpq+PePJCeHHq+r5smWKl1rDVtpucmzOvn3j9Ml5rPEp45EjbvW+3dwBr4InHbhnn47bhh2p9nG3YHrsQtXVPDOLT1Rb27bwpr98WoqA6E3s6VOYWnnR3MAK7DkTMrJgqa8F1s7y3RmG5vttCFPaxLb2vc75QplUWlnpdrukEa4DcFYV9+6DI1p92d5lsdn8k5BiO2rYWkLfcFw2IAqKAKCAKiAKigCiaMTz2ATtRbPipQq2vaUpD2RQROK6RGG+ySYADZ6yLbq3JbazxUkwx6dytobTm8ak7PytqnK2k6WlR1OvjVo4P5XVFSYT9lwp3azwKzcrbdlt0SiIJ5rOW+Yoo2mJ4rFs1KOv9pxTvRXev2brh43VL89tT/x5wryGmL01MEM2dUAdRQBQQBUQBUUAUEIXn5lHQjaq/QSRMKThMKLSGj23FVK2xQqSGcPUY6mq9+AbkUM3GRNNoCmLoxAUHQpTjZhLPD5/cv7VEwQqsESNzhys0xk8I8f18K94sVFC+1zRROD8+9hekeAwqJXSmH2yFvTzzOereIeKmmA8Qw9SmM7zWUEWIv6+2LUUhC4uWkSwIdv7E90WDIOi8VtOYd6erk2oNFaIcbkuo9eUEbRgPUbSdKPz7vtw/YmrxbCJBVyjKwnRaQmt8ICHes47nXLB5RnV7uNjjShRs0Ib4+ytVeeavCbEtOsVpDMcI26CQFuxu8npRKLNK2PFttbWeWL8fn1ccyfrQuSn6MneH7zUF8WatSJiy4jbBhtzRkNW2PPg0sooNxVXkGLaKjdc1whOf3/5bOJshLx6TU6xRUOoK01k9gF3I0ZoNGeyYkWDbUhT2YedPfN1ibsryOwTJwt1jwZ5saR9giKLtRGFfuxsybXUYe2Jkaz7R+k/uNqSNwa5G9zU7JlxeEcfOq6c/Mna4gyggCogCooAoIIoWWT3Wul59t97BPWxLSPQdqKLNgQg6KET/6OH5tO8uITYEV3jNypsNodCs/EahMUgodeYtRGzeKvNLb7yZRQTGpKX79w0ZSbBlAf5PYKC/X9umC5uzQStt0jIaBHvPg6eu1YnHzSyhMZ6g9WYIl5/fuixBbF7xRva77On5i4HDCX9ZCMfGttPquLatKK1LHfSNTBvJpEJdVc4aQl5nmK6cWtSX8PRBY+eP1urxf0E+inghY8YY9vnY+edzjQds3VQaww3bsVKvPEfQ3IImdYPJZM8QfeJG9HV0fOuzXuJ/NXPCWLO/lATIZD1l8jDC1Xtm18TPfv7zPq32/sR7QHxvAQS7T+m8smVlwkdpDzi4/u/UzXmwI6fgnpU77O9S+6OcajpBsN9J7Rc7JrTJGDuvHv+w1vvr50Mz+7i+fiy09fXT7bnno9lxc/Ve2TGla655onC32EWTc6yzOcVv3CfY8tuOSFDry9ky4mynqvBpq5PaYpnulvqWJZ+2McBWwM0xbLQN+3Tx+dlCZ5HTVk92OHTQzdD5TVCv+IpQ6lyIgpYkty5P3pbHTJqZbz3/oiBWsCHBCnXBOXas2DBRGjLakq/rlHZ4fXnFe2V1PT5r2ZPXv/gF5ib7llsP61OmyC3bORfbHdvwWm86Fx3h+oEoIAqIAqKAKHD9tKkokLYJWxNn5Iy1Y5zVAJRaQy0bStvrFwMycOSQ1u04l3dh9U57WmsbA6QR3zghCogCokAgCgSi8LGkznirG5E8fc2EhCnL7xGO5rdAFEgbp3NQ6sRuT8IWxeS45u9tg0AUSAOxDf/UmTWs39fRqrIQBYIgEAVEAVEgCAJRIE/HthaVxqSzLYvgYI0XiAJBEIjCx0WhnGLSOdv4CaJAEASigCggCgRBIArk6bCJc9IkOudrGd1hmyjRciA4cgiCQBQQBUSBIAhEgfj5cXlGjlDmmla4EMU3CWrDZsL/FwMH48ghCAJR+EjY+lq0aq/Tc5prPs3WoqJVP3HkEASBKCAKiAJBEIgC8fNT5Kw8Q9AeDs63Xy08pdKZ4ojA/v39ceQQBIEofCT2O4w5f6IoPMl2xZM2PEIQBIEoIAqIAkEQiMJHE6Iam8H2L3dj/3GJYD6zBEcOQRCIAqKAKBAEgSh89vzJ5c8GyMJkRMRo3RJeazxAuBSFZmU5EazIKsZRRBAEouiIse5t++LU9X1VWrOaEM9PmSqX1nQyCa5EwfakDkkcm4SDiSAIRAFRQBQIgkAUvhC5XN4lPDytKxExtXg2EZO7aoMq11xmpaKhpTqsK8Xe4TUrbxK9XhzUl/jfPWWYZIcgCETRUUKCSJ2o70aw80DnxNXTg+0pQhSEQq2/RuBoIggCUUAUEAWCIBCFN4c1+Fy2vjunW+tPKKeaQ3mtKZZQ5pm3ELzWeCRBveIrgtcYKtkmRK6kwLqgxH9fIZ7bMqJX34EqHHkEQSAKiAKiQBAEovDWdPX/t0D/vi/3J1S/XD6Z4NX6bEVekZpQ5hbmq3ILlxG0tIaEzlSm0BTcJpRaY5UzUVj+zGjFXE6ock0nkqauWkP0eiEkFGcBQRCIoh0nRDl2pDLXlE9w6hUCQbOjWeNv2dfaveGtjifRFQjs97Lhr8nTVqekFWzuSvhxXGecBQRBIAqIAqJAEKRlQ90gvNY0j1DkrLyiUOtrCIii5ROsHJ/C60zTJbQGgaBuIvutSp3PgzAKvMYgIQrmHsFrVl5TaU2biDjNmpmxU341iWDzJKTNiEgQFkl0wllAEKTRea5faC9eU8QToiBOJmQvqyYgCg88USSOTWLf9F1JwfHwVoNtMb+EKct/IOicsZnZMbq3B4TrNnclcLQRBIEoIAqIAkGQ1k9Q6sRubKgm28yGyzFouJyVZwiF1nAUomh67CfMsWPaECqdeQKh0BQOT8oxhxDKqUV9VTp9HwJHE0EQiAKigCgQBGl/kcm4Z0gWRDCXGUQMVGapgvksIxHCZ80LUY6bSeBoNT72i/qxY9oQctX4OCKUHztYrnq9jwSXGdCfG+9P4GgiCNIa+f8Z1Kj6aTE5gAAAAABJRU5ErkJggg==;" vertex="1" parent="1">
          <mxGeometry x="381.37" y="550" width="47.63" height="55" as="geometry" />
        </mxCell>
        <mxCell id="JA8R-4U_Gd6iWjnFNRrc-29" value="" style="shape=image;verticalLabelPosition=bottom;labelBackgroundColor=#ffffff;verticalAlign=top;aspect=fixed;imageAspect=0;image=data:image/png,iVBORw0KGgoAAAANSUhEUgAAAusAAAKaCAYAAACHhxdZAACAAElEQVR42uydB5hkRbXH7/Tt7pldco4STIBkkCgiIAhIEJEkIIqIGEBEBRTFBUUFBAR8KiOu40xXVa+tgKQlCSPBZdFmuqpuwy4ssICSc87Mq9Mz4LI7s9sz0+HUrf/v++pj4T2wu8+pOqdOnRBFAAAAAAAAAAAAAAAAxvRUlo6mJR/IFZOPZqXdOS/t/nmhD8xJ+1Va9OdsobKD+/PmtDqn6Q9HvXq1aPqcTvx4AAAAeFMqxZEcWDNSdptOZfaKhf5yRpgf5KU+PSvNeTmpu2Nlft+hzF9y0pRpuX9+g1vXuX92qfv7Xvfnc/PSnJIT9pudBbO3+3e2nFwcWLX23wYAgAmfU9Vlc0WzVV7pQ50j/hN3xgh3Lt0USz3HOecvu3NocLzL/fvPujNsdizNLTll/pRR5ofuf+eAqKg3jUozJuHHBwAA0BoGBzsomjRk7MwvO6T5W1bYO7PKvjoRQ7dQI+j+284IziKn3hnEs2Nhj4wKZjNnePMQCABgxHOqYNbJC3swBQzywlwVS/tQs86oOs6wN9zZNeAc+d/FSh8eTUvWg5AAAAA0hlIppkhURukf56W9xjnNT7fL4C0YyTKvUYSeIvY5ob+WE5Ut8BwNQID0zO3KCvPJoXPKTHeO8VNczqnRl32g9uIo9GcjMXNJCBEAAED9TJ29BEXOczIpOqP3JH+j9x4H/nW3KpRSExUre0Sl6uIQKAApY3CwI6+SjTJCfzcvk6snmsLCIfBAr5SxMPvRxQMCBgAAsCDd5Rzlmg876F4bvvmd91iaGzNSn0z59Mh/B8BTCuVV3F4+LCdsIS/sI2k5oxZMmTHPuO95YSQrm0DoAAAAqOBqZSq0ck7tY2k1fvMXgXVIfYn789fJ+EMBAOBLV59ZOyPsCbG0/w7hfBoh2HB9JPSe0ZTBDLQBAACCi1JVN6aOBc0sDPXAcX+Lou45aY+G4w4AEwe9WFkro8zxsUz+FerZtMBZJeyd1EaS0n+gIQAAEIAhpKImclRhBBdw3G9xfz621i4SANAyJhWT99Heoz2YleZtnEkjL7rAUCEtNAYAAFIIOaA1J13ZN2D06nDclbmpFnGXdhloDwBNoGduV17aQ+h1Cw762FZemispRQhKBAAAaWDKYIYm72Vl8hyM3Ph6vLu/lmiaIZ6gAZg4tf7ntWFpyRM4YyYUVHiZhshh3gQAAPiMrGyCvM+GFnvdRcVukUpWgnIBMAZKMyZRJ5fhVDOcJ409l0xtxgQAAACP6O/P5qX+KVJemtcOskOav2aV2Q1dGgBYCGLgI7Gw51M7QpwdzT2TqOc8Xv8AAMAL42hWH8q3hgFr0bo/I833MIEQgP+RLVR2yAt7BXLRW5zL7n7zSJWXhwYCAABXpP008kDbFdlKnssqcxZ1tYAigiApleK80geE2hOdT8cY859c0WwFhQQAAGZkpDkJUSwez9E5qUVU1JtCK0EQ9JnFckofExfNfTgD2BSfvhRLvS+UEwAAONDfn42l+R0MFMsI1y2dyuyFPFKQUid9RepG4hzDJ7HfWQYO3q51iwEAANBGxMwls1JfC8PEPspVjaX+AqUJQGlBGpx0d+6cQ60Dsb99CBroXyNgAAAA7aBUXTYrze0wRl5FumbnhT0YHWSAl/TOWs7p7y+cHr+I/eyZwy7sBXDYAQCglfRUlkb/dI+ddmHvpJ7TiLQDTwIDi2ekPRHtF71Py/sDAgUAANAKpF3GHbxlGJ9URNptrQgMES/A1UlX5odOT5/Gfk2Nw/47nDcAANBk44mIeipz2gc6C2ZvGFHAgu7yZJodkFX2cezPFPZil/qnUHIAAGiKo16KaeAFjE2ao17Jv7JS7whlB23BXRapELrWpxv7Md1njdKHQ+EBAKDBUEU/jEww6THX5ZVeH1oPWgUN0YmF/if2XzjzILIq2QWaDwAADSIj9HdhYAI0ptKcRx04sANAs+iU9v0dyvwFey7I9Ltno2nJetgFAAAwQbJS7+oO1bdgXIJ12p/OKP2dqFTNYzeAhlEqL5UX5syssq9in4U9A4JqFLAhAABgvAizOoq8sIaWfaDW7hFFqGAiTBnMkB65S+Cj2FNYw0tiYwAAwHjo78/GMrkZhgRrviLUm3OisgU2CBgrWWV2okgq9hHWgkOT9JexQwAAYIzkpT4dRgRrlKfrt2r9kqVdBjsFLJI+s2JO2EJWmrexf7BGOVNeRv46AACMhWKyLfLUseowsE/lpP0qUmPAiNRaMVLKS/IE9gvWoqPrZiamKgMAQD10lyc743o3jAdW/T2TzU35PrMBNg94h7xKNnKO+gzsD6yxLOo8ht0DAACLIKvMr2A0sMbd6rFUXRy7KOzLfl6aU5wuvIZ9gTXmc0TZV5EOAwAAC0PZbZD+gjXBdX9nweyNzRQesbL7OPk/iD2ANdGXOqTWAQDASPT3Z7PKJDAWWI1YHcpcGsmBNbGxAkCY1Une0HusRq28tIdgYwEAwHzkhP0mjARWg1NjXsgp8w1EydIcTdeH0yRK6HsjHdXk4ViaW7JSX+v+vhRL3RML8xvq0EVdmDqUvdjtretiaf+dFfbOvLCPpC66XjT/jfrMYthhAADwDqXqss7gPpmSnMc3nCG7q0Oav+WVPoOmb1LHkrwyn6dn+qwwn6xFfKcl67l/vrn73jtT2gb9393fH+cM46/z0kyn/wbybhsmk34aK4+NliJ69Wq0T6Df4+6k9BLNLCAnnM4o53h/xjndG457mie1URWVj9FZ586tc92qeH9pEeY0bDQAABiGCgM9NnrP5mRSHHLI9frO2OUad4kpxeTYZ1WyS0aak+ipP41RrBZF2V/MKX0MTbDEjktBNF2ZZ6DXdev+227NyinzJ/f3X48KZjNKO2y2nLp6q2vQy1ZeJldTAbiHZ/srXX1mbew4AABQdl3fDnIqgnVO8xW1Qsbpczpb/ps5B95dDA5wn+PsWCa3oSh3LBNQzY1RofpBbDxvo+lXQo/rctAfpfSVvLT7cxgeRo57VupzaqlpPv2Wwhaw8QAAwTMUlfYnQpUTRnXKyodY/YilgRWc834ofba0pBM1OwXA/VbfRpTdo2i6tF9CNH2hOv2mu4jempH6ZEqvY1un4S4OGWl/5IvTTr8rBZSwAwEAwUJpI75EhZ1xMTmpt2T/o1LqjLLb5KX+6dBnhiOzkCj7LZ3T9IexE5lH04W9Avo6cvCA2gzmhP5apMrLeyVXeh30peZAGIWNCAAIOKpuSp6kvJza0Fz0Fl+IqFAqLpr74OCMKN+XqbAXHWMY6q40ByGaPnLgICPtiZRa4rWA3Z7LSPM9KsrnbgMiMfAR7EgAQHiGWNgNuUfV3ed7yjkLu6XiBydnVNltqNuMM/aPwemZX9b62snFgVWxMxkwdfYSw8WQ0M15Wgnmlfl5vs9skDZxu723I//2m0kRGxMAEGJUfRpzA/lgasdOUycIYXen9pKUkwln6B2HPXmCWthhd7bxXBCVLdyFcg708d0uLtfHynyuFd1b2hq8UclG1N+dc+56V7GyFnYoACAYap0BGD99OoftnknF5H2hyILSZKh7BBykYfkLe8G4+02D8TFlMJNR+vs+tvhrwqXxOXoBS22wYDTEwEecXXic8evbOdioAIBgcM7hmYwd9YeC7K1bquYpR5haG8Jhr0U1Z9X6UYPm06tXc7/3DRjeZZJaH/RSdfFgdaGoN3UO+/NcL1GRmLkkNiwAIASncHGuRWNkJGpT/EK/TPWZDZzTfqH7PV4N3GF/LaPM8Wjx2DxioT8bertRmiQaFSt7oMh5GKH3ZFvPRC1fAQAg7eSE/SbXin/kK48Q8VTmLO8GmTTeaf87/RZQiAbSXZ5M6UYh56NT68KoYD4OZVgQSoli2u71XlzeAQCpJyvsnRwPYWc4fwbpjEKpuqwznj+mAsyAWzw+SVFgKMPEqXWCYnoOtKJQkYrrI1nZBJqwEJxDnJf2GpYyFPpTEBAAIL0Uk215FhSamb72UW8pfWYx93sdS51yAo6Inkv5/VCG8eH22hdrE2SDy0e3b8TKTmU3/Zh3kGBlngWnaOMIAEizoZbmQo5DcaJC9YOQzhhwFxuamki9nwOdfHqr9wNpWk3P3C6O+78V6S40/K2zYNaBEoydvLAHM7QZr9BrI6QDAEhlVJaq6bkdvDQJEMIZb+RrxqTaBMIACwTpO1OveihBHUxLPuB+r4HQdCQvk6tz0m4OBZigwy7Nlfzka4+GZAAAqSOW5jCGUS+L9JcGIGYumRf2VK4t15paJCjMaVGpFEMJRtn3yu7DtftTM19esoXKDpB+Ay97zDpT0eUTggEApA6axMcwOrozJNNASgMr0OAQeiYOzGm/gfJroQDz0N+fzUvzy+E0kFBeW6roKNUcSJe4yTtSdl1IBgCQHvrMitzG2tPTKgTTJIRZPafMn0Jy1GhUOqKpQ0wuDqwaK3NTSClRTt+/QRcUSL9ZgYDyUu48eZpXCqU+GYIBAKSGnNJHcUtfQOu0FshdVLaIpZkRUlu+jDA/CHm4TVaZndz+ejSYDi9S/xrFhq0hL+1P2KVRAgBAagy4NNexioIKcxWk0iKc40odHZzT/p9gouzCXhFJu0xocqZibW4vaE101K7LK70+NngLUeXl3e/+Iic9QJcfAEB6Dlhl32CWa/gJCKbFdJcnDzlzYUxDjaWeE4wz1zO3y33n3kAuYw9SsTw2dNsCP+cy6yb2I0gFAOA9zrAdwa1TA6TSPqg/OQ0VCSGfnVqVdhbM3mmW56Ri8j73XcsBRNJfzCj9/Wj6nE7s4vbqm5PFa+gKAwAADaRD6kt4Oevo1sACZT/hjO6sAPLY36oVoqUxj11UPhZCfnpemuldxcpa2LRcAkD6j6zqnwrlVSAVAIC/lKp5Tr233cE6O+TiP3ZMn9OZUfrHIbR67JDmIrcfFk+Nw6TMVzhFOJt0XjzqHPWDsFF5kZN6S2YBoC9BKgAAb8lKvSOmlYJFUptwqa8NIJVitvcFabX+6fr0tA+7cn/ti3pnLYfNydW2GMtHZ5IiJAIA8Ja80mdwSkegfEdIhbG+SLt/VtnHU54W81RWJbt4KSDnvDon6e9pLwzOCvNJ7EbeZIQ9gdHl7mlMMQYA+Bz9MJxarUEifjiEzmHqSXMBKnVHyij9Ha8uUsJuGBfNfSmWyasZaaaggNQTCuVVOHUZi5TdBkIBAPh5mDJyuJwD+AUIxaOLXqGyQyzNvSlPjemjtofcZREL/dmUt9wso2e6f9AUarRwBACACUXi9IGMouovRH1mMUjFM5zMYmF+k+YoO014jUoDK3AVQUaa71EKWUpz01+nAmfKw8dm89DGKH0An45B9hpIBADgHbHU/8cqggm8hUbYOxnen2KH/d5oWrIeqx/dObCxsBekuIjURkW9KXaX35d5Lp2kagEhXPoAAN45WIyq9WNh9oNEPKe7PNnp1HlpjbJTi9NI2N1Z/Nal6uJ5aS5PaYHvm9TNBrnp6SAvzFVs9EtUtoBEAAD+IO0yXJ7O6ak76qksDaGk5BKokl1o5HtaC09zQn+tnb/v5OLAqm7P3J7OFwx7T1QwH8cuSg85aY9mk7cu9HchEQCAPwi9JyMHqB8CSRml8lKcphg2PP9VmZ+3ZXhXUW/qHNqH0tg3PavMr6LSjEnYPOmiq8+szWbwmTKXQiIAAG/IC/sLNtEOZY6HRNJJpzJ7pbYvu7B/bqlz6S7Yaez44s6iR7ztaw/qIiuTO7hMvIU0AAAeHZ7mOj5RSrRkSzV9ZsW8NNNTmbYhzMxIJSs1+yeMhT2SU8/qhs5WKJRXwSZJeXCI0fC9SJjVIREAAH8GBzuy0j7J5PC8HwIJgCmDGXpBcc7Za6lz2IvmvqZ1inG/G6WHpHHAUU7a49qSSgRaHxwqVHZgVBfxGUgEAMAeTjmEsTQXQiLh4By0zZ3Dflf6nE/zDLWvbOiPVZoxqUPqS1IYTb8rKpjNsBsCwukyl4t6XtqfQCAAAPZQm0RGUY4vQSJBGu7zUuiEvpaX5qCG/EY9laVjmdycyomwperi2AQB2h2Z3MbDWTfTIQ0AAHs4FZdGyq4LiYRqvPW+WWmfSltXE5ooOqEfplBeJau0TtfvkjyXl/YQaH24ZKU+h0kK1uOQBgCAv7Muk6uZODZPI2c1cOTAmrHQ/0xdhxNpfjYe3e4smHXSNgmWesJ3Svt+KHvgl3NGL7pRqboyJAIAYB7RNP/BcyRgQ39/liZWpnDyaW/UXc7V+zPkislH3W/wWOrSXrrLk6HkgIZ5Maox2QkSAQDwRcxckotTlJH6ZAgEvENnwexNhZppclY7pLmsHmeVnAdKFUlPNN2+EivzFWg1eG+gyM5loaNKHwNpAADYkpN6Sz7RDQxCAfM57LLyobTla8fS3BKVqsuO9p2pKDVNLS3dpePuqFDdGNoMFrQ/RjLZk7+DNAAAfCMbwnyRSyEejaSHRMAClGZMiqX+Y7rytm11pGEsOWmPdv+3t1LzkqDsxdjXYDQywp7AxFm/EdIAALCFzyQ5+wCkARZ6sZTmMOfIvpSeCLt9KK+Sjd51XKQ9MUVDjt7IS3MKDXGC5oJRKVb2YHJ5fhLCAACwpUOZS1FcCryhUN2Y0ipSFGF/KlJ6u5zU3enpfJM8HEm7PZQVLIquYmUtPh1hBlaARAAALHGOzx1MqvHPgjRAXYiZS3ZI87c09WJPUT7+rdQXHkoK6mJwsCOr7PM89FdvCYEAAHgelEzSCmKlD4dAwFh0l9JG0pTfnYIlqb4AygnGAptJpkofAGkAAPhRqq7MxtAXzVYQCBgzQu/pHPZn4Si3NZXnTbo4QRnB+Jx1HsXj0GEAAE+U3QadYIDv0JRPp0Oz4Ti3pS3jc3RhghaC8ZIR+rssXneFvQDSAACwIy/swUyM/oOQBpgQvbOWcw77dXCgW+ioC3sn9cGH8oEJIezuPAqj7TUQBgCAX0RDmR/yiM7payENMGH6+7NZZX4FR7ol3Zsup0JfKB2YMMquy2Z4FwAAcCNW5vdMOkj8AdIADdNrYb5I4+3hVDcnZS0v7C/QPx00jO7yZCa1Fy9DGAAAdlB0jEdhj5kCaYBGQm3YaOgQHOyGOjOvUOoctAs0mqyyj7PotS7tMpAGAIDXASnN7UwmOX4J0gCNZnJxYFWnX2U42g0a3oRBRyDltigSAx+BNAAArOASecwK80lIAzSFUnXxDmkug8M9ocv0PdRxB8oEmkWHshfDFgEAwPxMGcxklX2DwwGJjhKguQ57Kc5Kcx4c73HVk8zAGHbQbNz+PJfJYKRDIQ0AAB9UshKfHuuYegiaT07ar3K5oHqyStiboEV78zgW9VPCngBpAAD4UKhuzMJZV/ZxCAO0jNrEU/MCHPFFtWbUP40GBzugMKAVxMp8jkkb4XMgDQAAG7LS7swksn47pAFaiqxsEhfNf+GUj7gfX0PBN2g5Sm/HZA/0QhgAADbklT6ARwQvuRrSAC2nUF4FnWIWeOV6PqvMblAO0HpnncdgJCpGhzAAAGyg/F0eTkJShDRAWyhVF88LewUcdVr2AbStA22jz6zIpKD6FggDAMCGjNLf53E46l9DGqB9DnspzkndHXREXdg7JxWT90EZQNvo789Ss4H2p4Eld0AYAAA25JU+g0UajLCnQhqgrQwOduSlOSXM1ozJbZEqLw8lAO0mq8wzDNIyH4YkAABsiJX5PQuHQZhvQxqAAzlhv5mV9q1wOr6Yy6Pu8mRIHrCwSdLcy2BS7yuQBACAj2MiTYlJjuBhkAZg4zAIs19W2VfTH1HXPZR6AIkDPs56chuHvYHZAgAANlAXFhYHo9B7QhqAE9lCZYestM+mNqKu9BnooQ742SQznYVNQloYAIBPFMPcyOJgLCbbQhqAHYXqxrG0D6Wsh/rbNCkSwgUcyUktWNgkObAmpAEAYOKs23/ziKyjXRzgSVexspZzcGenxFF/Pa/0oZAqYGuTmNRRRdOS9SANAAALqEUVh4Oxq8+sDWkAtqjy8lxyaScSUY+KlT0gTMDbJpnzWOyZYvJRSAMAwCOKIe1cFlGMQnkVSANwdta5XGwnXFCKPHXAGC7thCNpt4c0AABcohiP8qi8ry4LaQCWiJlLOh0tpyhn/TwIFbB11pnMOsgqsxukAQBg4qwnz7Fw1vvMYpAGYEdpxiQuRdiNXBlpfwThAo443TyRxSuUMp+DNAAATJx18xqPyHophjQAK7rLubw0V6a4z/q3IGTADaeXxzIZFnYQpAEAYOKst39SI3WogCQAK6YMZnIyKaZ5IBIVnMbKfAXCBqycdaWP4uGs20MgDQAAlygGB6fhBUgCsGFwsCMndXfap5cOj1V/M6/0ARA64AJNs8ZUbQAAeIdSKebhMCRPQBiAC3lhzgzBUZ/nsvxaVuhPQfKAxf6Tdn8WzrrQX4Y0AADtp7uc4xHBsA9BGIADGWlOCslRnyfC/lIkKh+DBoB2E0u9Lw9n3R4JaQAA2k/P3C446wAM4XTx6yE66vM47M9GherG0ATQVmddmP1Y7AmhvwZpAADaT59ZjEchT/IwhAHa6iBI+xnK3w7ZWR/qLW0f75SVD0EjQLvgkgaTE/abkAYAoP1Mnb0Ek5zZRyEM0C6yhcoOzkl9NXRHfZ4akrvdRX5FaAZoi7Ou9AE89oI9GtIAALQfJpF156w/BmGAtjgGwm6YVeYZOOkL7EkTlcpLQUNA6/ekPpDJPvg6pAEAaD/T53SiGwwIla4+szalYME5H9Vhv4HOCGgKaKmzrsznUWAKAADv0N+fZVLY9hSEAVqKKi/vnNHZcMoXuabRgCgoDGiZsy7swWjdCAAA80BTDNtf1GaegSRAy+guT46lmQFHvO7hML+F0oCWOevSHsLDWTdfhDQAAEyc9fZ3wMjK5DlIArTIUc/lhbkKTvjYFvWfh/KAljjrSh/KokuZ+xyQBgCAi7P+CoPc2BcgCdB0Bgc7clILON/j2qNvx9IcASUCzcbp2WE8nHXzeUgDAMDEWTcvMshZfwWSAM0mL80v4XhPqAf7G1Gxsgc0CTSTnNJHMYmsHwBpAAC4OOtPczgYo1IphjRA0xwAab8Kh7shF+uXcsJsDY0CzSKj9Hc46HqnMntBGgAAFsRF818WzvrU2UtAGqApFCt7UFQYznbjppxGheoHoVigOc66+SGTi+nOkAYAgAU0rZCFs66SlSAN0GhyxeSjHFK9UuewC3tnVKouCw0DjSYvzGksbFIx2RbSAADwcNaV1iyeHKV9P6QBGgkNPXKO+qNwrpvU2k6ZmzA0CTQ+gKTP4eGs600hDQAAC2JpbmVRzCPshpAGaBil6rIYetSCJeyfMTQJNNQmCXsBiwBSwawDaQAAmEQxzPU80mDsNpAGaAg9c7timdzsZfGmhw57XurToXSgUTid6mNhk+TAmpAGAIAFeWku55EDaz4JaYAJQ73UhS14OCX0XnIOuOzHsS97NJQPNIIOaf7Ko0PZwAqQBgCARxRD2D8zeXLcG9IAE758CnOmf466fejdmo3SjElZaW7w8FXgzUjoPaGBoAEBpOksnPU+sxikAQBgQazM7zEtDqTj4qm/5qGT+1S+z2zwni8ydfYSsUxu83DK6YtRwWwGTQQTsknS3MhiABgAADCKYjCZ6mi/CmmA8ZJVyS6+9VJ3zu0LuaLZasQvRAWyyiTevRIUzX+jXr0aNBKMey9LYxlcop+EJAAAbOAygCIjzA8gDTAulF3XObbPeOaov5aVeteFfq8+s6KPHW2cozOAFAIw/gBS8jCLGhIAAOACFYbxmIpozoI0wJjpnbVcLPUc3/K7Y2H2q+frTSom73P/zv3edYgR9oqoVIqhoGCsZJV9lcFlugJJAAD4RDGUPpRHkZ3ugTTAmOgu53wrxnSf9+1YmiPG8jU7ZeVDPg53cmfLGVBSMCZK1cWZdGf6B4QBAOCD0HtyOBw7pLkMwgBjgUtx9JjSvZT+zvgu1clGzmF/2ruWjkofBU0F9dLVW12DhT1S5lJIAwDAB6W3YxLJmAFhgHqhGgcPHfUfT+Q754TZulaU6tdLwuuYoQDqpqg3ZaK7fRAGAIAN1DaOiVG/C9IA9RBLvW9W2rc8c1rPbcR3p6JUKk71rT1l5zT9YWguWKR+u4sdi+CRsOdDGgAAPqhkJSYGHa2yQF2RN+rn7VlUvS+aMphp2GVF2X18a1NZ666BiZBgUcEjpQ9g8Qom7Y8gDQAAH/r7sxyilPQZGunQgBTSq1ejaZ/edUVxe6zRP0WszFe8a+mobD8VBUORwWiwGWzmPgekAQBgBUW1WYx37p21HKQBRqRnblcsk3/5FU1O/tXMfuN5aU7xbmiSNL+DMoPRyEhzEgs9VeZzkAYAgJezLuydHA7IzoJZB9IAI0fcbMEvp9TeQ0ONmv27OOf3Qu86xEjzdWg0GFGfhT2fReBI2u0hDQAArwNSmhtZPJMXKjtAGmCBaJsyx/tVUJk80bKLZ6kUdyh7sXcdYqTeEZoN5qdDmotYOOvKrgtpAAC4HZB/ZTJE5VBIA8xLVuhP0cRPjzqfvBwVk21b+iOVZkyKhf6nZx1inoymJR+AhoP3BI6EmYmUTAAAGOmAlOa3TPpQfx/SAO9A7f6yyjzjkQP6pnOaP9uWH8s5F1lpZnv2AnFHJGYuCU0H7+D04kEO+xjNDgAA7MgLeyqPPF/9a0gD1CiVl/LN+Wx3LnantO93v9mjPv1mlPYQDQ52QOEBOciUIsUgTetRCAMAwC+aofRRPEY824shDUBGOy/N5V61aJTmZ0wu3htmpX3Ws9/uFCg9iErVlZnUVNwOYQAA+CH0nmxa3YHgyQtzplcRdWEUp+hwVpmdfJpy6j7r2zQMB5ofeNBI2s2ZXB4vhzQAAPwo6k15HJLJwxBG4I66tId41tnkhmj6nE5+Fx57MDnBPhXmkrOGHRAuncrsxSJoJOwFkAYAgB99ZkUmBvstTDgMmILZbMhp82Uip9acCyQzwvzAs970c9GFI1y4pGNmpJkCaQAA+DFU2MPi2byrt7oGBBIgzkkjZ80f59I+MLk4sCr3nzUW5jd+vVToa6l3PDZEeLBpdCDskZAGAIBnVEOa+5kMo9gG0ggM55zlpb3Gn4i6fT6vko28+W2FvcKrglNhf4FNER6xNH9gYYOKlT0gDQAA0wgcj6EqKDQLMKKmzM996qVOBdle/cBTZy+Rlcb4VHAaK/M57IywcHK/noWzLiubQBoAAJa4Q6rEIl9QmB9AGgFdEpXdx6dCyIzQ3/Xxd6b0srywj/j0ehGJgY9ghwR0FjBJg4tKAytAGgAAnlENZc7iUWRm/gBphEFtQqlHPcFjqXv8vpDbzd3v/ZJHEfa7aDgWdkoAdJdz9GrF4OXsJQgDAMDZkB/NxFn/B6QRAKXq4s4wVv1x1JObObZoHCuxMPtR1yWPJpxehtHvAVCofpDHBTG5A8IAAPCFy2CkovkvhJFyBgc7csL+2RtHvWjuS9PTeEbaH/lUcEqfF5sm3WSl3pXJQKQrIQ0AAFvyfWYDLsVlUZ9ZDBJJLxlhT/AnFSN5jvZG6i5L0vR5VNT7Fjp0pBsn568zedn9LaQBAOCLc5AZtW7bEAJJaQRNmZ2yyr7hTeeXtDqJpWreyaHfo/z1pylVAjsopcEiYc5k8opzIqQBAODtSMnkCSaFfPtCGimkV6/mHMTHPRp8dHSq5aHKy8fS3OvVxNjSjEnYSOmjQ5q/8ggU6QMhDQAAa2Jp/80iuqHM8ZBGyujvz8bK3ORPQWkgXYmUXTerzDP+XKC0wGZKY6DIVFjoV9FsBWkAAHhHN5T5CxOD3A1ppAsuz9x1plxcR5eLYBwlleziS2rS0Dh4/WXsqLQ56zxauEal6sqQBgCAt0Ml9elMnKXrIY300Fkwe/sy+Mh9ztmRtMuEJqOc0F/zqOD05ahQ3Rg7KyWo8vJM9v4LVHwNgQAAWBNLcwTaN4JG0tVn1qbiQD9yos0znbLyoVBl5eR0nkcDquZgYFJKKJiPM3HWKxAGAIA/0m7PxRhHPZWlIRDP6S7n3AVwBtoDekKpFOdlcrVXA5MQCfWenNJHMdGpEqQBAPAgwlFehY2zruw2EIjfxFL/nzeDd5T+MSRGDnt1WZ86xGSE/i6E5jdZac5l0QlGmZ9DGgAAPw5OZZ9n0o3jCEjDX/JKH4CR9r5e2qsbOwfqRT9Sl+wblEYBoXl8Vkh7DQubo/ThkAYAwJMohx1gkpZwNqThJ5T3TZM/PZlQejdSrhaEZh34UhScF/YRehWE1HzVNfMfFq+5uPQBAHwhJ+yfeRhgcxWk4SE9c7u4XPjq6f6QV3p9CG1k3G9zhkftNm+gnHtIzTPEzCW5XArRthEA4I+BFuY0Jgb4QUjDyyjZHzxx7t7OS7s/JLYQPCs4zQt7KoTmWXBI6i3RthEAAMbubB3GxZmiqAsk4tFFT5qD/HHszJmQWB1Iuwy1SfSlo09WmZ0gNI/sjTBfZGJvboc0AAD+RDpEZQs2Bhijn72hU9r3c5lCWIdh/ntIE0onjLLr+lODYB5FOoNHF3wuqVbCFiANAIA/lKqLc8khxFhxT3COry/91HPSPhCVBlaA0MZGLO1nPJpCi/x1T6BOTCxagEpzEqQBAPAKd3jdz2Si5FmQBqJjDUyTeMU565tDYuOUs9Q/9af/uvkBJObFJfAeHm0b7T6QBgDAM6NsprPIK5b2GkiDN1mpd6VcYS9G1AvzRUhsAkwZzHCJhNbVf11UPgahMWbq7CW4nB2dBbMOBAIA8MsBU+YsJgb3cUiDMSpZiXKEPXHUf1PXd6Ke69Iu09Vn1qY8fBoQVIvGS7u9cyx27lRmL+oi49Yh7p9/df6VkeZ7GWlPfM9S+vt5qU+ff9EsgZzU3fWsWJrfjfTfcP97U97533H/+8e98zkohWz4c+7vHJG96bNHxWRb+i6d0/SHa9/Nfc8xF3GXyks5mc/yJML+IE1kxUZlirtMMbEzr6KGBQDgHWTouRjcSJjVIRGGTBnMcJk8WEcO8+uxslPdn3s7lPmL+/vrKMc+q7R2f72XLoW+TOxs4m/0mltPx9I+VPtNpDHun5fdX68flnPJLUkXBy4vb3VNp1XmUrTk40lO2G8ySbdMIA0AgIcRU7sNH2dd7wmB8GMokhuuc4vl0RLm29ixDINCfGYyTIM0AAD+USovxaZQTOqTIRBmEbGi2Yqi1XAEsXx5NaCWtNi53Jx1+28mnWCmQBoAAD8dMmke5PGMbS+GNJgwdfYSeZVsRGkScAKxfFqks6S7pMPYyAzo788OdWfi0AnGfA4CAQB4SV6ay3kYWTsX0mgB0+d01ooOld6OihIpzSUrzXnDucrlvEwehtOHlY5Iu31lOC//Ovf3fVSoS0W5VISbV3p9mjWBA6HJ9kXYDdmkWhaqH4REAACeHqbmNCZP2G/XulaAidEzt4smUUbC7k6FXdTxp0Oai2jMtluPwYnDwpqnbaywj1CaBhUku7PwTPfPvk5tSqmTDl1scaBMNBhE3ZRY2JcXqVgeEgEA+HqY7s8nEqZ3hEQWAXW8oM450m5P/cTz0pxCUcNYJjdThw9fpk9iYXkQmafe4A/G0tyYU+ZPGaV/HEv9hVpf90J5FRxG9dgX80smLV1nQhoAAG+hCBKjEfHHQSLDSLsM9cp+J1WFHPLhFnsvwJHCwuLRt7uWIy/N5fOm2MCR/x/uvPo7D2fdXgBpAAD8ZcpghlHv6b6gfvvu8uSoYDbLC3swdSqg/taxTP6VVeYZOENYWF5H5Z90jvyt1PM/o8wP80ofQIO3QkutycrkCR5tPe03YewBAF4zbFQYGLjkjlT+wKXq4tRSrpa2ovQZFIkbKnzjMYIbCwurZU78m+6cu7tD6kvyyvzcnQeH1ibn0sU9ZXT1VtfgU1xqPg5LDwDw21kX9gIuOaLU+93nSHlO6i2dI34E5WrmhbmKutwgjxwLC2tRBfZx0dznzo0rqdC1Nl2aesZ77MTHwuzHpnlBT2VpWHoAgNfklPkGnzzQZBcvokbFylqdBbN3RtofUdtDZxDuQqQcCwur8ZF4M5vOGDpr6Myhs8eHM5JeEZn8jvfDygMA/HfWhdmazyRT+yOW0XJhj4yl/r9YmZucAX0WjgQWFlYbnfhnax2ghPkNFbbSGR71mcU4HZ3uknEDBu4BAECj6JnbxWWsPOVzt9Exz9GwlFiaw2hQkPvrLbUR5nAOsLCwfOgbL5OHh7rTmFM6ldkrKlWXbctZWmtckDzHIwBkToKRBwCkgqzSmksXhVovcTjmWFhYWI134HtnLdf083Vash6j+R27wsIDAFKBc1b/wKZyf1rygUZHeWqOudBfdt/zQueUm6yyb8CQY2FhhVjMSjU2OalFTuljKM0vKlXzDbYnh7GxJ31mRVh4AEAqoDHbfCJB9pAJfRkxc0kaTkKRJIooUbQeRhoLCwtrVAf+dWqd6xz3bnK0KbgxkRdOqu9hMmjvAVh3AEB6nHVR2YKL4YiFPb/uD14qxZGsbDJ82egdihjB+GJhYWFN0IF/tEOZS2moU1bqHcdSwBoLM5NFcanUl8C6AwDSw/Q5nVxytmOZ3Dbq5+zvz9IQEff/d+xQy0T7FAwrFhYWVksGOtWi73lp949KAyuMHECp5rPKvsqiuNRdNGDcAQCpwh3GA1yeZKPSjEm1D0XRHKW3y0h7ovvn17nP+DIMJxYWFhaHwIq51/21j9pHvpM6kysmH+Uzt8PsBssOAEgVsTK/52MItKAIOwpBsbCwsPzpPMMl6IPiUgBAOp11aY6AwcHCwsLCSkPUH1YdAJA66BkThzwWFhYWVgqWhFUHAKSPwcGOrDRP45DHwsLCwvJ8fQtGHQCQzui6tNfgkMfCwsLC8noVzVaw6ACAdDrrwp6Kgx4LCwsLy9s2k8q+Su2IYdEBAOlE2N1x2GNhYWFheVxceiuMOQAgvfRUls5K+xYOfCwsLCwsPwc4mXNhzAEAqcYddLNw4GNhYWFhednvXZnPw5IDANJLn1kxVuYmHPhYWFhYWD6ujNQnR6XqyjDoAIDU0NVbXaM2LlqayzExFAsLCwvL/1SYWjpn2dm1UyJl14WlBwB4R6e073cH2bGxNLdkpXkbhzsWFhYWVoqLTu91tu68SOntaKYIvAAAAE8KZrO8sL/IyuRuHN5YWFhYWIGu+7PSnp0TZms47gAABg56deO8ND+LpZ6DAxoLa/Qnc5re6/765FAErnahLccyuc398+vywlzl/r7kjLvKSd09/3L769d5qU9fcJlTMtKeWOf60Uj/jZpTMcL/Zk7YAn0mdwG/gj4jvZLRZ3af/Q76DnmZPDz8nV6GjLGwRlv2gawyZ9WGKMFxBwC0Cme8N3RG/qfOUN+Fgxgrpa3Znq5Fx5RJYqH/6RzTq2vOtHNiyfBmlP6xc6y/7ZzWI/LS7u8c1p3JGDvDvDmlgHX1mbUjaZehVqXBHAw9c7tq37lQXoV+g2hash79Hlmpd+wsmL3d73RITumj6OJAF3xKGXCXkD/S71q7DAgzky4CNedm6PeHLmKlL+JOjrvUW8JxBwA0nmnJB8hByQp7Jw5cLI8i2k/SpZIc7g5pLnPOYU/N2XYOIznasbSfqeWYOscy6tWrRVNnL4HNzohSdXFy/vNKr+8uAtvHyu7jZPnljDLHU8qdk+GFTq4XZZXtd3K2cdH8F5F+LD9y3O1curTWdBsAAMZvKAdWyEl7tDOIM3C4YrE1esL8puZ4O0fuXce7z6wYlUoxNnGgdJcnR8KsnlfJRhTZdw7RGdgrWGyDCkpruoBOKibvw+YFACyanrldncrsNfw0/ToOUizWw0mkuRybFiySwcGOvLTXYM9gca9tGa4NOZaCZdi4AID/MWUwk1VmJ3dA9DkH/QUcmli+pLhQigQ2MKgLObBmVibPYe9g+RFtt692SPNXCp5F/f1ZbGAAQkWY1Ydyd+09OByxvIuqC30gNjEYC5Quhb2D5WFg4ikqbo+KelPsYgBCoGdu11D3CnMdhhVh+bo6lL0YmxmMB9Id7CEsfx335A4KsiFNBoAUkhOVLahzAp6BsUZKJ4llcnOszO9rHX+UfZV3RN0+Eqny8tjVYFwUyquQzjN3yJ7ISHOS+3PvUC9+nNtYC6bJ5IT9M7WNpVRWbGwAfEXMXDIn7Vez0tyOww1reIjNdUNDb8yxdMjX+mHPQ16YM/m3PNP7YnODiZCX5iD+XY7ske/50NTDXunt6EwfHoh1+fCIe7yQBt8G0vyHdKKrt7oGdjcAvkTRi2arWNmp7hB/EQdZcMN8XnPL1CZPSvsTckpqeY6lGZMWHXGsbpxV9g3W31GZP2GHg8a8Nto/846cmmeiUnXluoIyQy+nh1HveUrzcWfAbPZ7GasZ5//rtRRBYXdHtB0AjkydvYRzZL4x7Kjh4AokUk6TNamHNE2HpMmyUXc5Ny79cQc7TZBk/p0fDGoiKGguvbOWo5Qq1jrvLhTj/n49c7togiwNkXKO/6+cbbiee/oPVmOnpWaU+WFt5gQAoM0Uqh+k5y+M5053tGRoDDtFy80ptVZe9UTcxhZl/Cbz3+Bt53Dshg0PGorQe3Lf/50Fs3dDv/O76TTmWGrX61bZOfGv4KxN72vr0NwUuzM2PACtZMpghhw2GvKBfMXUHayPvRstF/bgfJ/ZYNzR8rovfLWCu2eZ52T+FhsfNINY6j/yPhfsA+5yvnhTf4RSNU/pcpRK4y7FZw13C0MAKH2rHCt9eF1pkQCAcR+oy9JI4rho7sOhkwrH/Oms1Nfmlfk5FU22qziIoi68HXV7T9OdFRBwdJ0K8c39zPPXf9W+l1tzEDnwzpH/R1bZ53F2p6MDGDUTQEEqAA2EOnY4x+48FIx67Zi/QGOkSY61QjCl16cR6O3WLUot4T5+O1L2EzgFQJP3wU6cXylpH+SE2ZrDbzW5OLDq0MuuPn3oTLMv4Yz31ml/i7oKRaLyMZwCAIwXabfvkPqS2kGNg8WnA/ClYcf8XOeUH+qczXVZVuZ3lyfH0s5l/luejYMAtIJY2POZX/grLMfOu8+UV8lGVMhK6WqxTP5FdTawBZ61fxT6n7Ew+0WlUozTAIBFO1C5vDKfd07Uv3GAeLMezMmk6P76rVwx+ShLgzoC3HuqU/s56miBQwG08PJ6D+c9QWmQXvyWlBMt7fY02Ckv7BXIf/fIaac0W2G+TR3mcCgAMIKhqDl70j6AA4N3ZxZqcUg5pHmlD4iEWd1HdaNIGOc+zLX0l4L5OA4G0EqyUu/IPB3mpfkHmXnB4GAHpf7RQKehqax6DuwJ9wmp5pm8ND9D60cAiKHipmOpZzYOCJbG8VnqjEAtE2utr9JQRU891aWZge4vACzI8IRfzvMVrk7FD62Sld6T+67sq7A5HJ32mlz6OmXlQzgdQHgUyqtQGgKq6/nm76X1cKLhWcyfYf8blcpL4ZAAbcHpHo1v5+2w20PS97vPmOS+1/6wP2yd9jdywhZq7YQBSDtdxcpasbAXIIrAPaKePJHKQhsPeqo3fAgMAGOF+bAkZz8epwmsafvZqUgV9od9KujbHdJclhOVLXBQgPQhB9astV+Ek+7NSmPONPee6m5Nw2EBmOwVyTtVTP8xbb+5cwL/BtvjleN+Xa5otsJpAeCkY7XvqVmYM9Okih70VH+K8lhxaAAW9M5azp3dj3KOcKZqhHxpxiTMEvE0bZRqDgqVHXBoAO+giv1Y2anoN+t11GB2ahTSg57qsTBfxMkBOEHTO5mn692dmvam0n4adsfzAJe010TFZFucHMCDaIxejboJwElPx+osmHVS4XQofQb7Qx4AhnQocynvvWN+lobfOZbmd7A5aXmVtldEherGOD0AQyd91nLu0PxlVtqXsVnTs7wZQrIwR73PbMD58khP31R4jUMEcGRycWBV6jnNeP+8Fk1L1vP6Rx4c7ODegQdr7LMycsIotHwEPOgzi2WkPZHzYY41kVy85GbfVdQZ8xtY/840LQ8A3lHfI5jnDN9IDq+vv29O2s1hb1Lc8lGaPgRkQHvoLudySh/jHKHHsCFTHR14MyoNrOBtVF3aQ5jnqc9MZYtMkC6cI1zrfIHe600hI80U2JvU29KXa00beipL40ABrYmyCP1ZKuzBBmzGsg/Q0xkKHxuAmLkk58m49HyfF3ZDnCjAB7r6zNqcu5W4vfSIr8PE3OcvM3pNvc05lme7P98Pe9wUp/1JCnRSwBOnCmjaU10szT+w4Rq+7qf2lpHS29WecqcMZji9WHRIc5GP+ppV5lfMi5BOxakCPHMqj+X9UmXP9+03rdUESPM2m9+RHMlh8kqvn5fmFPf5ZsFON76TEU2sxakCGhdR6a2uQWN2WR0oadioyvw8KpjNRjGKvYwiwC/41h6NItbDuYI85S/sndH0OZ04XYBXTBnMxNLcyjptb5Qzle0FSOmjWHUAk/b9I56pKtmo5rgrk8CGN7Te4h+5YvJRHC5g/HSXJ+el/ik6vDTMQb/D3aR/Qofeon76WJj9WE0zlfbT3ugtdVZQ5ibOw1wiZT+BAwZ4SaG6MeeLMKVx0KXCo8DCFZxsVD2fmVr6ZqQ5yZ1lt8O2N8YmxFL3YCgeGDPO2fkcctYacmu+l/oAU/vAMQlAzFyScpoZPS9f4I3uSv0F5nrRixMG+Ay16WW9x5Q+ypeAGKdgGM2jGOtXoNaEGaV/jFSZhrwMPZuT9jjks4NFo+y6WamvxcaZWKET5aDnhNl6Iu3EOMkhlvYhL1qjlcpL0e/P+DB+KuozK+KgAV7TZxbjHMyp7TMPuli5c/UzrF5QC+bjE/pCRb3p8EXuQfgCE9LfalaZnXDQgAWZOnsJaivEKZrrVy9V80ws9R/dJtu5Ua34qNCH1/fUW3JXY+5FpTlpv4rDBqQCofdk/qp5IX9nXf+R1QWnvz/bkC9GaUjSbk9TWWvdT+AjjHeVJhWT9+GwAUMHhtCfjYvmv9gYYz7cXqHNFCu7TzOKBalVGrOx3r/k/yrEd1IpFeb5lEsLwKKgTlGsJ0hyLtzrLufIQWYUjBHN+p5U80T/ffd9X4LvMPYGD7XUGMzjCJhCeZUOZf6CDTHmRT1xj41UefkWRIoTRqkwczmnwuSFuYp1l4qi3hSHDkibDRnKs2V7QZ7B9cxyZ/tuzIIxBzX9S5dmTKJ2hTRgC93lxvp6r7UPr9ugkUwZzNBzfFYmz2ET1HuQJQ/XeqEXqhu31AFV5uesfgtR2YKjSncqsxfv6Ig+BwcPSCPse69LcxjH3819rj/wcQTtG5G0y7Ty+1NL6Iy0J8ZFcx98jDG8FkndTWnLOHnSjqxsEsvkX1D8utNcpkXC7t62J6hisi2v4llzJjudLlXz7iJ1F2Nn4T84XEFqcWcjpwmcIwVaqLsWq9+svz+blckTnHp9tzN4mFXJLu5zSLSJrn/SOdWM4PBJI93lHE1M5JzTy6hPL11mvt7qSMNohjCr7ONsfpuiuY/bs3JGmu/xnqpo9sMBBNIdXbebU6oX3w5dvIIM1IiA0++TEfq7PC5+5aXo1d+dmTPhi9TZBpiDnwIaA/X4xvCC+opFI1H5GDf5UVcDVr8Xp6KtPrMi55zZvEyuxgkEQqDWrpZvkd5rNMiHz+VGd/swtbStTEvWy0t9upPd0/BRFt4qutbkAnhMf3+WcsLQjnGhE9vupt8o6p21HFs51irpGR0O4xic0bSLjLJTGV8AX3YG5wM4iEAQTJ29BKV8Ma4buZZH9LgUO5v8GKfCRe56NVRjZwfgsyy8zWNUqi6LgwjR9DS1QqJUoFJt6IAPg36mz+nkVAxMU1l5RKdqT+9vcdWzjDI/xEkEQiKWel/OZ39nwezd/hcIvSOzLjCn+KJfuaLZanieCVpAjpym+l+nX7viJPIB53zSMJ3htA4o8HyFfhmpT6Z2Y76JNSeMYlbgsnn7HYPkZsYXwlnN6L0PAHc6pLmMrw3Qc6ggva3nljC/4TW1tLUdzhpCT2Vp99m/lRX2Tvg2C9iet906N+qZ24XTiCulgRXcLflyKOwCynt7rX0XDWfwNWIlzH68ojH6dPweC51oi1HRIEioJd/QIBe2L17Ht+3HmTKYoe40rGZn+I7S25Hfg77tC6T43uHlRSz1CLu7U9ZHoaT/G0JDA5+o9WEq5NtnFuPU1sod8ve071JazVOEjLH+SRxIIGSoDoixE/NcpJKV2vLDSLs9Mzt5dlp0Li/shlTDlFX2VfhA8zTOUPoYL9J9U08tn9mch1vlu8r5LB1AXcXKWmkTdYfUl/B6PjWbteN3yAnzbc6joScXB1bFwQSCZmj2wWzGKZEXtuNn4dYxh6LSqdM9dxGrtalm1PKYQV3Cla2YuA5GYVIxeZ87dG6FMg71/651dempLJ1WeVMqD6+uMObnbYhMLeMuY0+yfWIX9gScTAA4x3Ro0A3fSZCtbkE7ZTBDBYCMAguPtm3YX4sCmWQzs8ok8JGGh/MxbE2dfoTe0x04TyGSbgdqQ2fcQZh6mdccVT5DrWrFWi2PTNmzGUfV72p38RoAnOhQ9mLGzsuNLf0xmE2jro2tDwFKASlW9oiF/if8Jec/CPNtpMW0AncTpohm6GkvtPGo/3hoSpeX9ppgU2GmJR/gPDOgpo8AgHehdETOI+Tdebp/6wINzFJghN09uNceqXd0cvh76E57hzQX0bRYnFDNojat0dwQ+M3wumyhskOoKpBT+qhQC5SoYJjx4XcZDigAFoTa5fKNrtu5UWnGpKb/CP39WU4NIKi2K+RXwJwwW4feQYZexqkoFydUoymYzdwP/GCofUOdo3YpDUQIXg9UshJ1uuETmUoebkneYzHZluvBSt0HMKm0RfTOWo56/MfKfC4n7Dcz0kyJhT2fOvDQoLPasDN3oR9+gSoNr76sMr/KSPsj9+ev02CcmpGaOnsJ/KAtoGduF3WPCnl4GQ2qYfa9+6CYDlnZhIJAnIfrNbshQiz0Z6EIDcLdAA8KcWLX8AaallfJRtCCeQ9+Xs94WaE/1dQvPDjYwbmQ2u3Pn0ErG0x3OUfRr5wy33DO+AVO/jMoGtiENn5P0GslpSi4C8BXamdNCPUvLaZTmb04OyxRqbpyUyO5zjlmNcnVyQNaOQ/TkvVql3pGgbBWBkMp6IE89gk6KTQKOMSnGoqOtas1IHec83IkM3n1NvuyyrrCvlRdHFo5Qfr7s9SDOi/Mac5pvqmdec7Uhzsvk6udATspKupNYcQatI+FvYKvzWlisWV3eXJW2ecZDWx7BtOVR0HZdYdf54LzuSgtKBIzl4QSjJWps5cIcRqp2yTXU0QNCrAQemctx6krTC0y5QxSU74rtd8qmvsYH3AHQSHHSZ9ZjH6/2jO0cyDYyljYR2jYSq2A2OMpyG2nUP0g14E1FFHNK71+EMEGZf4EZVzUS4jdPC/MVQH6XyaSA2tCA+o+1MqruB/t9rC6u5iZeJobS5SK10HiHJqDm/E9aTQ436h6cjOirmOE6huE3nMoeuVfah+1y60N1EG/4vGeW6cxvpRd0SRnnVXQLcQuMBOItG/jLpj9QUXYhX2ELisQ/qI2trvdux/qgYDy0qu19llwesZELO2X2E1IazRDA5Ce4hqJiwrVjaGJ9b4G6dVoqiClDaXn7ErucGf1cWkexNb4y9qMSdSBha1MVbJLY79vdVlO7WbdZ3kasyDGjjvvd3a/XzmgCPuL1Jsekh9NIQqVHTg/Bzd22Qdq0VgUc40P5yBwelJ2n+UNai3a2AOSV1/i+dpe/RpKWM8rYXVjygd2xu6VNHdUoO/YOU1/GAKvI9BAnXwYD9lrpE2i7kPMzq0/QgPHCdUQCn0g57TMRtt0KrqH4BeIqJvPc83na7RhoxZqLeltm3Kotzcz+X6rUd+tU1Y+xCkvf/4OIhT1hwYuxEkRlS1Cy/kc7iTRizae9VzE9bWMi8YPa9wLqLmFlwNmdoP2TTRQNrcro/T3ORUNN/fVXP8UQn/XsOmvpb3P53B1damrt7oGJN6gC560hzDL4b6tcRcRfQnjV6GvQvtG0ck+swHNRAh52AhdMofy2s3q0IiFXMaZBqfiovlvQwrm5cCanPaB8zGeRIF0Axlq9HBeCO0e3Xn2u+CzIDLSnph6QStzEwoWmsDU2UtwG+XdkFQAabdn7IjdjtStERjKzT2Pnk5DH+U9j3P0Ul7q09Hac7Touj2b7aAkYX4wcdtuTmLmcF0IrWsCsrJJIJPle1syAJFnZNT8LNVOetHcFwuzH3Zz8+iQ5iJeT2b2JxP6QrUBSMm/2DpghcoO0Lp5cBcXGlwUTq3N+Opz0OlqBKjuRiZPML1oPUuR04ldRqgAOcXFs+A90CTQWOo5aT7LyN8Iq0CZHJKhEdlpjSi9UpuI1TO3C1u4yRc+pQ9gFr25dyKdfehyx/ig+hs0bh6mJR8IJKLUuKEjvXo1KM7/cBeZo/m2sDNnTiTayuxF8LHa4DHQ7BfGPL2ocHvxbvC+uKppc1X4OermNynObfoHje7Frm1VdGpuVzPGsE+oj28x2XZ8B10pzgp7J9c8ZHT7+N8ZRi0L09zhpZl5w9QNBUo0jHMgqX0v16DTeOsO3MXsl7zmmNjzoWyto6vPrE3tjFM9YT7twdisMr9KqfAebdZgHLCIaLTUf2R2YfvtuL6H0ocz1u/zoGkOlayUZiPUwtWHXPZhipU9+A7rsxeMJ+hARaqsvkvRbAVFaz00QyaW9qGUvhRemdqUmDTmqA9Xu/dNNL8PTOACKMwn2eV7jvWZzG16rv1rKR8b+l0LNOyUVfZxONoNOztn4RXyHduYXM2113Rnwawzpi8j7O68gif2HgwdbCN9ZjEqNE9j1xjn006Pps/pTJujfkoKjU0FN3YGTBnMcIvk5JU+dCxfgXq08+0Mob8buopRu0qufe99nztBdSfBO+vCbsjWmRFGjWmvCPtnZuPjT4WRZHGGbu4uTv9O4TlWSk09REbp76Stj3BG6pNRsMLJ2JkzmUWk+scSeaA0KqY1GPemLnIwFtx3d7+DhGPd3NfJWhelwKOfNAWWae76WzSJt84XwmW59Y9HrQ0jSqU4I+wJaav3iZWd6v35lZfmoDQNPMoqk0QFsxl2HTNqY915OSA0+KS+y6z5Id+c1YBbjzrHgwrG4VC3MEIVcgetPrMit2L593TyqS96ejSvYEPyLxhHhoiBj3BuURzcpFPqycx1Stt4cvdqAz5CjjJy1zdpLK9UGPPzRX7oWq9l8zTTqPqMUKOdk4rJ+5xcZsOBbvkl9wYadhbqGUZj3LnKJlL2E3Wcwbcz+9zHwjIypb8/S0Mxnc68lpozTOlj/IuoUw5eSgaF1ApUlN4Ou4u5oWM2DdftgUcWNd6aLoBcUxPG3YLSc7qKlbVoz8N5btt5++9gC5qp0Jyp7sUyuXmhZ1mf2YBZ+s6b7vdcGZbRA19R2oGUtKZ9M5Z6X6+iUnmZPJyCH/4td+E4KyrNmIQt5Us0lFfKVWfB7D3qBy6UV6GR7GkoKksLlN/Kru1cmBH2SqTKy4fpvOgD2UbXhd199Ki6PofZNOlrYBX9uaRSt0DKYEiB3/hyTlS24P+j98ztSkMuErVoc476bthFfsFtouTCpn5yHQ5WG4YiB9YMLqLeW13Dff/74SxzOYO1jqRdJsRzjKLYTC9RhrpvLfCBa8OdeBXJx9IcBovoFzmpt4ylnet//nryMPtpze7HFimI6vwdz2eeGjmhv8yt1oEi6AtEcKV9P9dcvVptRmi4g5U638BJZlc3cWuIw5OoJfDwDA+G49b1gQucu8ruwyzg8FLItQ9eo8rL54W9IgVn1wy2NY4ZZY73Pd+I+sFTeyHsGE8RM5fkllpCRWMLXmpNH9cXpahUXio8nTEGzjHTKJUwV4XYJpdry9CsTO6eXx4d0lzGK43PFmAMPWZwsIOKg1NQfNrL7rfNCv0pnydUUZ5qPdXuwAMj5w5qdsZtnq4qeaXXZ7tXlPlGUMrSXc5lpb4WTjH7KNWFwR1kcmBNrt3UYmGP/F8kNFmJ28Awd77uDEuYjhcm/9Ni7NFsftDJxYFVfR7DXRsZWxpYAVsjHWSF+STntmcdUl/C0yHScxbVvSZtOCfwD3CG/Vg0XC+4s0yZXzG9PP3nnZ74NOGYmXP0wIh59cBPeipLd0hzkcdp1a/R9Nb2/5BuU7gPc53HP+R52Njpe0JjmH/cNxT1r2zBNhdVmoOCitoo8w04wX6lKdILblBnmSovn5XJc0wjhsfVLhTc5lvQNFyQvvO6lhbj54DNWvtvMXPJtv6AGalP9rTby6uoFk8veWFP5dbOaXgA0t/Zdt4I6NKaE2brtAxsC8xhf5L64Id0lnG1se4S8QSlm3D7XJ0Fsw4sYEoRdneuU37rqKP4cxtv/Xo7H/tiulvOQ370wQTjZbjbCrcIdonv5TWgNqWl6rL0jA/n1+MuCyEVnJaqi9OANa6XJ58GN4EUBOL6zAa+du5yvueX2nKA+Jj4Tz3gKcceKp9+3EWyH85NXa9M/YE9p06D3H3vY2xOCUpnhf0m5F7XRe4IWL4A6J21HLeZKnXa2udbPsMklvrXHm5miWmk4RAL80UYsEXWbLxNKSHB6IS0X4LcU3HBfCMSlY8Fc5h1l3OU9wrZL/QsexG91QOC9gTTwYKLnKw7T3e45qLsNr4l+tcKSVv2AwEW9JnF6CYLQ7bQCasXBaMPhfIqWWWegdzT4pwld4cUfMkr83nI3bOe1qAVL6XHcm3aMHrrU/3l5v8y0+d0ZoW906fIYUbaE6HSgUbXlZ0KIzZ6d41IDHwkFF3g2jITa0LpMD8L5jAbHOxw9ux2yH3UupudYPECtfPSHOZT/SQVyUbCrN7s2/3PfXoqbU9CP+ATTTUfhyEb5XbvLjLBRCWl3R8yT2Xqw+t5lWwUih5npd4Vch9x3Y8WzMEH5vZxTvAr3rxqK3txEx2f6gd9aXdGQussmL2hwoFTi0Yld8OYLbg/JhWT9wWhA6UZk8iYQ+6pLSq8JaQUR3dBuR5yD7vgGIyyNwqVHfjOJRgpoJzs0qRnZHOZN08M0m4P1QVERtgTYNAW2CNnhxNVN6dA5il32IXZLxR9zkm9pW85uk0+y97q6q2uAUsHhoLKZjO3Px7zRHerDW9Dy3H4wShf/iVKfYDGgndRyUr0XA7DNs9ltnfWckHIvlevRmcC5J726LqdS/VUoRxpHdL8FXJ/N6o+HUYOzAsNxnI2/1EvdFjpYxr3zbvLuaxM7vDACXmZnkGgqmAB46bMX2DYhlZG2h+FIvdYmt9B5qEse3RQzoiHAwmbc1HT+8LCgQUo6k196P7l/NanGhY8i5X5igeFRq9Fxcoe0FAw4suQ0J+CYavtk8eC6UUsB9akcwFyDyXCmjwcdZcnB3MRVeb3OM/MoxRMhIUDI5Ermq18aN+cF/YXDYmqx0VzH/uuL0J/FqoJRmXKYMbXEcWIPo47qn4h5B2cfh8XzJk2lOL1StgXNH06jBtYKMp+gnsqpLt0vhCVBlaYqME7gntxibuVHAyNBIsiI8wPAndkHggmr7dWpxC2IxNkSkTR/DcqVfPBvBhKc17I05c7ZeVDsGxgkftE6E9x72SYV/qMiUXVmUcjM8ocD1UEdVGqrhx0oanSR4UiahqWA+c10Gir0oeGdaaFWUDtzvIbYNRA/TbB7s+5i5L7bC9GfWbFcUbV7ZcwXhikiQ5pLgq2W0YoEcfu8mTnwDwJxzXYbkcDQUUNpT07zEuZ+TwsGhiTw858qOe4JzK7f7nMeBDGjJBadYEGGTZldgtzWqn5Sigy9iDIgNX0pbcM5lBT5eUp5zWwC9mTUc/cLlg0MCYGBztywv6Zr14nT4xdr5XejnGU8KHJxYFVoXlgzNQKTe1cRNVT7KwL/U84q4Hnrivz+7AihvqMoJx1ZX4FYwbGRam6eFZpzXjA2xfHGFVPimzzemRlE2gcGC/UZzwsx0UfHoxwxcBH4KxiDXVXqC4eVHTdgxZ1DaxLWB+WDIyboba+jzENrv277u9BUWuuhXghPeeD5sBZv5swMGROw8cZs44w8s5JxEKhadN0P5CiaucD3AQrBiZKVupd2RacCrN1fZFHYU/g+AU6lLkUKgYaQSgTTZ2z/oWQ5EqXEziqWDV7Ic1lQR1qPZWlfZjY2IAivINgwUCD7MX/Ma3J/F2dNw47wDLxvlRdGeoFGnSr3jH9qQDJ3SFF1XPF5KNwUrHeM9W6VF02qOi6sKemO1fdPo7GEqBxF9y5Xc7frTIsoH5qkXVmnQWzDtOk+/2gWaChDrsySaojUIENC8sLcxqcVKyQ90BUKi/lLilPp1ee5jRYLtBQCmYzjmmxkbSfXujnzij9Y4ZP+X+ERoGGR2KlPTq1EShh74xKpTis1xJzOxxUrNBncWSkPjml7RrfpMJAWC7Q8D3D0O/NCVtYhMHj9SQwnP6yLNQJNBwxc8m0dlAILq9zaDrt23BOsRZIm5gymAnuXEvhUDDUrIGm0V3OUYCL2dn1/OipML16NXR/ASERS/PbFEagqqE5KNT5A84p1ojPyUW9aXjRdXNS+s41vSssFmgWWWE+yTAVZvuRHRelD2dWIFQJLioCWuvkCbth+qLqdv/gLl3CXgDHFGvEpfQxwR1stcEv9vFUtaCFLwCaTIc0f/OiRiMnjOIVEansAfUBLYiu35iiDhgmRKPmvreFY4o1ypoW4rnGtQXzeFZGmu/BUoGmB+/6zAZZad/ic0lNblvwUzoDz+km7hyoGVAd0Jrouj4wRYNgDggvikgdMPgcsFjsehb/J8iDbersJagFXArS+l6OemctB0sFWkFOasGqqHqBmk1l1+W0QTsLZm+oDWgJ3eVcLO1D/jsl9p7QOsDUkHZ7OKVYC32l7TMrBhldl2ZKClJg0A0OtDi6zqdZQSTs7u/9gNIcxOgp/y7kp4GWblBpf+K9URP6y2FGQtLbghOrUZ0VzE5BHmzSLpOVyXN+y09vCQsFWklW6mvZpIAp88P3OitKn8Gnv6T5NtQFtJRevRrHwQhjWA8ucuJZap113Q2HFAs2ZbRAhD7d4xSmW2GcQKuJpf0Mm5al0vx1vpuEuY5Jb8k3qGcy1AW03OljVmA9xvWtcA/W9BQIYzXr1cleEOzB1mdWzEr7EuZFAFAn/f3ZvLCPsDi7iua++Z31x5hsziuhKaAtznrRbOVpB5jHou7y5GDlJs2DcEixFtHO9JqQzzZ3RpznYQ3OQ1RPBMsEQt4zlD9PTRTeuXkvxigCciTUBLQxSnurh23NTgpWYDR5Tto34ZBiLbIOKmSEWT2r7KtenWvz5+oC0EpnndGQpLxKNhr6VEw6wdRuEL16NagJaBecCq3rbO307P9u3eHRKe374Yxi1ZFe+Wo0ONgRdCBCmd97dK69EpUGVoBFAm2jVM1zKc6OhN5zONyvd+WxQZO7oSGgrfT3Z31Kq3CXi58FLa9isi2cUaw6R3cvE/JWoYst1YR5kQKj7FQYI9D24J0wV/GYwmy+MXTjFvZIHhX7tgD1AO0mI8wP/Ik+hV2M3anMXnBEsepy1gvVD4Z+tpGN9UNednNYItB2Z12aU1gE5YT9xZBzIs1JGCkMwDC9s5bzoXuCu2SfH7qoYqUPhyOKVWf7xq2DP9umJetxn/ZL3Z1ghAAL+8KkheO7g8HywpzG5APtC/UALCJQzHt3U0/4SA6sCTmZb8ERxapvz+hdcbJFEfVtZj6xFH4A4BFZV8lGTPbFtNoHcofYOXj6AmDeTarX5zRyGCO4RyYj7AlwRLHqWZQyhR3jKOpNGZ9t90elUgwhARaImUsyGYx02XCo3/yOxWEqKx+CdgAucBo5PF+u+ludBbMOJEQpfPZHcESx6ksbM/thxwwHI6S5kmm7xuMhHcCGwcEODmlj7nL999rnySnzJxYFQGjbCFhFoCp7MHU8ShDOsNMh7KlwRLHqHIx0CHbMEFwLsymnHtIBvIJ25kUGdRwz3oms/4HDRu0qVtaCagA2SLs9zyFI+mQI553IupkCRxSrvo4K+kDsmOgdm38h0wvVTyAdwMxZf739rUzNTcMbV/+ax5QmvT5UA3ChQ9mLmRaXPhZ1lydDQv602cRi0bt7H+yYaGiaqTSvMR1e9XjUM7cLQgIsKM2YxCPQYK6qfR7nJJ/BpFp/R2gH4BFVH1iT+Rj7b0FIzllX+jtwRLHqHIr0aeyY2lyV83lfqvThkBLgQFefWZtJgelFQ846k8bvsTRHQD0AB7LKnMW8F/F/oulzOkOXU07or8ERxUIwqE5UslJW2pdZy0mZhAr7YIVA2/0AaXdmsi/6hgyetMcxCfWfCfUAbafPLJaV5mkPhiIdGbqo8kofAEcUq84pgBtiv/B4RV+kw16o7ABDBNoeDFL6GCadrH4zHFm3+zOJFv4D6gHav0HNN7zIwZXm3qi/Pxv4C8hOcESx6kqDKZRXCfpgK1WXzSr7vA+y6pD6Elgi0HZfQBjFo6Wp/v7QByqarZgUzr0YdZdzUBHQNqivqrB3ehMtVPrQsCOFbCbMYXF31gNPG/OpcxLVC1G+MAwSaCextHN5tZ0tlFdhlK+2E1QEtDFSu5tXebjuYhFNGcwEK7DeWcvBEcWqq4NSyNRS+5InPKsxOAcWCbQNMfARNoEGpbcb+lDO2GeVfRUbFIROXprp/rWkM58L+oIlk+fgkGItPGUsuS3oqLqwJ/h3wbLPRlNnLwGrBNqyZ5Q5nk8nq4E15zF4xrLpclEqxVAV0Go6ZeVDHEYLjyNqWAm5e4L7/gYOKdYi1rRgD7aeuV15mTzspdyUPgaWCbTJrtzOxL6/8J7Xc/cPe/k87ZtPQlVAq6GKa2/zcYXdPVS5cR1ehcVpMqb5Waj7g0tHi/EF7/ScoNP8QFvI95kNGL0K3vzeDS3NsXw2aVKEuoCWUiovRTdYb42a0P8M9mAV9lQ4pFgLb9uoDwzzXKvm3fd/0OvC4GJlDxgo0NrAHZ/BYe7C+uv3fjppt2c0cviNrt7qGlAZ0LLokzDf9r6ILtDexLEw+8EhxVr4y9PAR4LcG8p8JQWvIlfCQoGWIe0ynAJ3sbRfeu8HFDOX5DRenSZIQmtAS6B2jdLMSkHHi7+HKD6qNYBDirWQ4M+rQbYELpViSiPx/1yzb3VK+34YKtAKMsL8gFd75mSjkSJUMxk5Hi9GperKUB3QbFI1WEeYrcO8bPnVlg6rpU0LbgnxXMsLe3B60pgw3Ry0gKGg9ZOsWs6O1DwiL/VPmY1TPx/aA5pNhzR/TdFI9SuCdEykuRyOKdYog8POCDGq7tNwtzqi609GpRmTYK1Ak+3IKcyCb2rkT1owH+f2fElP3FAh0CwmFwdWpRqJdDkoesvQ5Mjt6RKLz+osmL3DczrsIel7IZk/dxeAhvsCz/OaoaIPH/nT9vdnuQ0YcYfONVAjEMxNujEFWdODE6Sy28AxxRppbH1Uqi4bXFQ9BTU4I6QE3A6LBZpFTmrBTecnFZP3LeQDmxK/CY12H6gSaDjuchpL+1Aqu18Uk23Dc1D45BpioaVpu4il/kJqZSoqW8BwgSYEez7hLoNvMws0DCxqo+/LsJr/8UglK0GjQGOj6nb/9EYU9bXhRUbMNDioWPOujNQnBxhVn53eYmHdA8sFGrtnqotz7JqUkeZ7C//gPXO7nEf/LLcP3iHN36BVoJE4o3ZDqntLK/uJoC5fSh8KBxXrPXugYDYLK6puv5T6NpylgRVgvUADX6J6GKZ8vR3JgTUXHaFS5k8sb9WjJtsDMOZnr3W5PXs1fUxx2pk6e4mstC/DScUaLki8J8Co+l2pfy1R5ngYMNAQR13ZfXj6uuam+iKOQn+K6a36+a4+szZUDDQgqn5eGANhzE4hybVD6kvgqGIN9+Y+LSjHQ+gvB9I3/95oymAGVgxMiEJ5FbbzOYT+Wn1fwm0ErpPPagMuQpxGBxpHd3myc2KfCcOwhRVdz0tzEBxVrFEn/6X3TMvFRXNfOFNpzW4wZGDcOB83L5OruQal6ZW47u+Sk/Y4tg6IslOhbWD8T1/68LDGrSe7BCPcoZqbp+CsBp8C8++wour2yJDkS4PsYMnAuIM6wpzJt4PVWIeB9lSWzkrzItsNq/QxUDkwLsMmzYzgHJeRRhanlFBSnLAa8YyMqLqnhaZv0BAbWDMwdvvPt7VprbBU2XXHc1u/gPWwC2k/DdUDY2Jasl6QXTEC2iv5PrMBHNaQByGZF6NSealQ9J0uJkG25VT6+zBoYEwUk22po1D6Wi7XOmbYNxnnrT3TWTDrQANB3VFXZX4VbFpAWNH16+G4hpoCo38dzIE2fU6n+84PBtvtJ6AzDUwQObCmswuPMp+Psuv4b+0MR7DOF0W5C31XQV0M5TMHO+XSXWz3Dudgtp+G4xpiVN2+GU1LPhBMVF2ZbwQu751h2MAiKZWXyiqtmXc5mjGh79gpKx+i/DDmDruJStVloZFgYeSFPThwwzYQTCTKfc+sTO6AAxvW6lDmLyFF1Z2B/0/YtQn2z7BsYKF0lye7fXKjB1PHd53wd+UeXR+qoDUzx9TuBgRH2ieW1pkisC8uZ1gpzVV/O5KVTYKJqktzLGRuXov6zIqwbmDkiPqMST6kRE44qv5udL1g1uEeXR/+wv+gWxQ0FIz4QpTyiaV1GTdh76RJh0EIfcpghl7d4Mgiqp46atN6zWOQOyaagtEc9Wo+L82VwbVXpt6Pnty0r6PcZGgqeE+UVekzYNjevdQeEYrcY2U+B5kHkeL1ltvj6wdznklzCuSOQlMwmqNeiilFyovhbdJc3uhbyrK+FOd1SHMZ5fNBY0GN7nKOexV4i531/9DzYEAO+02Qe8p1WpnfB3OeqfLyNOUQcp/nslao7ABDB2r092dzwihPgsuvN6WjoU+V55SfHImZS0JzAaKrgT8dF/WmFHmF3FM7IOf5qFRdORR1zkp9DuS+wJKwdICCUBSs9cdP1ec07WnBsxzQMopPQF6a6TBmC6QNPEVTioO5sEndA7mn9OIp9HdD0eOu3uoabu++ArkvcJ69Ekm7DKxdyI56eSmfXlGzyj7eXBssKh/zKUpFfdi7ipW1oMlhQiOpOQ/2amuunLC/CEYRemcth4K8VHYDMZTmFtCl84+Q+6jr67B4oTrq1ZXdWVDxrDPbF1rwDGfO9copkcnDUaG6MTQ6PGgkNYzYqNGolyNhVg/mhUXpQyH3dBWVRspuE4r++tKVrX3OT3IbLF54UDA2K5O7/fJJzZWt+XX6zGKxNPd69+xfMB+HaocFtSqEIVvY0t0h6YMvrbyw6nlGNmeFpLsd0lwEuS/CCQqoIxBwyMomFIz1yxdNnmtpkIyqr33rW12LSgj7TWh4GOSKZisYsLrGs68XjFL0mRXRGSgVelsNqaNRTlS2wJyIuiKWv4TlC4NYmP3cnnjRuxcgYY9s/Y8lzW89zXM8j9r7QN1Tvpk91U8Mk2kywu4Ox8fvYsK8SjYK6oWQ7xTGB5nZ9kdDqmEIksHBDpoz4OMZnpf2mvbMBKBRrsoknjrs16F6PMX0zO1yMn6amd71cR3TnpN6y7CiMn4MecMaYSl9VFCOukp2YTuvoWA24/a5OgtmbxjA1L6MLtYhzV899TkfbW+LWTHwkay0L/k6+Qw5bukkL/SB7Io5eypLc20j6QzvP4JSkO5yDsOSPFzCFkKLIsbCzOQpD/vV4RfMGbxeCu3FsIBpfBE1q1M7bk8d9bcjofdsf5RKma94/KT6bKcye2EnpMxZ5+YUv+Nk1Ab08Hy+y0q9a0g6Qm0988I+AifYm7N6IKQ89aFzzO7PtO3cnHfSTWKhv8xtKmRUGlgBVjBFr0tUI6ns4x4XPp/B5sd0H2iax716365NkipV89gW6XDCuPVWzyqzE/e9UnOGpgxmQtKVXDH5qI9FSuEVDiYP00CgoA6y/v6s083ZTGc0HPzu5yxVF6cpssyi/sfBEqYAZ48yUp/s86wUehnjVUdR27B+5q/P06f1X119Zm3sEL/JCHsCs3SrufM6wZ3T9Ie59kvOK/P58J5X9Z4YnMU6ov5SaDUVQ5d6+1W2g6jmu9TH0lzI7jMCvxkadHS910EGYR9hOcukU9r3u4P1Sc8Nw7PUEgg7xeMnM5ncwayd2Cnzf8ZYmd8zreOYS8W54TlG5lg4xiwdw9cjaT8d3CE2dfYSXFO0RkobzQmzNbfPScWvsIae2nCV7OJ7i133+V+LROVjfH9kYT6ZkilrfVF3eTK2jXfRqM25pVjRJXb+zzmcqvMyR92nqa9BvshIfTIcZF4zANxF96AQdTEvzGlsp4SO0nqOet8z05+zYRF9i6aX4qG2jPYt/8+woQJsRKla42hVqNsNdpBPUXV7NjMdun706IE5i+2ENZWsFKSTJPXpcJR5XHKpcDHIQ0yY1bl2WMtKveNCAiXHcatzIOcPVtET5MCaaenQFQvzG29+91jYC9IygCMjzfew6f24lcfSPsSsCvzQUT+vKi9PjjFP3dfdoapRRtoT4TC3N6IerKM+FOzqZTubZKHn78AK9PTP6jML/SkYRg/8RWW+wtcWjjVP3Vzl12Au5zh1SHNRWgxILM2tnQWzDrYV66j6zuwi1ItIpaInP7YpCIFNiYTDziPPk9oVhhtdrGzCNgVAmK0X9fFpGjKzz90Ly8jZT6yu7HTm0hSdYWVqtuKhIGZMimVyc4oiPi+TEQ+tvZ03t3Ope7yLTlMXJWkeY+o4XR+yPtGkzJTU3/hxvir7fGi9/hcMOJjrOMqm3kFDWWV2Y3aGvein85R+6FLue0OS9wR0i+a+9k4onSi9s5bLCntnmoxKLM0tUaH6QWw3RvTM7aJOPr5FompRXKW/w1XXo2Jlj6Cdp1pXgnQ8zzKfJv0QDQwLWdc6C2ZvpkGqt5y927iuLzFlMOP+nfvZ9oQH7afPrJimrIvhPfJkOjIv5MCa7gs9mLYokPvr1xFlZ3JLV/oAZhGdWWO5aHDdH7Xv0d+fDVq5nKNCURM41U3sMNKrVwtax4YGIM1i2xltLGexsKcya507HRaSi502n8/K5InU+YJ1BuZ8MXgf5Fb81yBn5vacqGyBbdheuOW90WCmsXx+KrBh3ILq6OAVrFRdlgqH4Fw3wREszZgUunrRHmPb535a8oGxfJeuYmUtTnn3lMoWancrNjgdSuP5SV2bsoXKDukTmLLr+t7ofrTDoNbTFblxbXOkOHUhqBmHQnmV/2/vTMDkKqo9fqdv951JwhqQfRERlU0UUNkXAVkEEQQXVB4CIiCC4sIiGhFR1CeyyDI8wjjTVdVDs4lIQBAGRGLEdrqqbkMCEcImO8gS1kDm1bk9BBISMksvp+79/76vvrzn80H6nlNVp06d+p8xZNZmcb3iC6RdMfN+NmUoN6wBjG6n4w8CXwilPQSLF61fleXdmvEE05LP88fyk/JS38DstxwLR2sD02Z3Uv8KUtVLYaD+EvUVSu81SJ/ZJG3XIG8bD4bKfhYztMVZKaW/weza9dqxXRHyKuVBg5El+FvJfMIFmv9G0D3m+vR/dvbrD8CThuc9U21/CkaoedsY17KvMCu1ugOe1lpIk59xadd4E3Kv0GPq9FuxLk/1VFo3IyrJ6OqtrYPp2hq4NVIY84OmoaEONy8G2bZOxqPqhbKh7mA+lZr3IAAfhSyjsKf6pUHc7L1wcF2uWcdImF+N47aTVK7mcvo9kF5u1do4+B6SzEzr2kiBeqcy+2Qnm9BnNqEOYynemObmhDmJHg9i9jYPOhRxWhQSqbA+M2nMP0jYPfkeQkcm35YpimZ7ruVL3N72uG+1ORxmkVsaaSTTrPqzpOQ2vt+mBbMbz5/A45rIwECeRDec7zyd4oZtL2az0Vb90emclF/5zqHyBsqaYjY3npzQ32WmrS7GfVMgzS1spRyV3RFet2gmafqEnDRTuLaIb3MW6omCtEdANWuxwezHuWYfnT+fPN7fx05zXdi74HXNgfojuPWvlu6EQ/wcJWcya+QJpXjtLGSmkuZQpXhLTOvGQrJvrIJZafca9ybu/ITrJp5kSBF4LXEto0wpSmPqJS/1R/eV5eEZi2FoqIP6dTBt7vLw0jovjzTTyk1QIstdmZtCf7whvdFK/3pmn4bqH6HiVfNK6wwY/I2CMr/PvKZwg6hLhDEqgVH2iUbV43K9Hh+WcjwC3rdkIqU3dt+pnMWgnaT+EjnGUcr9ZdBHvsI3sWQOa1zG1ZzFrBTmdHhfA+iduVIo9bnD8z3Va1ok7KNubAqjv0m5tgw1L8jGhmZfJAUASD2Oj5y0J/Da5PS5DftxwqxFagxcswyBqqwMD1zKgUtUP0ad+jhpTjfRJ14OlbkIQfoImDprWa49R5JSkQY2QaM5wOwgci9KUsdBd6VAyRquUqNN2NNnQ1hh8QF7RK+IsyNhZh5KspRQRxgTJAHHrJ5764Zm34T5FWPfvQAeOELobY4w55G2eAoz6Y9HUp+GpjPpmNeB0Hs3+vfyk++zW8ALRwn1mKh3H70nM/GZMn+lHi4w/pJwp95645HsXCHXH9m6oL1cDuEAI6NT2vdx8pGmZGx6qitw7UmQZItRwzfKZMT0CZG0Bzq/vdH3cj76Dc7nD0b30dEf3Ej6jekB/JYm3YCekhpJygzi5vuuSaf2DJXz0Y0o1raRZk2FPpQ6QWas3tNkSr9zPBuA0ifyqoXUpzXjd7p/9nGMs+vTcaU8Nrr6zHpUxuUOY3d6pIZwJyVS6KAMC44xqy7j65nuPfObdfgmX2eWfLsf69YIgnRlPunW+L9n792N/Q1EFEadhUg0jB/PXIc/YWakuo1tY077rJoH0aPCpvzQ7kqB89UjWsY3gP54Q3f4PJ5atHPKurq/y/OkrU+3fqR0A0ONMwEl7b5895241NzfHt/G6vcKsxU8ckkJIv1xdyi/JoMys/PcWncMPGCMDJc72GzKn+kbqLU5vGBRn6huwE7OsKm3TOYAxrdBj1G5DryyYYeziaRln1PmhySJ1uKHXA/S9a/bsL5DGzbe0jSQnjldVCrHtjtxkx8GF5T+Bq/AzPwWTrnIrY+wm7r5/4eMqlg9nmkN9YZRri1Tz/BkU7M4kvbPgbQ7wBHqUMMOVg1EhP5uU38wY03m4YXubHhlEyFpW2l3dd/6WJLC61Dmakpg0Abj/vPXRxOUDXeNrrhN+XJ3GPg1dRxMNikcuJq8Zukf8c0otiBwLdcmk/+x0pJHqUP9IFVXrfpDVvtDkGx4IAfXhSc0MGBxJ79Ts9xwhF4nU6ewrLsCJ01+emw3sTS4RisWVK4SgHR9CB3atiYzJid15Mp+iJQu3j7oFopqhkkuEB+qPXT11tbh2t02kWGVdsVWfIcOqa/ipd6lt8t2EsDuSInALDdvo6RF0GcmYZVqBkLvnXSTynQLb63rSgwZVI8p1t7PLKv8l1b99FDqHs4devFoC4DFBKnKXMZ4Pzm2ZesXs3K+vNRnZjNI19vRvpXtGMrOo8fyuF1pdqaiz6xHV7mZb+mtTEzap1kK2nPSfI/ZbcfhrTuoVFanR3+MO70dhNUJgLcgRQ3G5WuzWvouoWdOF7P1KzuqMC4oDaXeP2sSjEssgcr6rUpLmTa7M5Tm/Kw73rCk2j0FoY9MHqelHE6123Q6p7bLLT2sCHMSY2WY/6DcAoBhBgbyeWlrXOdrZ9F8ptWfpCCMQoOkFlJ/2HyYTxKxTT6g3hj0mVWwOLWBelet9HUGHGP94VORMD+jDGwqjV2urcapbpvUetq0+N7LN7uOhiMAJIEp4x4Jbs+8qS3JFqH34yXeYE5PpfOpeNXh5pKPIzaqvy2jN49oPNlmqCzGLQK3wynfUn1wf5YT+bU0bX5CH8lLD99+vS0bnjKfY+x7r5FuOFYlkGn6zCp5Zf7LtvtwuzLKVAoj4+cYrVd3p8ntOvv1B0idy9n4JcRCC8ozH4UwBye6KwVnlF9wVcxo6wPIUvXTaajN49T9jyTzgvLge9r1LfLKDrC+agQgw4RSX8JXVcxObe+NQ1xipQrje3KB9nZh90yaqmVYLW8Jai9XkFoWViSW1z92R2ruAUd9RwA1kxpTeCtT1FNdgZNOb7uukRdQrG02Go3t1nd0NV/CYgQySb3z9nym+8AL7S6TpIeOrPpkKPNDT29vJtGenhf2LsQ47/Dzue26+QajQdoVC8JeCqddbEb4WbdY/i7qM5t4lVUX9iBm3/KotmfvhL2Q89UjGu2AzNFdKZBKF9d5ySIwLU+fwOmdWbM7UDd8L1R6Y7eHn0t7OWKaxY5KZ9F8EIuRT04t7YF5GT8J512yUxekPYIWT+62pOYFnGo+WTziTboC8vVvUmvCKgSyRE7aExhL1t1HNeMcvpP7+/SzUsahpmKcKdeiejxjbkSpy7tpp+sz6FthJfLzqmgVqluCM7+rXvt/k5bx/fH6PBeqJBMzl9GiMMDl09A1KOcX+EEp3gaLEMgC9U6lfJXJSImFy7fi9kg+p/TxLJ2qV68JVZeR9ZxJvQxnhrLsX85659ORyRuZ60Jp9yWNYC62Iz1gZtq8x7Bx7KTZRXwH49pB09LGKwC0iQ5lroZU4wjprkzklIBJOjCzSU6Vw05l9nFB+rUQzBhRNv00ZNPTRrm2Woc0f4CTj6zm2C0Wv6b6uLZnYaS5mNOBZmJpcA1Obl0oxVtyXtRzynwfiw9IM/wSCosENMJuyu2bcXpX1m51rwQxuBH1qYhk/AhikBFm093eh9UnzQurO7VCMWZUHVLvpFrMQFVWbrmxhoY6qDMmH9kz81eOPs35sanbCF+kXghYeUAq6a5MpHpwvm9H9Lk81yxzAK8yIfM/rU8gVpand2OcOnN7UAHwMpUGURd7LD6ZyLJXlh9uHvA6JsCIMzSvuElyDT10aVWZDDV2YvYdjmV6azTZ2ecJtjc10kzDogPSSKT0LxmXvzwT9M5cieshh1MpDIkYtOR3TxnKubhjV/fv7KNEBmKLUYkW3Boo+yGsOllE2a3dgmExEUY9aR6iVs3NlkiiEzSjjW9+IMxaXF05VOZw1j4jzAFYcEDKAvWNqWsv23kn7Dc5f796p202yajnm5mtJV8htZKwZB5GDDHqbPpTobSHpKG5IxjfCb+QU/pETqd83yQgc0J/txmBbF1eko2awu2s/Zgemwozg7F03MOBmLEcFhyQCqhET5m/cq7p5SQUsPhkjD2Q1TcT+lMN/YFycN3h2MIgThhbgsz92UuqflhwwAImlOK10UxpfI8vSdawrt0+/ha/9JCTk6ZsciBhDslXcX5sGgp7DlYakAZCpb/Gez3WO7P/iH1mEtUgp6q+3wWWpBhGyR1ooo8rnhgMRHVbrDRgySi7I0pjxv+6nho4hNIcHEydteyYNkNhv86qcUa//oAXQYQ0F3A+0BWE2QqLDPAa5m9E3BxTvnzKSNg/MZLlfWBs/lBZnvY6etPFuizKj2z6M+7P40jCEgsNWDoDA3lyGGoYhAk07slH5UUy0W8fRQc9TjKb7jfM8iqQYNzZNGnvjYUY+JxVl+b/GAsBPE/NdHz5lnQTy0y2eNMRrrPLuOD8ix3KXsnpdsDnm/mC1N1tUZ0DKaDPrBIqcxFUYxq3kVCr6eSxYZ+ZtMTv7oJ6Tm8ISHPes2DiMNa+IMy3sbgALxHVbTmXN+Sk+Z5Pn5NduaM0Jy/Z9jOWowaLHVJfhQC9sSov6EAKGnNV12c2iWR8PSZWY/W3O6S5IhL2oEUfHuaV2YPT35VKo7xy2KSzqfk750MbtWfHygK8olyL6q3N+fbE8LFjMKcuzG7dnL5w4qi6ApW4uL3qjyRfjL27of56Tyj0flhYQMPJS70758Xadw33RJ6pXJtMD30YHSqe5q6qsITr5S043whBex34Rk7pH+NRaRO+q7SncCrHCPrjDV0QeSitUXlpXsUe3fg91e1P36HDL1YV0MTsSjmkx4+RsI9i4jWlpvk1N5lf4vN30sJXVw2lOZ/39af+KhYU4AVicCPWmVWPHpUuSqTiD2Pvy8Te/qobZzVCLQ6A0VyJLkMZARdYPouJmN4RCf0Fb31U2hU5q1ZQs4tAxatiMQGsSXoY6Ns5l5VR7bfPnziUdg72mxQ/HhW22Cnt+7CYgHYG7ZOp0+bw40lMzpRl+alm0e9NkPljU2nKWEQAZwpKf4vzHMopfbzv39ittWdjz0nlHnpjUNIfxSoC2ECZDSo7gM5qqhaam7x3TOq0KM101uUweGQEmEIPoTknYqgniI+PSt8RrAuzC/acdCm8BKV4G6wggC/98frOWfsg95iCkRKJQdIO5nyIjGT8CJXsYPEA7OaONNM4lxekJiByBw70NUlDkG7/GQi7J1YO4E9Gps+sRyL/eWXnYRL7OYJi7f2pCTqE/QXzx6aXYNUArOaM0l9hnr28IE3fmx7JYt/x9hbaRNIeSDe5WDkAgnaM1moWp4ny9AmhtP9mLj23O1YMwAJVWdkFII8zDo4eS9ttFHUExd6DIB2A9gbtpep7EbR7pAIj9Rlp80HSYebcfdGN+4Ops5bFagGQ5V1qn4Ivpu6jlyvLQ9fcmyDdIkgHqYbki+j6Eu2KmZfAKL1dKoMQafp4Pza152CVAG2lVP0070A9vj6tn57UQ7D/MH84SjXpCNJBZijXVqPsLXTa2S5Kt0TS/jSvzB6U8UmP3w2+h/TNWT+aE9VtsUCAtjB11rLODx9kPD9eSpVetdsHQ6n3z0t9ZijMDKipscyiz6cO41iXATYHaY4LS+ZhLAysg/d761lpe0Sk9MY+ZxZCpb/GfHO4O+iZ04XFAbR8bghzHmtNdWFO8vn7Dt8sH5yUhMr4TuZleZlvZkRButvztsDKAMCbuOCkIPSRbgG7BwuFDzXt8SMdylxG8o5u4/m4V1rH7qDhNsmbWX9fZX6ORQG0FKW3S7otsu1UamKv1pny9AlB0WxPB4xI2D+5b/s09g4vMulzQ6nPJXEMLAoALIkpQ7nOovlMXtkBLBxeZSFeTEpnhPlZIPTedL3LOsPVrz/A+d0EPcR2G/3mWBBAq5IlLkiZifKwsUPBXaT0592h4n+pERsei3qnkf6fnNInoucFAKNFVj9Svy7EY1Rfs+90jejGTzqV2SfoM6twcq+c1D9iL5+JchjQAijAZP7w+kJeh5vqCm5f2pXWNlrjOMtcYiwtMaI1lXdirQVgnEwsDa5BTW1wjZiS2ndhL80p8/18sbpTIGYs1zbHKtciCoghoQkyDffyl3ZrqlNgruLdctKc3KHslW4NewhreTrq0d0h9ZNYAABoeHBFjW3MYW6iDWLBSc+imVy/C1ukh8bJVXcrA3j2gYp9PTUt1QE/+sykUOrZrA+swh7UysDcHQx2KEj7HffvlvSGCo9AU1WP/gzdIgX98fqY/AC0AHqhPVwi8xIWoTSX0OgzSD0hUaApl8Pm+JLu5n4bEZRry2DWg0bDXf0lkvbPzfrtdGNL5XlUyuL+XWWos6Q6SJ+ZJIPc4RSzHoB2oOJVc9Ke4IL3B7AopX7BfXW4bKWPbN6wOvhyZXl6XMQ7YNe/w2QHjYRKADgHp5SIaUgGNJEHtlvQod/93rPdn39zf76ANTX1t7av198T2F3RxAgALgwM5EOh93OTcxrnsgaMpowHSRqN3jVEynwpKOmPBt2ViaNxn0joL3BvzJFsOgA0AjFjOe4JDqoRH9Vvmja7060Bm1IbePfnqR1SXxWWzH3IlmdO1WVOTpkfBsXK6pjoAHCmV69Zz7ab+7F4ZbuUpt6+OylzOY6C3XfrftghzR9Zb0Il8zBkxUAjCKW+hHlWtEYPwJd0E0aZ8iQoX6iExb6OdS+7WXRa68knmlUuCQBoFlOGchSgJYu5svOwqGG8+cjI/Vl5s5wm2fSV3ph0krlfj7sgqwcTG4wvq6735n6LRA+/k4Op+zPpmiz1GVTSQO83kCnHeHsCg3yjq7e2DiY2AKnYoMxaLjA7hbvyAUZ7a2R9eLBMTcMwocGYKNcmc3+fQYmVvIyfw5qEsYR1+uWCMCov9KcoIYdJDUBKoStUemgE3XYMP5t42Ce4NZgCnqx9LsjBHMLwdFQSRRdVWRkzGYAs0TOna7ju8RrUO2L4NOjxHCYwGA2htPti7mB4+O7o7KBY2wwzGAAQUM0bvSDn3tESA2PBRkbKNwCMhD6zCt3IYN5gePCmaC41pAqk3QuPRQEAS4QeG5LKAMl+YfHE4FsOY/5LbzEwY8HS6JDmcswZDM6drEn/nh4Tky4+ZiwAYOQkajJ6Z7eIXEyBERZVDIbdTafnpPleKPShobKfpVbpUZ/ZJNEYnja7E5M4A5SnT0gObcXaZqR+FUnzxYKw33R+MSUU9hwXqP8BcwWD5/oV/8P9eSw1N8REBgCMHxf4UNOlgoxL6H6H4dmV8oN5pbX7n2/qUOYyF8BdGCnz85zQ3w2V/hrVMlM3S3p43SmrGwTl2mpoy91iBgbyJFWY9AGQ1Y/QoSsoVT9NpU7OLsckN31Sn0sPRCNp/+yC8sHErtK+CD/H8GxNsqTMlqw1AADQzExWqMzn3MLTPxwMYRHGSOXV9LAm/f0umI8pi0+BIvUtGL5t+q3733+aE/YHdH3tgsmvJk1JhN476bYqqtvSASAQgxtREDqxNLhGop1NmWBfoc649Bt69Zr0m6hjZvIbXXBNv5kOPvQN6BBE36Su429Opwx3QZnfdyh7Zb1Rl6nkZXyP+/9/FAE3RvrXkvhOuukJ+uMNEUAAANqyeYfCHFAQ9lIE7hgYo9NLpsMABaxJsxth7xqWZ1swXPD7TwpuFx2RjK+nQ8NihqRmV4v7v0XCXLe4f9ai/856IG1r9HcaVqN4JtF2hs0wMEaTQZ/p5vap9AYMgQIAgF/gLrVAjTsGBgYGRsYC9GpO6R/TjRMCAgCAB6Uy5ZBaZZNGLLVExkKOgYGBgZG2Ujm6iaI3FZ1F80Fs/AAAf6GWyMpuHQnzq1Dq2VjkMTAwMDA8zqDfWFD6G8ljdAAASB19ZhUs9hgYGBgYvo5EsQgAANIKaWFjscfAwMDA8Hgchd0cAJBaImF/gYUeAwMDA8PboczvsZsDAFJLXtkBLPYYGBgYGB7XrM/Cbg4ASCflcojupxgYGBgYngfr84PemSthUwcApA9Z/QgWegwMDAwM7x+ZCrsnNnUAQOooCH0kFnkMDAwMDN8HdSfFrg4ASB2h1D1Y5DEwMDAwvA/Wpf0zdnUAQOrIC3sXFnkMDAwMjLHVittn2fxdlPlv0vAPAABSg5ix3HBrZgYZEfPrUJqDQ2UuogMEPRbCRoiBgYHBa4Ql83BBxqWCMkdHwm5aFymwT3H5+3UWzQexuQMA0pNVL1Z34tN9zu6wmIPEri6I/wm1kc4r+wo2SgwMDIwWB+fS3Ov+7CtIe0Sk9MaL20vcOj2NUSnMl7G7AwBSQ07p45lco74elGvLvOtftrsykQ4XOal/FMn4ek5XrxgYGBgpkT981QXnf3d/nhUq87lAxauOaC+RZgqf36DPxO4OAEgNBWEUkzrDeCx//05p30elM25jOdv9+TfaaLDhYmBgYIw0Cx0/EklzTU7aEwKltwvK0yeM6ZZWmT0Y3QTcit0dAJCeMhhp7maxuCo7tSE/qM9Mog3H/TOPo2vbvIzvxIaMgYGBkWTNX3N/VoaTGwd39Zn1GraZ9FRX4PLOiJr8UR09dngAgP9MnbUsl8elbhzVtN/Zq9cMpd4/kub0SJjr8so+gY0bAwMj1YG5sq+EMr7DBeUXhMocHpT0R4PuSqHJyZ9ZfJojDW6ETR4A4D/K7shnc7FbtPKnTywNrtGpzD70eJWugOkqGBs8BgaGp4H5vOFbxD66VUzKWXrmdLV6S3H/7l4+pTD6q9jkAQDe4wLk73DJAAXlWtT2D9Kr13wzgO+Q5g9hydyHQAADA4Obpnko49tCYc4Lhf16UDSbNztjPuI9RZmjGZX8nI1dHgCQgmBdCxYZEGFmsP1I5crySQ2824TcxnjhsErCCwgaMDAwmhyUvxFKPbtDmstzSv84VPazDa0xbwbu4MDokenfsMsDALzHbQY1JteV53r14YaGOoL+eP3hOnjKwl9BmyrJTyLIwMDAGH1gHj/pgstb3Di/oPQ3AmW3XqqULUe6KwW3Dr7I5Mb2eXQyBQD4zbTZnVTniNrCxm5UJCVJpTQkgzZcP1pxm9fLCEgwMDDy0jxDGd+C1N1UW05N32jNSNPWQiU6bB6Z9sfrY7MHAPgLo+tKt6BumOpvTfWk7jeGwhzggvhTqE2327SrbsxFAIOBkb7HnnTTFklzrQvGf1NXYom3IWnDjNzY/obRI9P9sdkDAPzNfij9NSaZprmZvqqUdkVSwiHN40jqM9w3KQ9n419E4IOB4UeWnG7SImkPTFStxthUKC1ESn+FTcMnYU/Fbg8A8Df7ocxv8biUMdTQoz9eP+kKqPS3qK4/ydQJexfKajAwWtNAKJT23+7PG0NlLsopfSLdjgXF2mZBd2UiFqklBusbc7EhqXrBIgAAf4N1aW5m8mL/Alhj7Bl5yubV6+N1dxJUSHMvHrpiYIw8O043WXSjVb/ZskcsqCMfGMhjoRlbooFLiR/J78IgAACPg/X4SRYbptBHwhqN3ixrUaesbpAX+lOh0IeSYk0o9SUUzLsx0wUjLyFQw8iA9OFLdX+nQ6y+pD4PzGE0L5J3MhkvV2kmJHHL5DA2P5HfBQAA7+jVa7J5XEoSZaD1qMrK1H68s2g+Q2U2kdK/LAijEMhj+DioQVBB2mNIiSmQ1Y8k/g3aF6wn9mCyxxTN9rAIAMA/hN2TS9OPoM9MgkH4QBrPCP4w/Bq6GzOXWbCuzOFs/EOZo2ERAIB35KT5HpMrypmwBsOAXRqJABDDk1KXGh57clxD7BaM5Bt/B4sAADzMetipPBbSuARrMKRcW8YdpO5GMIjBPFB/OVLxhzFhWa4hkVtDXmWSFLoZBgEA+BesSzOdwyKaE+YkWINpZqwUb8lls136ZqzPDIRZK1HwkNWPUFaPFD3cf747qeW48WVS+aCOkXU9bH0aKX+QEhFJ8pESSIeyVw5L9P21rnNvqqSs8+Yg1ZC3hn2jdQ12zH8X/ne7oewTC/3dlInp70ya3/QbSOIz0esXRlGJCP1O+r2kOV1XDrJHUNdg91s/R9/J/fe2IjnC5PuVqp/m0tl46cMegZnKF5pDTIL1x2ENAIB/i6gLAFg8/BF2T1iDccAuzLc9ybC+EUq7b5syiMuQjOYSx/Ah4s0xoRSvvdj/3rTZnW03uIpXdYH9Q55k1suYocyTQmxucEnIAA+OAQA+UayszmUBnVgaXAMGYczQUEeHMlf7EbDHzyVyfGBsdFcKLlC/1QvlF2nnBD3VFWA05od9pb/FJliXdgdYBADgDXlhdmGSDX0K1vCApPmSud+TgP0eBHFjXBekOdsLGys7LyjF28Bi2GvQzwMAkN5sh7TH8MiOxbfBGp74TMl8glqv+xDMRdL+mToowmojJxL2IF8elVLNPSzmCeXaaow61Z4NgwAAvIFPswpoI/tETpqTfQnoImlOh8VGSLG2WV7aF/24OTE34yDmF1w6ZTvf+QusAQDwaPE0N/G4ljTfhjU8YspQjrLWngR1892h9AAYbSmUa5PDkrnPE5s+RplaGM2z5FBdXan9N7kl8zCsAQDwBrdwPchEbm93WMMz+swqobT/8SS4mxsJuymMtqRAvRz6c/iyb5DEJIzmYbAuzQVcDvDolg0A8GSDnj6hlRrR7zYSCTvg32FPmPW4fcYAACNgSURBVK180V9PVEMg2bZY3EHmF/7UqZspsJi3yaFj2ZTHoYEWAMCTDXpTJlmOF0gWEBbxExc8fc+fLpfmL8HAQB5WewvSpKdMoyf2uwl16v7CSREGpXEAAD82aaH3Y6IE8w9Yw2NIf12ayz16cPprGK1OZ9F8kDTpvbCbsI+iTt1zGPX1QMdsAIAX5IT9AYuFU5nfwxqeM3XWsnlpZvkSsIfSHgKbkc3iO73RUy+a7THR/Ccv7dM81gB9CawBAGBPKM3/QSsZNAqqAfVH9s++XCjFW2bWWJ7dhuSU+T5mWFr2nfg29PYAAICRZjiUHeCwaHYWzWdgjdQcAA/zJQAsSPtAVssqImFP9cVO7lDxR7xpSdEaocxFTN4/PA5rAAB8CKwe4rBoBsp+CNZIk1/pHn/KYeJ/kCpSpgJ1ab7oy4PSRMFH2hUxq9ID3aRy8a9AzFgOFgEA8GXa7E4Oso2J3m3PnC4YJEU4ezrfGvQoc3s5NXnKgmkK0m7hUYfS19xBfmtMqLQdFu2BkG8EAIAR0CmrG/DInJmHYI0UUqy93wWFz/qjEKNPS7tJJpYG16DOjR6VKR2DiZTGtcFszsXHUIIJAGANdQBkEqzfCmukk1Dq/T3S757vfPHg1Bqjz0xyv7HqT6AelzCDUkq5sjwjXzsOBgEA8A2khP065LNAs/GpMyaVXeSl3jl1RpgylOuQ+iqP7GDRCj71yaKnefiaPhPWAAAwDqLMz3jINuofwRopxgWKkTTT/AkU7VNUIpaquS71Gd58f2Wfx4PzDCSLZHwHi/cqyl4JawAA2FIQtsijVth+GdZIOeXa5FCaez3K7M5MiwIJlfZ49N3nU1dlTJgM7D8yLjE5nA/CGgAAzpkNFo0poPaQEYq1zXxRIRl+S3GLO2REXn/zUrxNXtlX/Hnka36CiZINnK1PZ3JAfAbWAAAwzmyYB1kE6xltSpPNA6L+qj8PHF3ALuyFvn7rrlL1vS5Qf8KjQP3arMhnAnozpQ9lo7VeriwPiwAA+DEwkM9L+zqDrMZcdCbM2iZtz/EpYC9I+x3vPrKYsVxemdifWwz7bzQ+yhb5YnUnNgfFPrMJLAIA4EevXpPHYzITwxgZo7tSCJX5q0cPTl/vVGYfb75vuRxGwv7Jo+/7IpVIYWJkC7r54eODendYBADAjoKofozN1TfIHuXaaj4158lL80Igqx/x4dO6A/Bvfbq5wAPzzK4BEZceDKHSX4NBAADsIMUFHoukuQjWyOqB0Wzl1+PH+BHKBrL+ptIc5VOg7oK1szATsouz/+M85IPtKbAGAIDfpq7M0VB/AO0/NPJozDUqScfemSvx/JbmgLy0b3ikpz5AJVGYBZkO1v/FRPnpAlgDAMAOLrJZoTKHwxoZD9il/p1XCjEy/ge77ppFs70L1F/26DveH5QH3wPvzzYd0vyRRWMk9/eANQAAHAOkHhaSWcLuCWtknESZyNzkV521uYb+3iy+X3+8IZfW7SN8UPpSQdot4PiAMtpM/LICawAA2BFJ+2cWwTpUIAChKiuHJXOfXxl2c37bv1uxsjplqb3qUKrM5+DwgMgp80MWh29hH4U1AADscJum4dG9tLIyrAGSA6Swm5Lqik8Be06ak9v2wabOWpZapXt1IyHsqfB08CahtIdwkWclyVNYBADALTB6lMEC+TIaIoFFNu99vXokmWSK2yD71l0pRDK+3qdAvUOaP6BDKVgoaaTi3fh0McUbCgAAJ1yA7IKM1xiUEdwLY4BFySn9Y88UYl7LK7NHK+cvlzcnI/5Gwt5FXVXh3WAh+uMN2QTrYnAjGAQAwIee6gpMVDVugzHA4oLRDmUu8yxgf6FVjyYjqU/z69vYp1xQtj4cG7wDd4BjE6wruyMMAgDgQ7H2fhYLpLCXwhhgsfSZSXmltWcB+2Od0r6vmZ/FHQiO8OqbKDsvL8wucGiwJLhIjkbSHghrAAD4oOzWLDLrwpwHY4AlIgfXdcHeE34F7PE9Tat9FXpvCn59+h5uHAtHBu9GWDIPs/BVZY6GNQAAbOhUZh8mmYyfwhrg3QPU6rYuQH3FK0lHYWYE5doyjfwMBWG2yksz1zNpS3SFBEuFizJZTpopsAYAgE8mQ+hDeZTBmG/DGmBpREp/hVRXPCuJuSnomdPVkN+fSFr60/So/vv1DWyaRgHuwfrNuOkFAIBFyCnzfR6ZN/1VWAOMKGD17FFlIlWozNUksTiuH94frx/J+BHvlF96qivAa8FIcD5T5uG7cQnWAAAwCnzM6Sxe30u7F6wBRsTQUIfzGelbwF6QWoxVW3xiaXAN37q6Jsovxdr74bBgpFC5FI+yTDMN1gAA8FkchTmPxeZeMp+ANcCI6ZnT5Tb2v/sWsIdSXzLq5l891RU8VMN5LS/1znBUMKrkkTA/Y/LGYjqsAQBgA2X7WGTWkYEDo6VcW60g7QO+BewukD1rxL+xuzIxFPp27w4lwn4dDgpGvx/Z77Ap3wIAADaZDGmu4dHeuTYZ1gCjRgxulJf2Wd+C2Zw0J4/gMBJFMr7et99G2VE4JhgLoTQH88is2//AGgAARotjfBuD2tY3xlrLC0BemT2cD73uXcCu9PFLDtTLoW+dW5OHtNJcgbkMxoy0ezF5b/EijAEAYBTotL8WlqToYAkwHkj6079yGPsGZRLf8WPoAa0yv/evHj++g8p24I1gzJTibbj4M91swSAAAB5BjjT3M7hynANLgPHC5rH0aAJ2ZeeFQu+30AFamrP8U7ox9wfFyurwQjAuirXN+ATrTeo+DAAAo4VDg5W8jO+EJcC4qZeOXO1hwP5KXsW70U+gzokePph9ht4OwAFBA4L193Px664+sx4MAgDgEqy/zOL6HIBG0GcmkT95GPDODaX+nZcHjWJ1JzgeaEywXlmdTWYdB1AAAAumDOU4tG4PpbkFxgANQ1VWzsv4Hg9LSXw7YMxH52HQUMqV5dn4eCneEgYBALSf7spEJt3iroUxQEPpj9fPK/sEguo2y08CMBoGBvJsMutFsz0MAgBgkYFkIfemzGUwBmg0Bak/ThJsCKybcht2MTwMNIO8NK/yuDnSu8MaAIC2M6EUr81k8++FNUAziKQ9kCQSEWA3tOnRdZQBhXeBJgXrz/DowruwShMAALSFzn79ASZZugtgDdAsckJ/F0F2w+rULdUVw6tAswhL5mEe5Zn2y7AGAKD9MNG0zUt9JowBmhoACHsOgu3xDvvAxNLgGvAm0EzcgXAWiySSMofDGgCAtlMQ1Y/xyGDo02AN0FRIg12aKxBwj73LcKT0xnAk0PRgnUFX7WQIfSSsAQBgEKybrVioSij9Y1gDND9gr0V5aW5E8D3qQP2lQOnt4ECgJcG6tINMbpKOgTUAAO1HVLflIQGnfwRjgNb4/Izl+AQDXgTqr4dS7w/HAS1LIklTYeL/x8EaAID2o+yOPIJ1ewqMAVpGn1kFTZNG2vTIHAaHAa2ESwdiepgOawAA2k5emU/yKIMxP4Q1QEuhpknSPIag/N2CFXMSHAW0IVj/Bw//tz+ANQAADIL1eDd0QgRZhdqJ55V9HoH5YuVUz4eHgPYE6+bv2JcAAGBBsG72QAYPZHoOSL2zC9hfQYC+0OgPpgzl4B2gLcG60LdD+AAAAN5E2r2YLIonwhigXUTKfAldThfUqf+FVHPgFaBtwbqMb0OwDgAAw+Sl3h3BOgCJAsWxCNTNv0gtB94A2husm1vxlgoAAN4M1oXZhYkazAmwBmg31Jwrw4H6LFLJgReAtu9Lyg4giQQAAG8uisXqTnh1D8BbhMKek71g3T7Q1VtbB9YHLOYgmzIY831YAwDQfopmezRFAuBtDA11hNJcnJmMurJPBP3xhjA84BOs238yyawfD2sAANpPKd6Gw6IYCfMzGAOwoVwOC8Jemv7Sl/i5grRbwOCAE3llYnQwBQCAYQpSf5xJS/PfwBqAV8BeiyJppqU3ULcvBdLuAEMDboRSz2ZSHnYMrAEAaD9FszkasACwBPrMJOebf0vhY9JXA2H3hIEBzySSeZDFXBH6SFgDANB2IqU35hGs60tgDcASMWM556OVFGXU34ik+SIMC7hC7yhY7EvC/A+sAQBoO119Zj0eGQyjYA3AFlVZOS/sXSnIqM8vSHsEDAqYB+vPs3hLJe2BsAYAoP30mVU4LIodUl8FYwDOTCjFa7tg9wWfg/VQxncEAwN5WBOwDtaleZXDfAlK1U/DGgCA9jN11rJM1GCugzEAW8rlMFTmojSUwUTSXBN0VybCqIDrXONzE6V3hkEAAO1nylCOyQPTW2AMwBIX2FKAm6YHpm6+TQ96Z64E4wJ21N+I8JgrJfMJGAQAwIK8tC+3vzGL1rAEYIe0K3LpptjwOSfsXehaCrjB5h1VcuNrN4VFAABcgvWnGSyMD8ISgBXCrJWX8Z1pbooUlszDCEgAK5jICdPolPZ9MAgAgAVuw76PRYMWALjQH29YkPaBtHcwrd9qmf+iORJgkzxS8W5c5gbdrMEiAAAei6M0/2KxMJanT4A1QLuhrr55GT+ZhUD9rYDdvhIp/XlYH7Qb6gHApR8BPXaFRQAAXIL1G1kE68KsBWuAts4FFe/muzzjOIKT192fR8ELQFsPy8oczebGCQAA2CyOwl7KIlgv1jaDNUC7CKU9JK/svCwG6os8qjs1GBrqgEeAdpCT5mQeikl2DqwBAOATpAh7IZNMxidhDdCeAMGeUu/ume1A/W2jL5g2uxOeAVqN2wf+l8lN0yCsAQBgQ6TMz9HaGWSSci0Kpe5BcL5YLfZbocUOWp48YjIf3eH9JlgDAMCGnDLfZxIgoF4WtI6e6gq0ISMwf7eAJb6nU1Y3gLOAliWPhLmOg+93KHMZrAEAYJTJMAfzqJU1P4M1QCugxitp11BvYDnA0/lidSd4DWgF1KyLxc2SsOfAGgAAPosjH13bPlgDNJu6NKN5DIH4qEoCXqVDPbwHNH0/YqLGlBPmJFgDAMCGqM9swqZGFoAmEgq9X17aFxGAjylgnx9JfQaUYkDTKNcms3mzofTXYBAAAB96Z64EqSyQdpyPHUeNThB4j3uU0cAMNAVZ/Qijzr57wCAAAD4MDXVQB0MGXRTnoWMcaDgDA/lQmvMRZDfyYB3fFpQH3wPnAo2kU5l9uPh4UNIfhUUAAKxwi9P9HBbICaV4bVgDNAwxY7lImmsQYDelbO2hQineEk4GGrYPCftNNsG6ileFRQAArHAb73QeC6TeDtYAjQnUBzci6UEE1k1VinkxEvoLcDbQCCJhf8HlQTVueQEADDMaRjFpdX4QrAHGH6jrvV2g/hwC6hY9PFXm58GUoRwcD4xvH7KX8rg10rNhDQAAv4yGNKezkMuSZgqsAcbM0FBHTtoT8JC0LX0SrqNGU3BCMFbcvK3xOIDqG2ANAAA7QmUOZ6M0AcBY6JnT5fynF4FzezueUvkRnBGMmoGBPAehg7pso7kIBgEA8MtoCLMLi81e2LtgDTBqevWaoYzvQMDMQfLOPh9Kuy+cEoyK/nhDLj6ck+ZkGAQAwA5qv85ko58XTJvdCYuAEaP0duhIyu7h6Rs5pU9EAyUwUkJlPsenpAtvpwAAHKlfQc5jsVCq+MMwCBgJBaGPJOWG9HQINb+OZPxIWoL2DmmuCMqV5eGpYGnkpP4RH9lGuzUsAgDgmdmQejayGsALuisT01SfTgflUJqD6afRLZcL3O9Ojx67nh0Ua5vBacG7HrxlXGITrEu7IiwCAGBJhzJXswjWpTkd1gBLolNWN3DBrE2TVnlQqn56oR9ZHnxPmmrw3W98KRT6UHgvWBJuThse+0/8CKwBAGALl4YUdGiANcDiCKXeP0366S6IfXqJV+7l2jIucLg+XV1P9SVBefoEeDJY2NenT3DB+mtMytFugkEAAIwDIXMwk8XyMVgDLMTAQD6S5idU150aXXIZP7LU9xnud4fKTk3V41NSfOqPN4RTgwVIuwObA6Ww58AgAAC2FErxllwWzE5p3weLgIQ+s4oL0v+Ssq6fM7t6a+uM6PcPDXVESv8ybfKO7jd9Hs4NCGpkxsg/j4JFAACcg6JJXDKXbiP/CgwCAmV3jIR9NFWlIMLMCHpnrjTqgEaZ76fpZoF+S17qM4PuSgGOnm06pL6KjV8WqzvBIgAA1oQlcx+P2lZzPqyRYaYM5XLCnMRFTrSBj6en0aF4zPNTmoO51PY2bq7Hd9CjYTh9duFyIKcDZFCuTYZFAADMMxzmch7X5FrDGhlFxaum7WFlfWjRiCxyXtpdqYwkZU2UXnJ/Hgfnzx5U8sjn4GjuhUUAAOyhbCaTzfv1QMxYDhbJ2MZdNJ/Jy/jJFHb0/E0ju3kWSuYTafxObvSjiVK2iKT9MpsmXspcBosAANiTV/FufB6hxbvBIhmhZ05XKPW5aarJfvPQWVD6W035Zv3x+u57zUpbwB5KOycQ1W0xKbJBQepuLr6XU/pEWAQAwJ9ybTKbR6ZSnwGDZID+eEPnc9X0ZdPN3E5l9mnqt5N2RffvuTmFNxGvJ/Mfj08zEKzbBxj53a6wCADAC7g8Ms0rE8MaKfe1+oPJuWkLNklD3QUhW7TkI5IWu7AXprAkpq6c0x+vj5mSTqjPACd1orGoNAEAQJsyHabMZQEN5OC6sEgKcZtihzRXpDHApLbpE0rx2q3+pDlpT0lbGdFwtvPZUNpDMGnSByd99VDq2bAIAMCnYP04Npu1MkfDIilD2D3Dknk4nYG6vqGdDyRDYQ4YVlZJ3beNhLkuEGYtTKD0EEpzK5tgXdmpsAgAwB+KZnNGutTXwiBpCdJnLMfpMVkTZN8u5lBjXRBmq7w0j6fyMKTMfwvSHoHJlALcoZZTzwDc3gAAPFtEyyFdPXPRX3YB0EQYxW+GVYYeTGc23b5B3UVZffC6UszMtB6MOpS9kvT4MbP8JVL685x8Cm8jAAD+LaTSTOOyiDZdUQM08eBXW4a60aaxlvrNwySVnrD89ilVinnr28dPUsCHSeYnXBrwDWfV/wOLAAC8g/Rm2WzMwl4Ki3hI0WzvNsF/pzdYNI9RyQnzw1JEtbhptcGC9UFVVsaE8+oQPzmv7Ct8/CguwSgAAP8oxdswyl6+TFlCGMUT+sykvNRnUnlIioPESjsUX8YKNWZywdG8NGfZSQa0kV1iQTP90RzNSyLUfh1WAQB4mPlI6tafZrSgHgWjeIC0e1EHylRncqXp9/IdRdFsn9wGpNg2pC5CTbYwEXkTyvgfnPymq7e2DqwCAPAz+8FIbz1pjgL4ouJVnZ360hwIUt19JM1PvM7eCrOWO0z9M+V2ei3pfjptdicmJj86+/UHmL07qcEqAACPsx/2EGav9ZEx44YLXElKzwVIz6Q7ALTP0q1BKmzWZyZRnXfKbz8oaJ8ZKLsjJikvImV+zmxu/wZWAQD4S7GyOicVj0iYX8EojBCDG4Uyvi0DQd+szqL5YNoOWTlhTkr5u4LkNiSU+hK0kWdCefoEbj0ASFYWhgEAeI3bzAc5NUShxjqwSpvpmdMVSftTt+m+mvZAnSRMg57qCqm1pbR7cemp0Ny1wz6RNFMql0NM4PbB7WGpW8Pm0noGywAAvIaCMk6LK0lKwirtI5R6/7Bk7kt7cJcE6kr/MgvBHd0apLmB0iLBWTVfrO6EmdwGBgbyoTT3MvOJMgwDAPA/WBd2U27a1nSVCsu02A/6zCbu2/8lGwGdfcn5/UGZMnC5snwkzTVZsG+9A6q5rKvPrIeZ3dK95CCGB3I01QIApIO8sHcxa4LyTVilRdS7YJ6dZo3uRcb9BVH9WCZtnTwWNseRmkpGsuyvkm+jtK5F+wijksrhQ/mL9NgalgEApCMjIvVp3AKqoLtSgGWaSLkckra929Ceyky2VeqrKMOc+aCqWN0pEvbRrNidWs2joVJz6VRmH37z3VwOywAA0kOxthm/FuP6SBimScGaMLvkpTFZCdbo1iAnzfcQrL39sFZbzX2Xgaz4wHCmdTAQdk8Yv8F0Vwoc30RE0nwRxgEApCuAk2YWsyvsx5EFbSxU/uG+641ZCtAoq0qdPWH9xQXs5dAFNKdzkm9tjU/Et8EnGriuSHsMwwP68yiBAQCkDtJk5rfgmv+FZRqAGNyoQ5orshaUud97M3VehQMshbq841NZ8o0Fsp1FszkcYDwHvtpqHBumhdJcDOMAANJHr17TbdivcytfKEi7BYwzNiaU4rULUndn6PHogkY5ycNCvHsYxYHOrBUKfXvWAnbyFVLJiVT8YTjB6OHaKTcoxdvAOgCAVOI2rWsZbqb/Iv1eWGcUqHjVYYWXVzIYfD0TCL03nGBMWdLIfb+zsuYzw/XslKjoi5TeGI4wMtzhbj+uHYnxPgUAkN7FV5nP8byu1qfBOiNADq4bCnsOSZZlMeAKpf0ntLUbEYSZA6ibcDaDdjO/Q5mrA2W3hie8C8KsxbV0Co31AADpz6wlbbv5Zb3QlfBd6I83LCjz+6zoZy/GP96IpPk1+S+coYEHP2luzaI/va3u+RZ3aNkDzrAI3ZUCV98gbf2gWFkdRgIApBpSh2CZXRf2UarBhoXeolCKt6w/HLVvZDegsv9xv39XeEMzDu/lMKfMD7N6CHy75GPSCdN9DzhFELhA/XzG9uqDhQAAqWdiaXANyk6w1UnOuhzX0FBHXuhP5aW+IcsB1HBL+asDVVkZs7bJh0KpPx5KPTvr/laQ9gE6vGRZYYg64HK2EdR9AADZWZCFLTKuKb0x6JnTlTmjiBnLuWDhCHdgqWU9aHLf4GUKGvCIrIWUp0+gR8sI2OulFu7PcnKjkyEfdAe2r3K+xaMmX5ioAIDsUDSb828bn5H6ZGeLUJr/y+qj0XduyFqTbjwmaZsCNnp8Ku3T8MUFvSDigjJH02E61XZX5nBu0r7vKIlT9rOYoQCAbG3K0tzCO7ulbwimzlo2lR+/uzKRsljOBn9HQPQ27XRlfhtMm92J2dle6O0INZyCXy7kny8UpBbUYCpV+v5DQx3D7xbmM//+M/GmAACQOeiK14MNspoaqT630bgDyO70QIpaZSMAWsjOj0GVgxlThnI5aU/g+r6lvf4aPxkKc14gqtt6XSYzddayHcpc5kU3WmEPwqQEAGSSUJm/+tAEh5pz+PqN6fFe0sDIBaQIdBb7iPSyoM+sgtnIExckbersVIGvLlGtaE6isCWqH6MDjj/JGr2z+7v/24vDkbB3IasOAMhwdl3v7NHGWPZCX5e6sRbN9pEyP8/L+B4ENEvOTkZCfwGz0AOcTyelEhnsmDvKxMLj9S6p5ktB78yVOJqSSpxCqXu4l70slFWn7wkAAJkO2JUd8KlulLJY7DZCFa8aSntIQdhLs9oZcnQPiM3lyKZ7mGVXeuNQxnfAh0fW6C2UZnpO2lPo8N52SVplP0SlO8NKS/58R2TVAQCAFnG9nYcb4UtuI7w42QTbsJCTVj2V5kTC/IpKBHzKUrU9my7NFzHpfM+y6xN9C/oYyA7Oozc4bt26IFT6a4niUZPLZui9j/t3H+v+nX/zdY3qVGYfTDoAAAgS3fVLvX7sJXVPUtderizf8I9Trk2mA01O6O8OP8Z6EMHHWGrT7ZVZbjaTOlywGQozA749rrXrueQ9gFt/qWzOBdWH5YvVnbp6a+uMKpCfNruT3haQ7CaVK7l/pgxL5j7fv08k4+sx0QAA4E3k4LqUrU7Rg69r3Ob1i6TJhzC7BCX9UfqNC6Qgqa5c2hW7StX30tU+PQ6jrqEu4D80eSwmTb/75/yTHrciqBj3LchTqDlNKeVymBP2B8iyN+8GkeaPC+Lvpf4Dbn26fbhskW7z7nb/+UO0RqXxZs/9pteC/nhDTDIAAHgbLrg9FRskRhOaW62G2ZVyqB5amlvh8xgNDNbPwsQCAIBF6a5MRIkHRmOGfSCUdl9MqgwxNNQRCvM/eWWfgP9jjLP85ZGgp7oCJhUAACyOUvXT2CwwxvmI7uzUdp4FS8cFWfW+Arxb12MwLmX0uK8GAAC0BGqpjQ0DYwyjUijFW2IGgYSi2RwyjxijHsIoTB4AAFgavTNXioR9FBsHxsiy6Ymu/HE+dW8ELcL5REHaI4ZVTzBfMJaq7IX+CwAAMEJCqffH5oGxlAdgpEDRi80VLA3qS+CzPCxGq8pfzAGYLQAAMLqA/RJsIBhLCNRnkh40ZgkYDXmpd6eOlJhDGIsJ1M/DDAEAgNHSM6eLOu5hI8F4W5D+TE7aE6gJCyYIGBMDA/l6aYx5DHMKY3hdMUF5+gRMDgAAGAOdsroB6k0xqEFJQeruoDz4HswK0BDKtWUiaX6ChkqZV5B6vrNoPogJAQAA4yAS9iBsKlnWPDbXYDMFzaKrz6xH9exp7MKJsdQOrW+gHwMAADQqYFf6l9hcsleXHki7F7wftIKC1B8PZXwb5l52Rk7p4+H5AADQKIaGOqC/npls11OJFOPAQB6OD1q9zkTSHhhKcy/mYsoflCpzERweAAAaTc+crlDo27HRpDaT/kIkzM8CMWM5ODtoK9NmdxakPSaU9j+Ym6ksrbsWyQAAAGgWqrKyC+pmYcNJVSb9Rbd5/hqPRwE7ytMnFIT5Npq0pSijLs0tQZ+ZBOcGAICmBuzxqnkZ34mNx/tM+quk8EINa+DUwINM+xGRjB/B3PU6UP9bMHXWsnBoAABAwI4xEhnGXr0mHBl4RZ+ZRO8poNGOQB0AAMAIoIys2zTvxkbkT5DuNsyLAzm4LrwXeI0L+nLK/DAv7dOY2z6sPfoG0tWH4wIAQHsyXauEwszAhsS6Jv3lJJPeH68PhwUpW38mFZT+FtRjOGfU9SVBd6UAZwUAgHaS1JPGJWxM7IL0Z/PSnI2adJB6pgzlOpXZB2pVrG7y5lOHWjgnAAAw2ixdcPgbbFIsakPvLQj7zaC7MhGOCTKH0tt1SH0VdcfEetBGGVhlvgRnBAAAhoTCHEAZXWxYbcmkD7pA/WDoFwPg6I/Xp5slkibF+tDKdSi+M+ozm8ABAQCAMZ1F80G3SVaxcbVgY1R2HmURA2l3gOcBsBhUZWVqa58X9i6sGU2+1RP2QtLGh9MBAIAPULdTqX9HdYvYxJpR6mLnkBoG6tEBGE3grrdz86c3L+1LWEcauB6VzMOhsp+FgwEAgI8UzfbQY29Ymcvr7vBzYyTtgUG5HMK5ABgjYsZy1GTJzad/YW0Z3yNS92dfUK5NhlMBAIDPTJvdSaoAeWVfwQY3Jumz2TmlT3Qb4mpwJgAaS6EUb0nSpi7wfAbrzejeyATKbg0PAgCAFEG17B3KXonSmBE90noyVOaivNQ7B0NDHfAeAJpMuRYFwu5JuuAI3N81m353JPQXsC4BAECqM1nmE3llB7DxvSNT9TR1GM0L/SkougDQRqiJz4LAHV1S35SEDZU5HGsTAABkiLyKd4uk/XOWM+2UwUs6/LnAAF3+AOAZuOeV2SNUdmok7KMZDNJvDYXej3ppwBkAACCjkCZvklGW9uWs6BC7IP2sJECnq3cAgB8MDXW4gH3TgrTfiaS51s3juam95SMZxqLZHEYHAADwFuXaZLdRHOUC97+lKdvufstjBalFKO0hQa9eE4YGIDVrVhQou2Mk9Wlu3fo7KTZ5HKBT86iyW6f2RRIBAADAUunqM+vlpDm5Hrj7tQFSVoqybjmhvxsUa5vhIRYAWQneK8vTm5Oc1D+KhP1TXtknWK9Vwt6Vl/rM5J1Mz5wuGBAAAMDYkHbFSOnPU81oXpqZnLLubjN+PhT69lCY89zB4uDOfv0BBOcAgAWJh97aOoHQe1PyoSDspe4wX2uHjK379z7r1s6/RMr8PKlBxy0fAACApkHZK2l3fdvmN+g2oReaXcoSyvg2egxaz/jr/YP+eH0E5gCAUTNlKEdBfF6YXUJhv059KOjdTlIHr7QuSPtAXsbPjaY5EWXx6T0MPQjtUOaySJhfJY2fitWdEJgDAADgQbGyOnVMpQ6fLoj/Zn0D1L+jgJ5qMd3/Po06gNJm5v68mf5nGh3SXO7+O0X33z3X/f/+NKf08ZHSXwmk3aFTVjcIytMn4OMCANoR1NPNYqDiVTulfd/bR5Kxp/8bDSi1ANA0/h+KWY+jExNt1QAAAABJRU5ErkJggg==;" vertex="1" parent="1">
          <mxGeometry x="382.49" y="780" width="46.51" height="41.47" as="geometry" />
        </mxCell>
        <mxCell id="JA8R-4U_Gd6iWjnFNRrc-38" value="" style="edgeStyle=orthogonalEdgeStyle;rounded=0;orthogonalLoop=1;jettySize=auto;html=1;fontSize=8;entryX=0.5;entryY=0;entryDx=0;entryDy=0;" edge="1" parent="1" source="JA8R-4U_Gd6iWjnFNRrc-31" target="JA8R-4U_Gd6iWjnFNRrc-36">
          <mxGeometry relative="1" as="geometry">
            <mxPoint x="1090" y="66" as="targetPoint" />
            <Array as="points">
              <mxPoint x="1085" y="66" />
            </Array>
          </mxGeometry>
        </mxCell>
        <mxCell id="JA8R-4U_Gd6iWjnFNRrc-31" value="«interface»&lt;br&gt;&lt;b&gt;Microphone&lt;/b&gt;" style="html=1;" vertex="1" parent="1">
          <mxGeometry x="885" y="41" width="110" height="50" as="geometry" />
        </mxCell>
        <mxCell id="JA8R-4U_Gd6iWjnFNRrc-32" value="" style="shape=folder;fontStyle=1;spacingTop=10;tabWidth=90;tabHeight=20;tabPosition=left;html=1;fontSize=8;" vertex="1" parent="1">
          <mxGeometry x="890" y="220" width="390" height="200" as="geometry" />
        </mxCell>
        <mxCell id="JA8R-4U_Gd6iWjnFNRrc-33" value="Speech2Text Parser" style="text;align=center;fontStyle=1;verticalAlign=middle;spacingLeft=3;spacingRight=3;strokeColor=none;rotatable=0;points=[[0,0.5],[1,0.5]];portConstraint=eastwest;fontSize=8;" vertex="1" parent="1">
          <mxGeometry x="900" y="222" width="80" height="18" as="geometry" />
        </mxCell>
        <mxCell id="JA8R-4U_Gd6iWjnFNRrc-45" value="" style="edgeStyle=orthogonalEdgeStyle;rounded=0;orthogonalLoop=1;jettySize=auto;html=1;fontSize=8;" edge="1" parent="1" source="JA8R-4U_Gd6iWjnFNRrc-34">
          <mxGeometry relative="1" as="geometry">
            <mxPoint x="970" y="440" as="targetPoint" />
          </mxGeometry>
        </mxCell>
        <mxCell id="JA8R-4U_Gd6iWjnFNRrc-34" value="Offline Parser" style="shape=module;align=left;spacingLeft=20;align=center;verticalAlign=top;fontSize=8;" vertex="1" parent="1">
          <mxGeometry x="920" y="338" width="100" height="50" as="geometry" />
        </mxCell>
        <mxCell id="JA8R-4U_Gd6iWjnFNRrc-43" value="" style="edgeStyle=orthogonalEdgeStyle;rounded=0;orthogonalLoop=1;jettySize=auto;html=1;fontSize=8;entryX=1;entryY=0.75;entryDx=0;entryDy=0;" edge="1" parent="1" source="JA8R-4U_Gd6iWjnFNRrc-35" target="JA8R-4U_Gd6iWjnFNRrc-5">
          <mxGeometry relative="1" as="geometry">
            <Array as="points">
              <mxPoint x="1170" y="438" />
              <mxPoint x="970" y="438" />
            </Array>
          </mxGeometry>
        </mxCell>
        <mxCell id="JA8R-4U_Gd6iWjnFNRrc-35" value="Cloud Parser" style="shape=module;align=left;spacingLeft=20;align=center;verticalAlign=top;fontSize=8;" vertex="1" parent="1">
          <mxGeometry x="1120" y="338" width="100" height="50" as="geometry" />
        </mxCell>
        <mxCell id="JA8R-4U_Gd6iWjnFNRrc-40" value="" style="edgeStyle=orthogonalEdgeStyle;rounded=0;orthogonalLoop=1;jettySize=auto;html=1;fontSize=8;entryX=0.5;entryY=0;entryDx=0;entryDy=0;" edge="1" parent="1" source="JA8R-4U_Gd6iWjnFNRrc-36" target="JA8R-4U_Gd6iWjnFNRrc-34">
          <mxGeometry relative="1" as="geometry" />
        </mxCell>
        <mxCell id="JA8R-4U_Gd6iWjnFNRrc-42" value="" style="edgeStyle=orthogonalEdgeStyle;rounded=0;orthogonalLoop=1;jettySize=auto;html=1;fontSize=8;" edge="1" parent="1" source="JA8R-4U_Gd6iWjnFNRrc-36" target="JA8R-4U_Gd6iWjnFNRrc-35">
          <mxGeometry relative="1" as="geometry">
            <mxPoint x="1215" y="280" as="targetPoint" />
            <Array as="points">
              <mxPoint x="1170" y="280" />
            </Array>
          </mxGeometry>
        </mxCell>
        <mxCell id="JA8R-4U_Gd6iWjnFNRrc-36" value="Abstract Parser" style="shape=module;align=left;spacingLeft=20;align=center;verticalAlign=top;fontSize=8;" vertex="1" parent="1">
          <mxGeometry x="1035" y="255" width="100" height="50" as="geometry" />
        </mxCell>
        <mxCell id="JA8R-4U_Gd6iWjnFNRrc-49" value="Update and Configure" style="edgeStyle=orthogonalEdgeStyle;rounded=0;orthogonalLoop=1;jettySize=auto;html=1;fontSize=8;entryX=0;entryY=0;entryDx=310;entryDy=70;entryPerimeter=0;startArrow=classic;startFill=1;" edge="1" parent="1" source="JA8R-4U_Gd6iWjnFNRrc-46" target="JA8R-4U_Gd6iWjnFNRrc-6">
          <mxGeometry relative="1" as="geometry">
            <Array as="points">
              <mxPoint x="820" y="710" />
              <mxPoint x="820" y="710" />
            </Array>
          </mxGeometry>
        </mxCell>
        <mxCell id="JA8R-4U_Gd6iWjnFNRrc-59" value="" style="edgeStyle=orthogonalEdgeStyle;rounded=0;orthogonalLoop=1;jettySize=auto;html=1;fontSize=8;startArrow=none;startFill=0;entryX=0.399;entryY=0.118;entryDx=0;entryDy=0;entryPerimeter=0;" edge="1" parent="1" source="JA8R-4U_Gd6iWjnFNRrc-46" target="JA8R-4U_Gd6iWjnFNRrc-55">
          <mxGeometry relative="1" as="geometry">
            <Array as="points">
              <mxPoint x="1090" y="730" />
              <mxPoint x="1090" y="730" />
            </Array>
          </mxGeometry>
        </mxCell>
        <mxCell id="JA8R-4U_Gd6iWjnFNRrc-46" value="" style="shape=folder;fontStyle=1;spacingTop=10;tabWidth=156;tabHeight=30;tabPosition=left;html=1;" vertex="1" parent="1">
          <mxGeometry x="890" y="460" width="426" height="260" as="geometry" />
        </mxCell>
        <mxCell id="JA8R-4U_Gd6iWjnFNRrc-47" value="Backend" style="text;align=center;fontStyle=1;verticalAlign=middle;spacingLeft=3;spacingRight=3;strokeColor=none;rotatable=0;points=[[0,0.5],[1,0.5]];portConstraint=eastwest;fontSize=8;" vertex="1" parent="1">
          <mxGeometry x="940" y="467" width="80" height="26" as="geometry" />
        </mxCell>
        <mxCell id="JA8R-4U_Gd6iWjnFNRrc-48" value="dispatch" style="html=1;verticalAlign=bottom;endArrow=block;rounded=0;fontSize=8;exitX=0.5;exitY=1;exitDx=0;exitDy=0;entryX=0.004;entryY=0.185;entryDx=0;entryDy=0;entryPerimeter=0;" edge="1" parent="1" source="JA8R-4U_Gd6iWjnFNRrc-5" target="JA8R-4U_Gd6iWjnFNRrc-46">
          <mxGeometry width="80" relative="1" as="geometry">
            <mxPoint x="890" y="700" as="sourcePoint" />
            <mxPoint x="970" y="700" as="targetPoint" />
            <Array as="points">
              <mxPoint x="500" y="508" />
            </Array>
          </mxGeometry>
        </mxCell>
        <mxCell id="JA8R-4U_Gd6iWjnFNRrc-55" value="" style="shape=folder;fontStyle=1;spacingTop=10;tabWidth=156;tabHeight=30;tabPosition=left;html=1;" vertex="1" parent="1">
          <mxGeometry x="920" y="760" width="426" height="260" as="geometry" />
        </mxCell>
        <mxCell id="JA8R-4U_Gd6iWjnFNRrc-56" value="IoT Peripherals" style="text;align=center;fontStyle=1;verticalAlign=middle;spacingLeft=3;spacingRight=3;strokeColor=none;rotatable=0;points=[[0,0.5],[1,0.5]];portConstraint=eastwest;fontSize=8;" vertex="1" parent="1">
          <mxGeometry x="955" y="760" width="80" height="26" as="geometry" />
        </mxCell>
        <mxCell id="JA8R-4U_Gd6iWjnFNRrc-57" value="PC Peripheral" style="shape=module;align=left;spacingLeft=20;align=center;verticalAlign=top;fontSize=8;" vertex="1" parent="1">
          <mxGeometry x="940" y="800" width="100" height="50" as="geometry" />
        </mxCell>
        <mxCell id="JA8R-4U_Gd6iWjnFNRrc-58" value="Other Home&#xa;Peripherals" style="shape=module;align=left;spacingLeft=20;align=center;verticalAlign=top;fontSize=8;" vertex="1" parent="1">
          <mxGeometry x="1053" y="800" width="100" height="50" as="geometry" />
        </mxCell>
      </root>
    </mxGraphModel>
  </diagram>
</mxfile>
